<svg width="191" height="129" viewBox="0 0 191 129" fill="none" xmlns="http://www.w3.org/2000/svg">
<path d="M30.0247 0.623047H145.483C161.495 0.623047 174.379 13.007 174.379 28.143V82.5574C174.379 95.8171 164.622 106.95 151.613 109.577L157.742 127.59L129.472 110.202H30.0247C14.1382 110.202 1.12878 97.8185 1.12878 82.6825V28.143C1.12878 13.007 14.1382 0.623047 30.0247 0.623047Z" fill="white" stroke="#263238" stroke-miterlimit="10"/>
<path d="M174.38 46.6434C183.292 46.6434 190.517 39.7548 190.517 31.2572C190.517 22.7597 183.292 15.8711 174.38 15.8711C165.468 15.8711 158.243 22.7597 158.243 31.2572C158.243 39.7548 165.468 46.6434 174.38 46.6434Z" fill="#00AEEF"/>
<path d="M172.844 38.8362C172.507 38.3304 172.338 37.5718 172.338 36.5603V28.131L170.399 29.2268C170.147 29.3111 169.978 29.3954 169.725 29.3954C169.388 29.3954 169.051 29.2268 168.798 28.974C168.545 28.7211 168.376 28.3839 168.376 28.0468C168.376 27.7939 168.461 27.541 168.545 27.3724C168.714 27.2038 168.882 26.951 169.219 26.7824L172.844 24.8436C173.434 24.5065 173.855 24.3379 174.277 24.3379C175.541 24.3379 176.131 25.2651 176.131 27.2038V36.8975C176.131 38.7519 175.457 39.6791 174.108 39.6791C173.687 39.5948 173.181 39.3419 172.844 38.8362Z" fill="white"/>
<path d="M55.4536 60.4348H52.6091L48.0175 52.45H47.9525C48.0439 53.8602 48.0897 54.8661 48.0897 55.4678V60.4348H46.0898V49.8798H48.9127L53.4971 57.7853H53.5477C53.4755 56.4135 53.4394 55.4437 53.4394 54.8758V49.8798H55.4536V60.4348Z" fill="black"/>
<path d="M61.2871 53.7784C60.8202 53.7784 60.4544 53.9276 60.1897 54.226C59.925 54.5196 59.7734 54.9383 59.7349 55.4822H62.8248C62.8152 54.9383 62.6732 54.5196 62.3989 54.226C62.1245 53.9276 61.7539 53.7784 61.2871 53.7784ZM61.5975 60.5792C60.298 60.5792 59.2824 60.2207 58.5509 59.5035C57.8193 58.7864 57.4535 57.7708 57.4535 56.4569C57.4535 55.1044 57.7904 54.06 58.4642 53.3236C59.1429 52.5823 60.079 52.2117 61.2726 52.2117C62.4133 52.2117 63.3013 52.5366 63.9367 53.1864C64.572 53.8361 64.8897 54.7338 64.8897 55.8793V56.9478H59.6843C59.7084 57.5735 59.8937 58.062 60.2402 58.4134C60.5868 58.7647 61.0729 58.9404 61.6986 58.9404C62.1847 58.9404 62.6444 58.8899 63.0775 58.7888C63.5107 58.6877 63.9631 58.5265 64.4348 58.3051V60.0089C64.0498 60.2014 63.6383 60.3434 63.2003 60.4348C62.7623 60.5311 62.228 60.5792 61.5975 60.5792Z" fill="black"/>
<path d="M68.3334 56.3125L65.7343 52.3634H68.2323L69.799 54.9335L71.3801 52.3634H73.878L71.2501 56.3125L74.0008 60.4348H71.4956L69.799 57.6697L68.0951 60.4348H65.5972L68.3334 56.3125Z" fill="black"/>
<path d="M78.6285 58.8249C79.0136 58.8249 79.4756 58.7407 80.0147 58.5722V60.211C79.466 60.4565 78.7922 60.5792 77.9932 60.5792C77.1124 60.5792 76.4699 60.3578 76.0656 59.915C75.6661 59.4674 75.4663 58.7984 75.4663 57.908V54.0166H74.4123V53.0853L75.6252 52.3489L76.2605 50.6451H77.6683V52.3634H79.9281V54.0166H77.6683V57.908C77.6683 58.2208 77.755 58.4519 77.9282 58.6011C78.1063 58.7503 78.3397 58.8249 78.6285 58.8249Z" fill="black"/>
<path d="M88.8948 58.8249C89.2798 58.8249 89.7419 58.7407 90.2809 58.5722V60.211C89.7322 60.4565 89.0584 60.5792 88.2595 60.5792C87.3787 60.5792 86.7361 60.3578 86.3318 59.915C85.9323 59.4674 85.7326 58.7984 85.7326 57.908V54.0166H84.6785V53.0853L85.8914 52.3489L86.5268 50.6451H87.9346V52.3634H90.1943V54.0166H87.9346V57.908C87.9346 58.2208 88.0212 58.4519 88.1945 58.6011C88.3726 58.7503 88.606 58.8249 88.8948 58.8249Z" fill="black"/>
<path d="M91.8259 50.2769C91.8259 49.5597 92.2254 49.2012 93.0244 49.2012C93.8234 49.2012 94.2228 49.5597 94.2228 50.2769C94.2228 50.6186 94.1218 50.8857 93.9196 51.0783C93.7223 51.266 93.4239 51.3598 93.0244 51.3598C92.2254 51.3598 91.8259 50.9988 91.8259 50.2769ZM94.1218 60.4348H91.9198V52.3634H94.1218V60.4348Z" fill="black"/>
<path d="M103.666 60.4348H101.464V55.7205C101.464 55.1381 101.365 54.7025 101.168 54.4137C100.976 54.1201 100.67 53.9733 100.251 53.9733C99.6881 53.9733 99.279 54.1803 99.0239 54.5942C98.7688 55.0081 98.6412 55.6892 98.6412 56.6373V60.4348H96.4392V52.3634H98.1214L98.4174 53.3958H98.5401C98.7567 53.0251 99.0696 52.7364 99.4787 52.5294C99.8878 52.3176 100.357 52.2117 100.887 52.2117C102.095 52.2117 102.913 52.6064 103.341 53.3958H103.536C103.753 53.0203 104.07 52.7291 104.489 52.5222C104.913 52.3152 105.389 52.2117 105.919 52.2117C106.833 52.2117 107.524 52.4476 107.991 52.9193C108.462 53.3861 108.698 54.137 108.698 55.1718V60.4348H106.489V55.7205C106.489 55.1381 106.39 54.7025 106.193 54.4137C106 54.1201 105.695 53.9733 105.276 53.9733C104.737 53.9733 104.333 54.1658 104.063 54.5509C103.798 54.9359 103.666 55.5472 103.666 56.3847V60.4348Z" fill="black"/>
<path d="M114.308 53.7784C113.841 53.7784 113.475 53.9276 113.21 54.226C112.946 54.5196 112.794 54.9383 112.756 55.4822H115.845C115.836 54.9383 115.694 54.5196 115.42 54.226C115.145 53.9276 114.775 53.7784 114.308 53.7784ZM114.618 60.5792C113.319 60.5792 112.303 60.2207 111.572 59.5035C110.84 58.7864 110.474 57.7708 110.474 56.4569C110.474 55.1044 110.811 54.06 111.485 53.3236C112.164 52.5823 113.1 52.2117 114.293 52.2117C115.434 52.2117 116.322 52.5366 116.957 53.1864C117.593 53.8361 117.91 54.7338 117.91 55.8793V56.9478H112.705C112.729 57.5735 112.914 58.062 113.261 58.4134C113.607 58.7647 114.094 58.9404 114.719 58.9404C115.205 58.9404 115.665 58.8899 116.098 58.7888C116.531 58.6877 116.984 58.5265 117.455 58.3051V60.0089C117.07 60.2014 116.659 60.3434 116.221 60.4348C115.783 60.5311 115.249 60.5792 114.618 60.5792Z" fill="black"/>
<path d="M121.549 56.9334H119.787L119.419 49.8798H121.917L121.549 56.9334ZM119.39 59.4024C119.39 58.9982 119.499 58.6925 119.715 58.4856C119.932 58.2786 120.247 58.1751 120.661 58.1751C121.06 58.1751 121.368 58.281 121.585 58.4928C121.806 58.7046 121.917 59.0078 121.917 59.4024C121.917 59.7827 121.806 60.0835 121.585 60.3049C121.364 60.5215 121.056 60.6298 120.661 60.6298C120.257 60.6298 119.944 60.5239 119.722 60.3121C119.501 60.0955 119.39 59.7923 119.39 59.4024Z" fill="black"/>
</svg>
