<svg width="241" height="296" viewBox="0 0 241 296" fill="none" xmlns="http://www.w3.org/2000/svg">
<path d="M53.3917 270.58C53.6869 269.252 53.8345 267.925 53.7607 267.409C53.6869 266.819 52.949 261.288 57.7452 258.781C62.5414 256.274 79.1435 252.66 79.1435 252.66C79.1435 252.66 82.2426 252.587 82.9805 252.439C83.7183 252.365 85.0465 251.849 85.0465 251.849L85.3417 254.357C85.3417 254.357 88.3669 255.02 89.7689 254.799C91.1709 254.578 100.468 251.481 102.091 251.186C103.715 250.891 107.994 250.153 108.88 249.858C109.765 249.563 113.75 246.761 116.259 243.664C118.694 240.567 123.416 234.889 125.113 234.151C126.81 233.414 130.647 231.054 132.492 230.39C134.263 229.727 141.641 226.408 142.379 223.311C143.117 220.214 141.715 217.485 140.387 215.937C139.059 214.462 133.008 208.194 132.123 207.309C131.164 206.35 126.958 201.483 126.958 201.483L127.327 192.634C127.327 192.634 126.884 187.177 128.729 186.956C130.647 186.735 131.385 186.661 131.385 186.661L131.459 183.269C131.459 183.269 130.868 180.614 130.5 180.246C130.131 179.877 129.319 178.328 129.393 177.738C129.466 177.075 127.991 175.084 127.474 174.641C127.032 174.199 124.375 171.47 124.375 171.47C124.375 171.47 119.136 172.281 118.251 172.208C117.439 172.134 114.488 171.397 114.488 171.397C114.488 171.397 110.429 163.506 109.765 162.326C109.101 161.22 107.773 159.672 107.404 158.565C107.035 157.459 104.674 148.02 104.084 146.693C103.493 145.366 101.132 140.646 101.132 140.646C101.132 140.646 111.979 143.006 114.783 142.932C117.587 142.858 132.566 142.858 134.263 143.006C135.96 143.153 143.412 142.785 143.412 142.785C143.412 142.785 138.616 134.599 137.288 131.945C135.96 129.29 131.237 120.293 131.164 116.532C131.09 112.772 132.492 106.725 135.591 103.333C138.69 99.9404 145.773 93.8936 157.432 92.5662C169.164 91.4601 168.426 91.4601 168.426 91.4601C168.426 91.4601 162.966 83.5697 161.121 81.8736C159.277 80.1775 154.923 74.7944 154.333 72.8033C153.743 70.8123 151.381 63.3643 150.127 62.037C148.873 60.7096 141.051 50.7544 140.387 50.1645C139.649 49.5745 137.362 47.5835 137.362 47.5835C137.362 47.5835 137.362 30.6965 138.616 26.7145C139.871 22.6586 141.125 16.0956 145.183 13.2196C149.242 10.3437 147.913 10.7124 149.906 10.27C151.898 9.82751 160.236 9.23757 161.564 9.16383C162.892 9.09009 165.401 8.0577 166.065 7.83647C166.729 7.61524 180.749 6.36163 187.463 5.91917C194.104 5.69795 211.518 6.73034 214.617 7.39402C217.716 8.0577 223.914 9.01635 225.98 10.0487C228.046 11.0811 229.375 12.1135 229.375 12.1135C229.375 12.1135 233.949 13.0722 236.237 14.3258C238.524 15.6531 239.926 18.0866 240.221 20.8888C240.516 23.691 239.631 34.8261 236.606 52.5242C233.58 70.2223 228.046 95.7371 228.046 95.7371C228.046 95.7371 231.736 99.4242 232.4 100.604C233.064 101.858 232.621 105.987 230.629 106.282C228.637 106.577 226.866 105.914 226.866 105.914C226.866 105.914 224.874 112.403 224.874 118.376C224.874 124.275 224.209 142.785 223.103 147.062C221.996 151.412 220.077 154.583 217.273 155.69C214.47 156.796 209.747 157.681 209.747 157.681C209.747 157.681 209.673 163.064 206.796 164.17C203.992 165.276 193.145 166.53 175.141 167.341C157.137 168.152 155.144 168.152 154.111 168.742C153.078 169.332 148.577 173.756 147.618 174.568C146.659 175.379 145.847 176.927 143.191 177.517C140.535 178.107 139.871 178.255 139.871 178.255C139.871 178.255 138.837 180.172 138.247 180.909C137.657 181.647 137.509 186.587 137.509 186.587C137.509 186.587 139.133 186.809 140.239 187.251C141.346 187.694 141.346 190.053 141.346 191.676C141.346 193.298 142.01 212.102 142.01 212.102C142.01 212.102 142.748 211.365 143.117 213.208C143.486 215.126 144.15 238.281 144.15 238.281C144.15 238.281 164.294 231.201 166.95 231.496C169.607 231.791 171.451 234.299 171.82 235.552C172.189 236.806 172.632 238.059 172.632 238.059C172.632 238.059 175.731 238.871 176.469 240.714C177.207 242.558 177.723 245.729 177.723 245.729C177.723 245.729 215.65 249.711 216.905 250.153C218.159 250.596 219.635 250.743 220.741 252.439C221.848 254.135 222.439 257.601 222.439 257.601C222.439 257.601 226.644 258.412 228.12 259.887C229.522 261.288 230.629 264.68 230.481 265.418C230.334 266.155 228.858 265.492 228.858 265.492C228.858 265.492 227.456 274.046 224.431 274.414C221.406 274.783 220.668 273.456 220.299 272.792C219.93 272.128 219.339 270.359 219.339 270.359C219.339 270.359 215.355 271.17 213.658 268.22C211.961 265.197 212.182 261.141 212.182 261.141L212.256 259.74L155.809 259.002L148.43 258.56C148.43 258.56 152.857 266.376 153.669 267.483C154.48 268.589 156.473 272.718 156.473 274.046C156.473 275.373 156.178 277.807 156.178 277.807C156.178 277.807 161.195 279.06 163.04 280.904C164.958 282.821 165.77 286.066 165.77 286.066C165.77 286.066 165.475 287.319 164.958 289.089C164.442 290.859 162.228 294.472 160.088 294.988C157.948 295.578 154.628 295.283 153.964 294.693C153.3 294.104 151.529 290.711 151.529 290.711C151.529 290.711 148.799 290.49 148.135 290.048C147.471 289.605 145.773 283.927 145.773 283.19C145.773 282.452 145.552 277.29 145.552 277.29C145.552 277.29 141.715 274.857 139.354 272.128C136.993 269.4 130.721 262.616 129.835 261.657C128.95 260.698 127.917 258.56 124.965 259.15C121.94 259.74 87.1864 263.869 85.3417 264.164C83.4232 264.459 66.2307 266.893 66.2307 266.893C66.2307 266.893 64.5336 267.261 66.2307 267.999C67.9278 268.736 69.9201 269.916 71.4697 272.055C73.093 274.193 72.5764 276.258 71.2483 278.913C69.9201 281.567 67.4113 284.591 62.6889 283.337C57.9666 282.084 58.2617 280.535 58.1879 279.945C58.1141 279.355 57.819 278.544 57.819 278.544C57.819 278.544 55.3102 279.281 54.1296 276.848C53.1704 274.488 53.0966 271.907 53.3917 270.58ZM146.954 124.718C148.356 130.617 156.842 142.785 156.842 142.785L176.617 142.195C176.617 142.195 180.454 137.549 180.601 133.051C180.749 128.552 180.306 113.435 180.011 112.034C179.716 110.633 179.421 107.536 178.461 106.209C178.461 106.209 174.108 99.8667 173.518 99.7192C172.927 99.5717 160.679 100.973 158.539 101.563C156.399 102.153 149.463 103.996 147.249 109.011C144.962 114.099 145.552 118.745 146.954 124.718Z" fill="#00AEEF"/>
<path d="M55.0893 18.8242C60.6234 19.4141 67.7808 21.2577 72.9459 18.4555C73.241 18.308 73.5362 18.7504 73.241 18.8979C67.8545 21.7739 60.771 19.9303 55.0893 19.3404C54.7204 19.3404 54.7204 18.8242 55.0893 18.8242Z" fill="#231F20"/>
<path d="M73.0195 18.4553C77.4467 16.9804 82.6856 15.1369 87.3342 16.538C93.3848 18.3815 98.2547 23.101 104.158 25.387C104.453 25.5345 104.379 26.0507 104.01 25.9032C98.9926 23.9859 94.7867 20.7413 90.0643 18.3078C84.4565 15.4318 78.8487 17.1279 73.2408 18.9715C72.8719 19.119 72.7243 18.529 73.0195 18.4553Z" fill="#231F20"/>
<path d="M106.593 26.0509C108.954 26.9358 111.389 27.8945 113.382 29.5168C116.259 31.8765 117.145 35.4162 120.908 36.7435C121.277 36.891 121.129 37.4072 120.76 37.2597C118.62 36.4486 117.071 35.1949 115.817 33.3514C113.308 29.738 110.43 28.1157 106.446 26.5671C106.15 26.4934 106.298 25.9034 106.593 26.0509Z" fill="#231F20"/>
<path d="M123.711 37.9984C125.408 39.547 127.105 41.0219 129.245 41.9805C130.499 42.5704 131.827 42.9392 132.934 43.6766C134.852 44.9302 136.476 46.7 138.173 48.2486C142.526 52.3781 146.068 56.8027 149.831 61.5222C151.233 63.2182 152.266 65.5043 152.93 67.569C154.185 71.5511 155.513 74.722 158.243 77.9667C162.006 82.3175 165.031 86.8895 168.352 91.609C168.573 91.9039 168.057 92.1989 167.909 91.9039C166.655 90.1341 165.4 88.2906 164.146 86.447C162.006 83.2024 159.497 80.4739 157.062 77.5242C153.004 72.5835 152.857 65.7992 148.651 61.1535C146.732 59.0887 145.404 57.0239 143.707 54.7379C142.157 52.5256 139.722 50.6083 137.804 48.691C135.443 46.405 133.155 44.3403 130.056 43.0129C127.474 41.9068 125.481 40.4319 123.342 38.5146C123.046 38.1459 123.489 37.7772 123.711 37.9984Z" fill="#231F20"/>
<path d="M173.739 100.089C176.691 103.039 178.535 106.21 179.642 110.265C180.897 114.764 180.38 118.598 180.454 123.244C180.601 129.586 181.782 138.066 176.469 142.859C176.174 143.081 175.805 142.712 176.1 142.491C181.265 137.771 180.085 129.512 179.937 123.318C179.864 119.262 180.38 115.722 179.421 111.666C178.314 107.316 176.469 103.776 173.296 100.531C173.075 100.236 173.518 99.8677 173.739 100.089Z" fill="#231F20"/>
<path d="M137.51 97.4334C116.038 97.8021 94.9346 87.0357 73.5363 93.0089C73.1673 93.0826 73.0198 92.5664 73.3887 92.4927C94.9346 86.5195 115.964 97.2121 137.51 96.9172C137.879 96.9172 137.879 97.4334 137.51 97.4334Z" fill="#231F20"/>
<path d="M73.5359 93.0097C65.9358 95.5907 57.6716 94.5583 50.1453 97.4342C46.2346 98.9828 42.619 101.048 39.2986 103.629C37.0849 105.325 35.1664 107.094 34.9451 110.044C34.7975 111.666 35.1665 113.363 35.3878 114.985C35.4616 115.354 34.8713 115.354 34.7975 114.985C34.4286 111.888 33.8383 108.938 35.7568 106.283C37.9704 103.112 42.3238 100.753 45.6443 98.9828C49.4812 96.918 53.6133 95.5907 57.893 94.927C63.1319 94.1896 68.3708 94.1896 73.4621 92.4935C73.6835 92.4198 73.831 92.936 73.5359 93.0097Z" fill="#231F20"/>
<path d="M96.9269 200.231C99.2881 206.794 99.7308 214.39 100.542 221.248C100.616 221.616 100.026 221.616 99.9522 221.248C99.2143 214.463 98.6978 206.868 96.4104 200.379C96.2628 200.01 96.7793 199.862 96.9269 200.231Z" fill="#231F20"/>
<path d="M35.4615 116.46C37.8965 125.825 45.6441 132.83 51.7685 139.983C56.2695 145.293 60.1802 150.75 64.1647 156.428C73.9785 170.291 85.7844 182.385 95.3768 196.396C95.5981 196.691 95.0816 196.986 94.9341 196.691C85.0466 182.385 72.8717 169.996 62.9842 155.691C58.3356 148.98 53.3918 142.712 48.0791 136.518C42.8402 130.323 37.0848 124.719 34.945 116.607C34.7974 116.238 35.3139 116.091 35.4615 116.46Z" fill="#231F20"/>
<path d="M100.1 222.943C98.919 225.966 98.0335 229.211 96.2626 231.939C95.0082 233.857 94.6393 235.332 94.049 237.544C93.7538 238.724 93.3849 239.535 92.5732 240.494C92.3519 240.788 91.9829 240.346 92.2043 240.125C94.049 237.913 93.68 234.815 95.1558 232.382C97.0005 229.285 98.2549 226.188 99.5093 222.869C99.6568 222.5 100.247 222.648 100.1 222.943Z" fill="#231F20"/>
<path d="M91.4664 242.041C90.8023 242.926 89.9168 243.516 88.8838 244.032C87.5556 244.696 85.9323 245.433 85.8585 247.129C85.8585 247.498 85.2682 247.498 85.2682 247.129C85.342 244.032 89.3266 243.811 90.8761 241.746C91.1712 241.525 91.6877 241.746 91.4664 242.041Z" fill="#231F20"/>
<path d="M138.321 213.43C140.903 215.642 144.224 220.14 142.527 223.68C141.789 225.302 139.575 226.556 138.173 227.515C135.296 229.432 132.123 231.054 128.95 232.455C128.655 232.603 128.36 232.087 128.655 232.013C132.639 230.243 137.362 228.105 140.535 225.081C144.15 221.615 140.977 216.453 137.878 213.799C137.657 213.651 138.1 213.209 138.321 213.43Z" fill="#231F20"/>
<path d="M137.953 213.873C133.894 210.038 129.984 205.909 126.442 201.558C123.638 198.166 122.015 194.7 120.391 190.644C120.244 190.349 120.76 190.202 120.908 190.497C122.826 195.437 125.04 199.198 128.508 203.18C131.607 206.794 134.854 210.186 138.322 213.431C138.617 213.726 138.174 214.094 137.953 213.873Z" fill="#231F20"/>
<path d="M79.2178 119.63C82.9809 120.958 84.7518 124.35 87.4819 126.931C91.0237 130.249 94.6393 133.199 97.886 136.96C100.247 139.614 102.535 142.49 103.937 145.809C104.748 147.652 105.191 149.57 105.486 151.561C106.076 155.174 106.74 157.755 108.806 160.705C109.028 161 108.511 161.295 108.364 161C105.781 157.386 105.56 154.584 104.822 150.381C103.937 145.735 101.28 141.827 98.2549 138.287C95.7461 135.337 93.0898 132.388 90.1383 129.88C88.4412 128.479 86.7441 127.152 85.2683 125.456C83.4236 123.317 81.8741 121.179 78.9964 120.22C78.775 120.073 78.8488 119.556 79.2178 119.63Z" fill="#231F20"/>
<path d="M111.093 164.244C114.487 171.397 117.955 178.476 120.242 186.072C120.316 186.441 119.8 186.588 119.726 186.219C117.438 178.698 114.044 171.618 110.65 164.539C110.429 164.17 110.871 163.949 111.093 164.244Z" fill="#231F20"/>
<path d="M127.474 233.267C118.693 237.692 116.185 249.417 105.559 251.186C105.19 251.26 105.043 250.744 105.412 250.67C115.963 248.9 118.398 237.249 127.179 232.825C127.548 232.677 127.769 233.12 127.474 233.267Z" fill="#231F20"/>
<path d="M86.6695 220.289C87.4074 222.28 88.1453 224.345 87.9239 226.483C87.8501 226.926 87.7026 227.368 87.6288 227.811C87.1123 229.581 86.8171 230.834 86.7433 232.751C86.6695 236.217 86.522 239.388 83.8656 241.969C83.5705 242.19 83.2016 241.822 83.4967 241.601C86.8909 238.43 85.7103 234.816 86.2268 230.76C86.3744 229.433 86.522 229.581 86.8171 228.474C87.555 225.304 87.3336 223.46 86.2268 220.51C86.0055 220.068 86.522 219.92 86.6695 220.289Z" fill="#231F20"/>
<path d="M73.6099 204.508C70.5846 202.148 67.4855 199.862 64.0913 198.092C63.7961 197.945 64.0175 197.429 64.3864 197.65C67.8544 199.42 70.9535 201.706 74.0526 204.139C74.274 204.361 73.905 204.729 73.6099 204.508Z" fill="#231F20"/>
<path d="M85.1947 218.517C83.8665 216.748 83.2762 214.609 82.0956 212.765C80.6937 210.701 78.9228 209.005 77.0043 207.382C76.7092 207.161 77.1519 206.792 77.3733 207.014C79.1442 208.488 80.8413 210.037 82.1694 211.881C83.5714 213.872 84.2355 216.231 85.7112 218.222C85.8588 218.517 85.4161 218.739 85.1947 218.517Z" fill="#231F20"/>
<path d="M61.2874 196.396C56.6388 192.193 51.6213 188.506 46.9727 184.45C44.8328 182.606 42.9144 180.541 40.7008 178.698C38.5609 176.928 36.6424 175.158 35.0929 172.872C34.8716 172.577 35.3881 172.282 35.5356 172.577C37.2328 175.158 39.5939 177.002 41.9551 178.993C44.3163 180.984 46.3824 183.344 48.8912 185.187C53.3184 188.579 57.5243 192.119 61.6564 195.954C61.8777 196.249 61.5088 196.617 61.2874 196.396Z" fill="#231F20"/>
<path d="M33.6907 170.733C31.1081 167.12 27.7139 164.391 24.541 161.368C21.442 158.418 19.6711 154.731 16.7934 151.708C16.572 151.413 16.941 151.044 17.1623 151.339C20.2614 154.657 22.3274 158.639 25.7954 161.81C28.7469 164.539 31.846 167.12 34.2072 170.512C34.3547 170.733 33.8382 171.028 33.6907 170.733Z" fill="#231F20"/>
<path d="M63.5011 156.797C58.2622 151.414 49.8504 151.193 44.1688 146.4C43.8736 146.179 44.3164 145.81 44.5377 146.031C50.2193 150.824 58.6311 151.046 63.87 156.429C64.1652 156.65 63.7962 157.092 63.5011 156.797Z" fill="#231F20"/>
<path d="M37.0846 121.99C32.6574 123.023 28.1564 124.055 23.7291 125.087C23.3602 125.161 23.2126 124.645 23.5816 124.571C28.0088 123.539 32.5098 122.506 36.9371 121.474C37.306 121.4 37.4536 121.916 37.0846 121.99Z" fill="#231F20"/>
<path d="M52.8747 61.5949C51.6203 66.6831 49.9232 71.6976 48.2261 76.7121C47.1192 80.0305 46.6765 83.2014 47.0455 86.6673C47.2668 88.7321 47.562 90.4281 46.8241 92.4929C46.6765 92.8616 46.16 92.7141 46.3076 92.3454C47.3406 89.4695 46.2338 86.5935 46.2338 83.6438C46.2338 81.2104 46.8241 78.8506 47.6358 76.4909C49.3329 71.4764 51.03 66.5357 52.2844 61.3737C52.4319 61.0787 52.9485 61.2262 52.8747 61.5949Z" fill="#231F20"/>
<path d="M63.7965 26.7891C61.2139 31.7298 55.8274 34.6795 53.6876 39.8414C50.8837 46.6257 52.2856 53.3363 52.9497 60.3418C52.9497 60.7105 52.4332 60.7105 52.3594 60.3418C51.6953 53.41 50.4409 46.9207 52.9497 40.1364C55.0158 34.6057 60.6236 31.5823 63.3538 26.4941C63.5013 26.1991 63.944 26.4204 63.7965 26.7891Z" fill="#231F20"/>
<path d="M82.6123 82.4646C81.2841 85.8567 79.7346 89.1751 77.521 92.051C77.2996 92.346 76.8569 92.051 77.0782 91.7561C79.2919 88.9539 80.8414 85.6355 82.1696 82.3171C82.2434 81.9484 82.7599 82.0959 82.6123 82.4646Z" fill="#231F20"/>
<path d="M95.0085 51.4176C92.6473 61.3728 87.9249 70.1482 84.1617 79.5134C84.0141 79.8084 83.4976 79.6609 83.6452 79.3659C87.4084 70.0744 92.1307 61.2254 94.4182 51.2702C94.5657 50.9752 95.0822 51.1227 95.0085 51.4176Z" fill="#231F20"/>
<path d="M13.1036 46.2563C9.34041 45.2239 7.79086 41.5368 6.16753 38.2921C6.01996 37.9972 6.46269 37.7022 6.61026 37.9972C8.1598 41.0206 9.63555 44.7077 13.2511 45.6664C13.6201 45.8138 13.4725 46.33 13.1036 46.2563Z" fill="#231F20"/>
<path d="M53.3913 18.0127C53.2437 17.644 53.2437 17.2752 53.1699 16.9065C53.0961 16.1691 52.801 15.7267 52.1369 15.5054C51.3253 15.2105 50.5136 15.2105 49.7757 14.9155C49.4806 14.768 49.7019 14.3256 50.0709 14.473C51.0301 14.9155 52.2107 14.768 53.0961 15.4317C53.9078 16.0954 53.6864 17.054 53.9816 17.9389C54.0554 18.2339 53.5389 18.3814 53.3913 18.0127Z" fill="#231F20"/>
<path d="M48.1529 14.105C44.5373 12.3351 41.2907 10.3441 38.3392 7.61564C34.2809 3.85479 30.1488 0.905105 24.3934 1.34756C24.0244 1.34756 24.0244 0.831363 24.3934 0.757621C28.5254 0.462652 32.2886 1.86375 35.609 4.37099C37.5275 5.84583 39.1508 7.68938 41.1431 9.23797C43.4305 11.0078 45.9393 12.3351 48.5218 13.5888C48.7432 13.81 48.448 14.2524 48.1529 14.105Z" fill="#231F20"/>
<path d="M22.3268 1.93695C19.3015 3.19056 15.7597 4.2967 13.3248 6.50896C11.1111 8.5 9.04509 10.3436 7.2742 12.777C3.73241 17.4228 0.559559 22.3635 0.707134 28.4104C0.707134 28.7791 0.190632 28.7791 0.116844 28.4104C-0.0307312 21.8473 3.65864 16.3904 7.56937 11.4497C11.6277 6.28774 16.35 3.7805 22.1792 1.34701C22.5482 1.27327 22.6958 1.78946 22.3268 1.93695Z" fill="#231F20"/>
<path d="M0.708142 29.4432C0.560566 31.2131 0.634363 33.1304 1.5936 34.6789C2.55284 36.2275 4.47132 37.8499 6.3898 37.7761C6.75874 37.7761 6.75874 38.2923 6.3898 38.366C4.54511 38.4398 2.70042 37.1124 1.5936 35.7113C0.191638 33.9415 -0.0297256 31.6555 0.11785 29.517C0.191638 29.1483 0.708142 29.1483 0.708142 29.4432Z" fill="#231F20"/>
<path d="M40.5531 27.8947C41.0696 26.9361 41.8075 26.0512 42.2502 25.0188C42.7667 23.6914 42.0288 22.6591 42.1764 21.4054C42.2502 21.0367 42.7667 21.0367 42.7667 21.4054C42.6191 22.7328 43.357 23.6914 42.9143 25.0188C42.5453 26.1987 41.6599 27.1573 41.0696 28.1897C40.8482 28.4847 40.3317 28.1897 40.5531 27.8947Z" fill="#231F20"/>
<path d="M41.8067 19.9303C41.364 17.2018 40.1834 14.9158 37.8222 13.3673C35.3134 11.7449 32.4357 12.7036 30.9599 15.1371C30.8124 15.432 30.2958 15.1371 30.5172 14.8421C31.7716 12.7036 34.3541 11.3025 36.8629 12.1874C40.1096 13.3673 41.8805 16.6119 42.397 19.7091C42.397 20.1515 41.8805 20.299 41.8067 19.9303Z" fill="#231F20"/>
<path d="M43.135 19.6353C44.7583 19.4878 46.3079 18.2342 48.005 18.5291C50.071 18.8979 52.2108 22.4375 54.3507 20.5939C54.6458 20.3727 55.0148 20.7414 54.7196 20.9626C53.539 21.995 52.2108 21.7738 50.9565 20.9626C49.1118 19.7828 47.9312 18.7504 45.6438 19.6353C44.7583 20.004 44.0205 20.1515 43.135 20.2252C42.7661 20.2252 42.7661 19.6353 43.135 19.6353Z" fill="#231F20"/>
<path d="M28.3781 21.6273C26.5334 21.4061 24.9101 22.586 23.0654 22.7334C21.1469 22.9547 19.2284 22.3647 17.31 22.7334C16.941 22.8072 16.7935 22.291 17.1624 22.2173C19.1547 21.9223 21.0731 22.4385 22.9916 22.2173C24.8363 21.996 26.4596 20.8899 28.3781 21.1111C28.747 21.1111 28.747 21.7011 28.3781 21.6273Z" fill="#231F20"/>
<path d="M13.7673 24.7983C11.111 25.7569 8.60222 27.3793 7.12649 29.8865C5.65075 32.4675 6.60996 34.8272 6.90511 37.4819C6.90511 37.8506 6.38861 37.8506 6.31483 37.4819C6.01968 34.2373 5.06045 31.8038 7.05269 28.9278C8.60222 26.6418 11.0372 25.2407 13.5459 24.2821C13.9149 24.1346 14.0625 24.6508 13.7673 24.7983Z" fill="#231F20"/>
<path d="M10.9633 21.8491C7.64283 22.9552 4.61756 23.9876 2.40393 26.9373C2.18257 27.2322 1.73984 26.9373 1.9612 26.6423C4.3224 23.6189 7.34769 22.5127 10.8895 21.3329C11.1846 21.1854 11.3322 21.7016 10.9633 21.8491Z" fill="#231F20"/>
<path d="M13.325 20.0038C16.0552 19.8563 17.8999 18.0865 20.4824 17.7915C22.9912 17.4965 25.8689 19.2663 28.1563 18.1602C28.4515 18.0127 28.7466 18.4552 28.4515 18.6027C26.533 19.5613 24.3932 18.5289 22.4009 18.3814C19.1542 18.1602 16.6455 20.3725 13.3988 20.52C13.0299 20.5937 13.0299 20.0038 13.325 20.0038Z" fill="#231F20"/>
<path d="M10.5212 39.6932C11.5543 40.9468 12.1446 42.3479 12.7349 43.8228C13.3252 45.3714 15.465 50.8283 17.9 50.1646C18.2689 50.0909 18.4165 50.607 18.0475 50.6808C16.2028 51.197 15.096 49.2059 14.1368 47.8786C12.4397 45.4451 11.997 42.3479 10.0785 40.0619C9.85715 39.8407 10.2999 39.472 10.5212 39.6932Z" fill="#231F20"/>
<path d="M45.3492 50.9757C46.8987 53.7779 46.0132 55.7689 43.5045 57.5387C41.6598 58.8661 39.5937 59.6035 37.6015 60.4884C34.3548 61.8895 33.1742 63.8806 31.6985 66.904C31.5509 67.199 31.0344 66.9777 31.2558 66.609C32.5101 63.8806 33.1742 61.8158 35.9782 60.5622C39.3724 59.0136 48.0055 56.6538 44.9064 51.1969C44.6851 50.9757 45.2016 50.6807 45.3492 50.9757Z" fill="#231F20"/>
<path d="M31.1075 68.159C29.558 70.15 24.688 70.3713 25.4259 73.7634C25.4997 74.1321 24.9832 74.2796 24.9094 73.9109C24.6143 72.5098 25.2783 71.3299 26.3114 70.445C27.6395 69.3389 29.558 69.1176 30.7386 67.7165C30.96 67.4953 31.3289 67.9378 31.1075 68.159Z" fill="#231F20"/>
<path d="M26.0899 75.164C27.6394 77.5238 30.1482 78.7774 32.2881 80.4735C34.4279 82.1695 36.1988 84.2343 37.5269 86.5941C37.6745 86.889 37.2318 87.184 37.0842 86.889C35.3133 83.9393 33.0997 81.6533 30.2958 79.736C28.5249 78.4824 26.8278 77.3026 25.5734 75.459C25.4258 75.0903 25.9423 74.8691 26.0899 75.164Z" fill="#231F20"/>
<path d="M39.2254 87.183C42.0293 88.2154 44.6119 89.6902 46.8993 91.6075C47.1944 91.8287 46.7517 92.1974 46.5303 91.9762C44.3167 90.1327 41.8079 88.7316 39.0778 87.6992C38.7089 87.6254 38.8565 87.1092 39.2254 87.183Z" fill="#231F20"/>
<path d="M51.4732 49.2065C48.9644 48.6903 46.8984 47.6579 44.3158 47.4367C41.8808 47.2155 39.4459 47.1417 37.0109 46.9942C36.642 46.9942 36.642 46.4043 37.0109 46.4043C39.8148 46.5518 42.6187 46.6993 45.4226 46.9205C47.6363 47.1417 49.4809 48.1741 51.6208 48.6166C51.9897 48.764 51.8421 49.2802 51.4732 49.2065Z" fill="#231F20"/>
<path d="M34.2072 47.0683C29.411 47.9532 24.3935 48.4694 19.7449 49.9442C19.376 50.018 19.2284 49.5018 19.5973 49.4281C24.2459 47.9532 29.2635 47.437 34.0596 46.5521C34.4286 46.4784 34.5761 46.9946 34.2072 47.0683Z" fill="#231F20"/>
<path d="M17.3839 52.3766C16.8674 54.6626 15.613 56.4324 14.2111 58.276C12.0713 61.1519 10.5955 63.8067 9.63627 67.2725C9.56248 67.6412 9.04596 67.4938 9.11975 67.1251C9.85762 64.3966 10.7431 61.9631 12.4402 59.6771C14.2111 57.2436 16.1295 55.1788 16.8674 52.2291C16.9412 51.9342 17.4577 52.0817 17.3839 52.3766Z" fill="#231F20"/>
<path d="M9.04616 68.822C8.52965 70.0019 8.08693 71.403 8.30829 72.6566C8.45587 73.6152 8.89859 74.4264 8.97237 75.385C8.97237 75.7538 8.45585 75.7538 8.38206 75.385C8.30827 74.1314 7.64418 73.099 7.64418 71.8454C7.64418 70.7393 8.08691 69.6332 8.45585 68.6745C8.67721 68.3058 9.19374 68.4533 9.04616 68.822Z" fill="#231F20"/>
<path d="M9.19359 77.082C10.6693 81.0641 13.7684 83.7925 16.351 87.0372C18.2695 89.4707 19.6714 92.1992 20.7044 95.0751C20.852 95.4438 20.2617 95.5913 20.1879 95.2226C18.6384 91.0193 16.351 87.7009 13.3995 84.3087C11.481 82.0965 9.78389 79.9579 8.75086 77.1557C8.5295 76.8608 9.1198 76.7133 9.19359 77.082Z" fill="#231F20"/>
<path d="M21.663 97.9494C24.9097 103.775 29.3369 108.642 34.7972 112.477C35.0923 112.698 34.7972 113.14 34.502 112.919C28.968 109.084 24.467 104.144 21.1465 98.1706C20.9989 97.8757 21.5154 97.5807 21.663 97.9494Z" fill="#231F20"/>
<path d="M143.117 143.374C135.664 143.374 128.285 142.932 120.833 143.153C114.118 143.374 107.625 143.153 101.132 141.457C100.763 141.383 100.91 140.867 101.279 140.941C108.141 142.711 115.004 142.784 122.087 142.563C129.097 142.342 136.107 142.858 143.117 142.858C143.412 142.784 143.412 143.301 143.117 143.374Z" fill="#231F20"/>
<path d="M176.322 142.932C169.681 143.005 163.114 143.448 156.473 143.227C156.104 143.227 156.104 142.637 156.473 142.637C163.114 142.784 169.681 142.416 176.322 142.342C176.691 142.416 176.691 142.932 176.322 142.932Z" fill="#231F20"/>
<path d="M133.746 78.6303C125.556 82.0224 116.48 85.4883 107.626 82.8336C107.257 82.7599 107.404 82.1699 107.773 82.3174C116.48 84.8984 125.556 81.4325 133.599 78.1141C133.968 77.9666 134.115 78.4828 133.746 78.6303Z" fill="#231F20"/>
<path d="M121.424 69.8535C120.022 70.2959 119.063 71.3283 117.735 71.9182C116.628 72.3607 115.373 72.5819 114.193 72.7294C111.241 73.2456 108.216 73.5406 105.191 73.6143C104.822 73.6143 104.822 73.0981 105.191 73.0244C108.585 72.9506 111.905 72.6557 115.226 71.992C117.513 71.4758 119.063 70.0009 121.203 69.3373C121.572 69.2635 121.719 69.7797 121.424 69.8535Z" fill="#231F20"/>
<path d="M52.358 62.2587C49.2589 60.7839 46.2336 59.1616 43.1346 57.7605C42.8394 57.613 43.0608 57.0968 43.4297 57.318C46.5288 58.7928 49.6279 60.3414 52.6531 61.8163C52.9483 61.9638 52.6531 62.4062 52.358 62.2587Z" fill="#231F20"/>
<path d="M35.6084 61.2995C37.9696 62.6269 40.5522 62.2582 43.0609 63.1431C46.0124 64.1755 48.4474 64.9866 51.6203 64.5442C51.9892 64.4704 51.9892 65.0604 51.6203 65.1341C48.2998 65.5766 45.9387 64.7654 42.9134 63.733C40.3308 62.8481 37.7483 63.2168 35.3133 61.8895C35.0181 61.6682 35.3133 61.152 35.6084 61.2995Z" fill="#231F20"/>
<path d="M44.0215 50.6072C42.5458 49.3535 40.6273 50.5334 39.0778 50.9021C38.7089 50.9759 38.5613 50.4597 38.9302 50.3859C40.7749 50.0172 42.7672 48.8373 44.3905 50.2385C44.6856 50.4597 44.2429 50.8284 44.0215 50.6072Z" fill="#231F20"/>
<path d="M37.7488 51.1972C34.3546 52.3033 30.8866 55.253 27.1972 54.4419C26.8282 54.3681 26.9758 53.8519 27.3448 53.9257C30.8128 54.6631 34.4283 51.6397 37.6012 50.681C37.8964 50.6073 38.0439 51.1235 37.7488 51.1972Z" fill="#231F20"/>
<path d="M51.9157 53.4831C51.1041 53.9256 49.9973 53.8518 49.038 53.8518C47.8574 53.8518 46.7506 53.7781 45.6438 53.4831C45.2749 53.4094 45.4225 52.8194 45.7914 52.9669C46.7506 53.2619 47.7099 53.3356 48.6691 53.3356C49.5545 53.3356 50.8827 53.4094 51.6944 53.0407C51.9895 52.8194 52.2847 53.3356 51.9157 53.4831Z" fill="#231F20"/>
<path d="M50.7352 68.601C49.0381 68.9697 47.4148 68.8222 45.7177 68.601C43.4303 68.2323 41.5856 66.9787 39.2982 66.6837C38.9293 66.6099 38.9293 66.0938 39.2982 66.0938C40.8477 66.315 42.1759 66.8312 43.6517 67.4211C45.7915 68.306 48.374 68.5272 50.6615 68.011C50.9566 68.011 51.1042 68.5272 50.7352 68.601Z" fill="#231F20"/>
<path d="M37.0855 66.3889C35.536 66.0202 33.9864 65.7989 32.3631 65.7989C31.9942 65.7989 31.9942 65.209 32.3631 65.209C33.9864 65.209 35.6097 65.4302 37.2331 65.8727C37.602 65.9464 37.4544 66.4626 37.0855 66.3889Z" fill="#231F20"/>
<path d="M22.3276 72.361C21.5897 71.5499 20.7043 71.0337 19.6713 70.8124C19.3023 70.7387 19.4499 70.2225 19.8188 70.2963C20.9256 70.5912 21.9587 71.1811 22.7703 71.9923C22.9179 72.2135 22.549 72.5822 22.3276 72.361Z" fill="#231F20"/>
<path d="M46.973 68.8959C44.8332 70.1495 42.0292 70.0021 39.668 69.7071C37.6758 69.4859 35.8311 69.1909 33.8388 69.3384C32.3631 69.4859 31.0349 69.6333 29.5592 69.3384C29.1902 69.2646 29.3378 68.7484 29.7067 68.8222C32.2893 69.3384 35.0194 68.5272 37.6758 68.8222C40.6273 69.1172 44.0215 69.9283 46.7516 68.3797C46.973 68.2323 47.2681 68.7484 46.973 68.8959Z" fill="#231F20"/>
<path d="M37.4534 19.3416C38.4865 20.5952 38.9292 22.8074 37.7486 24.1348C37.5272 24.4298 37.1583 23.9873 37.3796 23.7661C38.3389 22.7337 37.8962 20.8164 37.0845 19.784C36.8631 19.4153 37.2321 19.0466 37.4534 19.3416Z" fill="#231F20"/>
<path d="M36.5676 24.4279C36.1986 24.5017 35.8297 24.4279 35.5346 24.133C35.2394 23.9117 35.6821 23.4693 35.9035 23.7642C36.0511 23.9117 36.1986 23.9855 36.42 23.9117C36.7889 23.838 36.9365 24.3542 36.5676 24.4279Z" fill="#231F20"/>
<path d="M18.7123 32.0245C16.7938 32.0245 15.1705 33.2781 14.8016 35.1954C14.7278 35.5641 14.2112 35.4167 14.285 35.048C14.7278 32.9094 16.5724 31.5083 18.7861 31.5083C19.0074 31.4346 19.0074 32.0245 18.7123 32.0245Z" fill="#231F20"/>
<path d="M11.1119 33.205C11.2594 32.0252 12.44 30.8453 13.2517 30.0341C13.6944 29.5917 14.1371 29.223 14.6536 29.0017C15.3915 28.633 16.2032 28.5593 16.8673 28.1168C17.1624 27.8956 17.4576 28.4118 17.1624 28.5593C16.0556 29.223 14.875 29.2967 13.842 30.1816C12.9566 30.919 11.776 32.1727 11.6284 33.3525C11.5546 33.7212 11.0381 33.5738 11.1119 33.205Z" fill="#231F20"/>
<path d="M8.89767 36.2279C8.67631 35.7855 8.60253 35.2693 8.67632 34.7531C8.75011 34.3844 9.26661 34.3844 9.26661 34.7531C9.19282 35.1218 9.26662 35.5643 9.41419 35.933C9.56177 36.2279 9.04525 36.5229 8.89767 36.2279Z" fill="#231F20"/>
<path d="M42.5457 51.1972C41.4389 51.271 40.4797 51.7872 39.668 52.5246C39.4467 52.7458 39.0039 52.3771 39.2991 52.1559C40.1845 51.271 41.2913 50.7548 42.5457 50.681C42.8409 50.6073 42.8409 51.1235 42.5457 51.1972Z" fill="#231F20"/>
<path d="M39.2244 53.6318C39.2982 54.2218 39.5195 54.738 39.9623 55.1067C40.2574 55.3279 39.8147 55.7703 39.5933 55.4754C39.0768 54.9592 38.7817 54.2955 38.7079 53.5581C38.6341 53.3369 39.2244 53.3369 39.2244 53.6318Z" fill="#231F20"/>
<path d="M42.1764 60.6364C42.0288 61.0788 41.8075 61.4475 41.5123 61.7425C41.291 62.0375 40.922 61.595 41.1434 61.3738C41.3647 61.0788 41.5861 60.7839 41.6599 60.4889C41.8075 60.1939 42.324 60.3414 42.1764 60.6364Z" fill="#231F20"/>
<path d="M38.5601 64.0285C38.5601 64.3972 38.4125 64.7659 38.1173 65.0609C37.896 65.2821 37.4533 64.9134 37.7484 64.6922C37.896 64.4709 37.9698 64.3235 37.9698 64.0285C37.9698 63.6598 38.5601 63.6598 38.5601 64.0285Z" fill="#231F20"/>
<path d="M33.6899 50.4601C34.0589 50.9763 34.354 51.5662 34.5016 52.2299C34.5754 52.5986 34.0589 52.7461 33.9851 52.3774C33.8375 51.7874 33.6161 51.2712 33.2472 50.755C33.0259 50.4601 33.5424 50.1651 33.6899 50.4601Z" fill="#231F20"/>
<path d="M11.9981 29.1482C12.8836 28.337 13.9904 27.7471 15.0972 27.2309C16.204 26.7885 17.3108 27.0097 18.4176 26.5672C18.7128 26.4198 18.8603 26.9359 18.5652 27.0834C17.606 27.4521 16.6467 27.3047 15.7613 27.5996C14.5807 27.9683 13.3263 28.7795 12.4408 29.5907C12.1457 29.8119 11.703 29.4432 11.9981 29.1482Z" fill="#231F20"/>
<path d="M11.6276 34.4577C11.7014 34.9002 11.6276 35.3426 11.4062 35.7113C11.1849 36.0063 10.7422 35.7113 10.9635 35.4164C11.1111 35.1951 11.1849 34.9002 11.1111 34.6052C11.0373 34.2365 11.5538 34.089 11.6276 34.4577Z" fill="#231F20"/>
<path d="M18.1219 35.9334C16.8675 36.6709 15.3918 35.9334 14.5801 34.8273C14.3587 34.5323 14.8752 34.2374 15.0228 34.5323C15.6131 35.3435 16.8675 35.9334 17.8267 35.4172C18.1219 35.2698 18.417 35.786 18.1219 35.9334Z" fill="#231F20"/>
<path d="M19.4492 43.2344C22.1794 43.3081 19.2278 48.1751 18.7851 48.9863C18.6375 49.2812 18.121 48.9863 18.3424 48.6913C18.6375 48.1751 21.1463 43.8243 19.523 43.7506C19.0803 43.7506 19.0803 43.2344 19.4492 43.2344Z" fill="#231F20"/>
<path d="M52.0639 19.2677C51.5473 18.1616 50.6619 17.2767 49.5551 16.7605C49.26 16.613 49.4813 16.0968 49.8502 16.318C51.0308 16.9079 51.9901 17.8666 52.5804 19.0465C52.7279 19.3414 52.2852 19.6364 52.0639 19.2677Z" fill="#231F20"/>
<path d="M49.334 18.0875C48.7437 17.645 48.0059 17.2763 47.268 17.1289C46.8991 17.0551 47.0467 16.5389 47.4156 16.6127C48.2273 16.7601 48.9651 17.1289 49.6292 17.645C49.9244 17.8663 49.6292 18.3087 49.334 18.0875Z" fill="#231F20"/>
<path d="M43.8 15.949C43.1359 15.654 42.767 14.9166 42.3981 14.4004C41.8816 13.663 41.3651 12.8518 40.9223 12.1144C40.701 11.8194 41.2175 11.5245 41.3651 11.8194C41.734 12.4094 42.1029 13.0731 42.5457 13.663C42.9146 14.2529 43.4311 15.2116 44.0214 15.4328C44.4641 15.654 44.169 16.0965 43.8 15.949Z" fill="#231F20"/>
<path d="M40.848 13.8106C40.0363 13.0731 39.3722 12.1882 38.6343 11.3033C38.413 11.0084 38.7819 10.6396 39.0033 10.9346C39.7411 11.7458 40.4052 12.7044 41.2169 13.4418C41.4383 13.6631 41.0693 14.0318 40.848 13.8106Z" fill="#231F20"/>
<path d="M35.9043 9.90181C34.281 9.16439 32.5101 9.16439 30.813 9.68059C30.4441 9.75433 30.2965 9.23813 30.6654 9.16439C32.5101 8.57445 34.3548 8.6482 36.1257 9.45936C36.4946 9.5331 36.1995 10.0493 35.9043 9.90181Z" fill="#231F20"/>
<path d="M32.879 7.61502C31.846 7.46754 30.8868 7.54128 29.8538 7.76251C29.4848 7.83625 29.3373 7.32006 29.7062 7.24631C30.813 6.95134 31.9198 6.95134 33.0266 7.09883C33.3218 7.17257 33.1742 7.68877 32.879 7.61502Z" fill="#231F20"/>
<path d="M23.8763 12.114C23.0646 12.704 22.253 13.3677 21.3675 13.7364C20.6297 14.0313 19.8918 14.0313 19.1539 13.9576C18.785 13.9576 18.785 13.3677 19.1539 13.3677C20.1131 13.4414 20.851 13.3677 21.6627 12.9252C22.3268 12.4828 22.9909 12.0403 23.6549 11.5978C23.8763 11.4504 24.1715 11.8928 23.8763 12.114Z" fill="#231F20"/>
<path d="M21.3681 11.4506C20.704 11.8931 19.9662 12.188 19.0807 12.188C18.7118 12.188 18.7118 11.6718 19.0807 11.5981C19.8186 11.5981 20.4827 11.3769 21.073 10.9344C21.4419 10.7869 21.6633 11.3031 21.3681 11.4506Z" fill="#231F20"/>
<path d="M15.1703 17.2768C13.6946 17.793 11.7761 18.2354 10.8907 19.6365C10.6693 19.9315 10.2266 19.6365 10.4479 19.3416C11.4072 17.793 13.3994 17.2768 15.0965 16.6869C15.3917 16.6131 15.5392 17.1293 15.1703 17.2768Z" fill="#231F20"/>
<path d="M11.0371 17.2749C9.6351 17.9386 9.11859 19.6346 7.79041 20.5195C7.49526 20.7408 7.20012 20.2246 7.49527 20.0771C8.82344 19.1922 9.26616 17.5698 10.7419 16.8324C11.1108 16.6849 11.3322 17.1274 11.0371 17.2749Z" fill="#231F20"/>
<path d="M3.95404 20.9643C4.32298 20.3743 4.69192 19.7106 5.13464 19.1944C5.356 18.8995 5.79873 19.1944 5.57737 19.4894C5.13464 20.0794 4.7657 20.6693 4.39677 21.2592C4.24919 21.5542 3.73268 21.2592 3.95404 20.9643Z" fill="#231F20"/>
<path d="M8.67608 13.1473C9.63531 11.9674 10.8159 11.0825 12.2179 10.4926C12.513 10.3451 12.8081 10.7875 12.513 10.935C11.1848 11.525 10.078 12.4099 9.11878 13.516C8.82363 13.811 8.45472 13.4423 8.67608 13.1473Z" fill="#231F20"/>
<path d="M13.9902 8.50088C14.8756 7.91094 15.7611 7.39475 16.7203 6.87855C17.0154 6.65733 17.3106 7.17352 17.0154 7.32101C16.13 7.8372 15.1708 8.3534 14.2853 8.94333C13.9902 9.16456 13.695 8.72211 13.9902 8.50088Z" fill="#231F20"/>
<path d="M7.05437 27.4519C5.7262 27.9681 4.39803 28.1155 2.99608 27.8943C2.62715 27.8206 2.77473 27.3044 3.14366 27.3781C4.39804 27.5256 5.72619 27.3781 6.90678 26.9357C7.27572 26.7882 7.4233 27.3781 7.05437 27.4519Z" fill="#231F20"/>
<path d="M6.02032 29.1479C4.9873 29.7379 3.88049 30.1803 2.6999 29.9591C2.33096 29.8853 2.47852 29.3691 2.84746 29.4429C3.88048 29.6641 4.83973 29.1479 5.72518 28.7055C6.02033 28.558 6.31547 29.0004 6.02032 29.1479Z" fill="#231F20"/>
<path d="M5.28204 31.3601C4.61796 31.8763 3.80629 32.1713 2.99463 32.245C2.6257 32.3188 2.47811 31.7288 2.84705 31.7288C3.65871 31.5814 4.32281 31.3601 4.9869 30.8439C5.28205 30.6965 5.57719 31.1389 5.28204 31.3601Z" fill="#231F20"/>
<path d="M14.4324 32.3924C15.0227 31.7287 15.6868 31.2862 16.4984 30.9175C17.3101 30.5488 18.6383 30.3276 19.2286 29.6639C19.4499 29.4427 19.8927 29.8114 19.5975 30.0326C19.081 30.6226 18.1218 30.7701 17.4577 31.065C16.4247 31.5075 15.4654 31.9499 14.7275 32.7611C14.58 33.0561 14.211 32.6136 14.4324 32.3924Z" fill="#231F20"/>
<path d="M64.0167 62.8493C62.541 68.8962 58.9992 72.3621 54.0554 75.9017C53.7603 76.1229 53.4651 75.6067 53.7603 75.4592C58.6303 71.9934 62.0245 68.675 63.5002 62.7019C63.574 62.3331 64.0905 62.4806 64.0167 62.8493Z" fill="#231F20"/>
<path d="M34.7237 101.638C29.7799 98.9832 26.8284 94.1899 24.7624 89.1755C24.6148 88.8805 25.1313 88.733 25.2789 89.028C27.2712 93.9687 30.1488 98.6145 34.945 101.195C35.314 101.343 35.0188 101.785 34.7237 101.638Z" fill="#231F20"/>
<path d="M20.7041 84.6771C20.04 83.6447 19.1546 82.7598 18.2691 81.9486C17.974 81.7274 18.4167 81.3587 18.6381 81.5799C19.5973 82.3911 20.4089 83.3497 21.1468 84.4559C21.3682 84.7509 20.8517 84.9721 20.7041 84.6771Z" fill="#231F20"/>
<path d="M84.0866 136.444C89.473 140.794 93.6789 146.325 96.1877 152.741C97.7372 156.649 99.0654 159.82 102.091 162.917C104.304 165.203 106.592 167.194 108.067 170.07C108.215 170.365 107.772 170.66 107.625 170.365C104.747 164.982 99.213 162.032 96.8518 156.133C93.8265 148.464 90.2109 142.048 83.6439 136.812C83.4225 136.665 83.7914 136.222 84.0866 136.444Z" fill="#231F20"/>
<path d="M84.3829 116.385C81.0625 113.657 77.0042 112.625 72.9459 111.666C72.5769 111.592 72.7245 111.076 73.0934 111.15C77.2993 112.182 81.3576 113.215 84.7518 116.017C85.047 116.238 84.6781 116.607 84.3829 116.385Z" fill="#231F20"/>
<path d="M124.818 213.356C127.179 210.775 125.777 207.31 123.859 204.95C123.638 204.655 124.007 204.286 124.228 204.581C126.294 207.236 127.77 210.923 125.187 213.799C124.966 214.02 124.597 213.578 124.818 213.356Z" fill="#231F20"/>
<path d="M82.0217 242.928C80.3984 243.149 78.9964 243.739 77.5207 244.329C76.709 244.697 76.0449 244.771 75.2333 244.403C74.9381 244.255 75.1595 243.739 75.5284 243.96C76.6353 244.476 77.9634 243.518 78.9964 243.149C79.9557 242.78 80.9149 242.559 81.8742 242.411C82.1693 242.338 82.3169 242.854 82.0217 242.928Z" fill="#231F20"/>
<path d="M73.9047 245.804C72.7241 248.237 74.1261 251.113 76.4873 251.998C79.1436 252.957 82.1689 252.441 84.8252 251.851C85.1942 251.777 85.3418 252.293 84.9728 252.367C81.8738 253.104 77.8892 253.768 75.0853 251.924C73.1668 250.671 72.5027 247.574 73.462 245.509C73.6096 245.214 74.0523 245.509 73.9047 245.804Z" fill="#231F20"/>
<path d="M84.8995 247.5C83.3499 249.565 85.9325 252.146 85.5636 254.432C85.4898 254.801 84.9733 254.653 85.047 254.285C85.416 251.851 82.6859 249.491 84.4567 247.205C84.6043 246.984 85.1208 247.279 84.8995 247.5Z" fill="#231F20"/>
<path d="M94.4915 242.486C93.7537 243.518 92.942 244.403 91.9828 245.14C90.6546 246.173 89.2526 246.836 88.9575 248.606C88.8837 248.975 88.3672 248.827 88.441 248.459C88.6623 247.205 89.2526 246.394 90.2857 245.656C91.6876 244.624 93.0158 243.665 94.0488 242.191C94.1964 241.896 94.7129 242.191 94.4915 242.486Z" fill="#231F20"/>
<path d="M89.0306 250.448C89.1044 251.776 89.1044 253.177 88.9568 254.504C88.8831 254.873 88.3666 254.873 88.3666 254.504C88.5141 253.177 88.5879 251.776 88.4403 250.448C88.5141 250.08 89.0306 250.08 89.0306 250.448Z" fill="#231F20"/>
<path d="M93.828 244.844C92.795 246.467 93.7542 248.384 93.9756 250.154C94.0493 250.523 93.459 250.67 93.459 250.301C93.1639 248.384 92.2047 246.393 93.3115 244.623C93.5328 244.255 94.0493 244.549 93.828 244.844Z" fill="#231F20"/>
<path d="M98.1065 242.262C97.1473 243.737 97.3687 245.507 97.7376 247.203C97.8114 247.572 97.2949 247.719 97.2211 247.351C96.7784 245.507 96.557 243.664 97.6638 242.041C97.8114 241.672 98.2541 241.967 98.1065 242.262Z" fill="#231F20"/>
<path d="M103.789 251.26C100.173 252.292 96.5577 253.324 92.8683 254.283C90.2857 255.021 87.9983 255.611 85.342 254.799C84.9731 254.726 85.1206 254.136 85.4896 254.283C88.81 255.242 92.1304 253.914 95.3033 253.03C98.1072 252.292 100.837 251.481 103.641 250.744C103.936 250.67 104.084 251.186 103.789 251.26Z" fill="#231F20"/>
<path d="M134.41 225.156C128.876 227.515 123.785 231.055 119.653 235.406C119.431 235.701 118.988 235.258 119.284 235.037C123.416 230.613 128.581 227.073 134.189 224.64C134.41 224.492 134.705 225.008 134.41 225.156Z" fill="#231F20"/>
<path d="M110.43 237.176C109.249 236.955 108.069 237.324 107.257 238.135C106.962 238.356 106.593 237.987 106.888 237.766C107.921 236.807 109.249 236.439 110.651 236.66C110.946 236.734 110.725 237.25 110.43 237.176Z" fill="#231F20"/>
<path d="M97.1477 240.125C97.6642 239.018 98.2545 237.839 98.771 236.732C98.9186 236.437 99.4351 236.659 99.2137 237.027C98.6972 238.133 98.1069 239.313 97.5904 240.42C97.5166 240.788 97.0001 240.493 97.1477 240.125Z" fill="#231F20"/>
<path d="M148.209 95.3679C140.166 95.0729 131.976 94.2617 124.081 96.179C123.712 96.2528 123.564 95.7366 123.933 95.6628C131.902 93.8193 140.166 94.5567 148.209 94.8517C148.578 94.8517 148.578 95.4416 148.209 95.3679Z" fill="#231F20"/>
<path d="M122.457 190.053C113.824 194.33 104.822 197.796 95.5249 200.451C95.156 200.525 95.0084 200.009 95.3774 199.935C104.601 197.354 113.529 193.888 122.162 189.611C122.457 189.39 122.752 189.906 122.457 190.053Z" fill="#231F20"/>
<path d="M92.2779 192.71C87.5555 198.314 82.2429 203.402 76.4137 207.9C76.1185 208.122 75.7496 207.753 76.0447 207.532C81.8739 203.033 87.1128 197.945 91.909 192.341C92.1304 192.046 92.4993 192.415 92.2779 192.71Z" fill="#231F20"/>
<path d="M21.6626 125.751C11.48 129.438 13.0295 141.532 15.8334 149.643C15.981 150.012 15.3907 150.159 15.3169 149.791C12.3654 141.384 11.1111 128.995 21.515 125.235C21.884 125.087 21.9578 125.677 21.6626 125.751Z" fill="#231F20"/>
<path d="M65.7882 20.5948C67.4853 22.0697 67.1164 25.0931 65.0503 26.1255C64.7552 26.273 64.46 25.8305 64.7552 25.683C66.4523 24.7981 66.8212 22.2909 65.3455 21.0373C65.1241 20.7423 65.5669 20.3736 65.7882 20.5948Z" fill="#231F20"/>
<path d="M83.4229 80.0312C72.2072 76.9341 59.2945 77.3765 47.7836 77.8927C47.4147 77.8927 47.4147 77.3765 47.7836 77.3028C59.3682 76.7866 72.3548 76.3441 83.5705 79.4413C83.9394 79.5888 83.7918 80.105 83.4229 80.0312Z" fill="#231F20"/>
<path d="M120.464 186.367C112.2 190.865 103.567 194.405 94.5649 197.133C94.196 197.207 94.0484 196.691 94.4174 196.617C103.346 193.888 111.979 190.349 120.169 185.85C120.538 185.703 120.759 186.219 120.464 186.367Z" fill="#231F20"/>
<path d="M90.6551 190.201C85.9327 196.396 79.4394 200.673 73.2413 205.171C72.9461 205.392 72.651 204.876 72.9462 204.728C79.0705 200.23 85.49 196.101 90.2124 189.906C90.36 189.685 90.8765 189.906 90.6551 190.201Z" fill="#231F20"/>
<path d="M94.5658 197.059C94.1231 197.87 94.492 199.787 95.5251 200.008C95.894 200.082 95.7464 200.598 95.3775 200.525C93.9755 200.23 93.459 197.87 94.1231 196.764C94.2707 196.469 94.7872 196.69 94.5658 197.059Z" fill="#231F20"/>
<path d="M122.162 189.906C122.015 189.316 121.793 188.8 121.646 188.21C121.498 187.768 121.203 186.44 120.613 186.514C120.244 186.588 120.244 185.998 120.613 185.924C121.277 185.851 121.572 186.44 121.793 186.957C122.162 187.842 122.457 188.726 122.752 189.685C122.826 190.054 122.236 190.201 122.162 189.906Z" fill="#231F20"/>
<path d="M76.3397 207.974C75.3804 208.638 73.6833 207.679 72.9455 207.015C72.2076 206.352 71.8386 205.024 73.0192 204.656C73.3882 204.582 73.5358 205.098 73.1668 205.172C71.9124 205.541 73.6095 206.868 74.0523 207.089C74.5688 207.384 75.528 207.9 76.0445 207.532C76.3397 207.31 76.6348 207.827 76.3397 207.974Z" fill="#231F20"/>
<path d="M239.188 17.0554C241.033 22.291 240.738 27.748 239.926 33.2049C238.893 40.1367 237.639 47.0684 236.385 53.9264C233.802 68.0112 230.85 82.0222 227.973 96.0332C227.899 96.4019 227.382 96.2544 227.456 95.8857C230.113 82.8334 232.843 69.7073 235.278 56.5812C236.606 50.0918 237.786 43.5288 238.82 36.9657C239.926 30.3289 240.959 23.7659 238.672 17.2766C238.524 16.9079 239.115 16.7604 239.188 17.0554Z" fill="#231F20"/>
<path d="M227.235 106.429C224.652 112.697 224.948 119.334 224.948 125.897C224.948 131.944 224.136 137.917 223.619 143.964C223.103 150.158 220.668 155.615 214.175 157.164C200.819 160.261 186.799 161.441 173.223 163.063C172.854 163.137 172.854 162.547 173.223 162.473C186.357 160.925 199.638 159.597 212.625 156.943C215.429 156.353 217.643 155.689 219.782 153.477C223.324 149.716 222.955 144.333 223.546 139.613C224.283 133.788 224.505 128.036 224.505 122.136C224.505 116.68 224.726 111.37 226.866 106.282C226.792 105.987 227.309 106.134 227.235 106.429Z" fill="#231F20"/>
<path d="M215.797 95.8857C220.372 98.098 222.512 102.817 226.57 105.398C229.522 107.316 232.916 104.956 232.104 101.859C231.735 100.384 230.776 99.4253 229.743 98.3192C227.751 96.2544 225.611 94.4109 223.471 92.4936C223.176 92.2723 223.619 91.9036 223.84 92.1249C226.57 94.4846 236.753 101.564 231.661 106.21C229.743 107.979 227.603 107.021 225.832 105.472C222.29 102.449 219.855 98.3929 215.502 96.2544C215.207 96.2544 215.428 95.7382 215.797 95.8857Z" fill="#231F20"/>
<path d="M222.143 91.7558C208.345 92.8619 194.694 94.3368 180.97 96.0328C170.714 97.2865 160.088 96.9178 150.201 100.384C149.832 100.531 149.684 99.9412 150.053 99.8674C159.498 96.4753 169.681 96.6965 179.568 95.6641C193.809 94.1156 207.902 92.4195 222.143 91.2396C222.439 91.1659 222.439 91.6821 222.143 91.7558Z" fill="#231F20"/>
<path d="M214.396 96.1808C206.427 96.5495 198.532 97.8031 190.636 98.6143C181.782 99.5729 172.927 100.31 164.073 101.269C158.908 101.859 153.152 102.523 149.316 106.357C144.077 111.593 145.479 119.557 147.618 125.825C147.766 126.194 147.176 126.341 147.102 125.973C145.11 120.221 143.781 113.289 147.323 107.832C149.463 104.587 153.005 102.67 156.768 101.785C165.918 99.5729 175.731 99.5729 185.029 98.5405C194.769 97.5081 204.508 95.8858 214.322 95.4434C214.765 95.5908 214.765 96.1808 214.396 96.1808Z" fill="#231F20"/>
<path d="M148.356 127.816C152.93 137.107 158.76 145.662 163.408 154.806C163.556 155.101 163.113 155.396 162.966 155.101C158.317 145.957 152.488 137.402 147.913 128.111C147.692 127.742 148.208 127.447 148.356 127.816Z" fill="#231F20"/>
<path d="M216.388 96.5495C218.454 104.292 218.012 112.404 216.831 120.294C216.167 124.719 215.355 129.07 214.396 133.421C213.584 137.255 212.773 141.532 210.707 144.924C207.017 150.971 197.868 149.865 191.817 150.234C181.708 150.824 171.673 151.266 161.564 151.487C161.195 151.487 161.195 150.971 161.564 150.897C169.755 150.676 177.871 150.381 186.062 149.939C190.12 149.718 194.252 149.496 198.31 149.201C203.328 148.906 208.124 148.611 210.707 143.671C214.101 137.181 214.913 128.554 216.019 121.401C217.274 113.215 217.864 104.809 215.798 96.697C215.724 96.3283 216.315 96.1808 216.388 96.5495Z" fill="#231F20"/>
<path d="M164.442 156.28C165.106 157.976 167.099 161.663 165.475 163.359C163.852 164.982 160.458 164.908 158.392 164.539C158.023 164.465 158.17 163.949 158.539 164.023C159.572 164.244 160.605 164.244 161.638 164.17C162.155 164.097 162.671 164.023 163.188 163.875C164.147 163.654 164.516 163.433 165.106 162.548C165.623 161.737 165.623 161.589 165.402 160.705C165.328 160.262 165.106 159.746 165.033 159.303C164.738 158.345 164.369 157.386 164 156.427C163.778 156.059 164.295 155.911 164.442 156.28Z" fill="#231F20"/>
<path d="M156.178 162.991C147.693 151.634 140.535 139.909 134.485 127.152C132.935 123.981 131.386 121.105 131.238 117.565C131.091 112.551 132.05 108.569 134.706 104.218C139.576 96.2539 150.349 93.8205 158.909 92.5668C171.452 90.797 184.07 89.8384 196.688 88.8797C201.853 88.511 207.018 88.1423 212.183 87.9211C216.758 87.6999 220.595 89.6909 224.137 92.4194C224.432 92.6406 224.137 93.083 223.841 92.8618C220.521 90.3546 216.758 88.216 212.478 88.4373C208.715 88.5848 204.952 88.8797 201.115 89.101C189.161 89.9121 177.208 90.8708 165.328 92.2719C155.367 93.4517 142.011 94.6316 135.666 103.628C133.304 107.02 131.829 111.002 131.755 115.058C131.681 119.409 132.788 122.137 134.632 126.046C140.757 139.024 148.062 151.044 156.621 162.548C156.916 162.991 156.4 163.286 156.178 162.991Z" fill="#231F20"/>
<path d="M148.652 101.712C144.594 105.989 142.232 111.52 142.159 117.419C142.085 123.466 144.889 128.259 147.545 133.495C149.98 138.214 151.898 143.081 154.85 147.58C157.801 152.078 160.974 156.429 163.336 161.369C163.483 161.664 163.04 161.959 162.893 161.664C160.015 155.617 155.809 150.456 152.415 144.704C149.316 139.542 146.881 133.864 144.225 128.48C139.797 119.336 141.199 108.791 148.209 101.417C148.504 101.048 148.873 101.491 148.652 101.712Z" fill="#231F20"/>
<path d="M147.618 151.56C140.756 151.929 132.344 151.782 125.998 154.879C123.711 155.985 121.35 157.829 119.948 159.967C117.513 163.728 118.472 168.3 119.726 172.282C119.8 172.651 119.283 172.798 119.21 172.43C117.07 165.571 117.66 159.672 123.932 155.469C130.425 151.192 140.165 151.487 147.618 151.044C147.987 150.971 147.987 151.487 147.618 151.56Z" fill="#231F20"/>
<path d="M155.292 168.743C152.857 170.07 150.791 171.84 148.873 173.831C147.914 174.863 147.028 176.191 145.774 176.928C142.011 179.067 135.443 178.772 131.238 178.624C130.869 178.624 130.869 178.034 131.238 178.034C136.181 178.108 143.265 178.624 147.028 175.011C149.684 172.504 151.751 169.996 154.997 168.153C155.292 168.079 155.587 168.521 155.292 168.743Z" fill="#231F20"/>
<path d="M129.172 177.443C128.286 176.337 127.253 175.305 126.515 174.199C125.778 173.166 125.187 172.207 123.785 171.986C123.416 171.913 123.564 171.396 123.933 171.47C125.04 171.691 125.851 172.355 126.515 173.24C127.475 174.567 128.508 175.821 129.615 177.074C129.762 177.296 129.393 177.664 129.172 177.443Z" fill="#231F20"/>
<path d="M140.091 178.108C140.534 181.205 136.475 181.574 134.262 181.722C130.794 182.09 129.318 180.468 128.949 177.15C128.949 176.781 129.466 176.781 129.539 177.15C129.835 179.804 131.015 181.427 133.967 181.205C135.59 181.058 139.943 180.837 139.575 178.256C139.501 177.887 140.017 177.74 140.091 178.108Z" fill="#231F20"/>
<path d="M138.543 180.91C138.69 181.722 138.838 182.754 138.174 183.344C137.214 184.155 135.37 183.786 134.263 183.786C133.304 183.786 132.344 183.786 131.385 183.786C131.09 183.786 130.574 183.86 130.352 183.639C129.688 183.049 130.131 181.279 130.278 180.542C130.352 180.173 130.869 180.32 130.795 180.689C130.647 181.574 130.205 182.828 131.385 183.27C131.902 183.491 132.861 183.27 133.451 183.27C135.075 183.27 138.616 183.786 138.1 181.132C137.952 180.763 138.469 180.615 138.543 180.91Z" fill="#231F20"/>
<path d="M137.731 183.638C137.805 185.113 137.805 186.661 137.805 188.136C137.805 188.505 137.215 188.505 137.215 188.136C137.289 186.661 137.215 185.113 137.141 183.638C137.141 183.269 137.658 183.269 137.731 183.638Z" fill="#231F20"/>
<path d="M131.532 183.786C131.532 185.261 131.532 186.81 131.532 188.285C131.532 188.653 130.942 188.653 130.942 188.285C130.942 186.81 130.942 185.261 130.942 183.786C131.016 183.418 131.532 183.418 131.532 183.786Z" fill="#231F20"/>
<path d="M137.583 188.505C136.845 189.095 135.517 189.095 134.632 189.095C133.525 189.168 132.271 189.242 131.238 188.726C130.942 188.578 131.164 188.062 131.533 188.283C132.418 188.726 133.673 188.652 134.632 188.578C135.443 188.505 136.624 188.505 137.288 188.062C137.583 187.841 137.878 188.283 137.583 188.505Z" fill="#231F20"/>
<path d="M137.584 186.662C138.69 186.736 140.019 186.588 140.978 187.326C141.568 187.842 141.421 188.579 140.756 188.874C140.388 189.022 140.314 188.432 140.609 188.358C140.83 188.063 140.83 187.842 140.609 187.768C140.461 187.621 140.314 187.547 140.092 187.473C139.797 187.4 139.502 187.326 139.207 187.252C138.69 187.178 138.1 187.178 137.584 187.178C137.288 187.252 137.288 186.662 137.584 186.662Z" fill="#231F20"/>
<path d="M138.985 189.537C136.402 190.275 133.746 190.496 131.016 190.053C129.54 189.832 127.253 189.685 127.179 187.841C127.179 187.472 127.696 187.472 127.769 187.841C127.843 189.685 132.344 189.685 133.451 189.685C135.296 189.758 137.067 189.463 138.837 188.947C139.206 188.947 139.354 189.463 138.985 189.537Z" fill="#231F20"/>
<path d="M130.869 187.4C130.057 187.253 129.245 187.253 128.434 187.474C128.065 187.548 127.917 187.032 128.286 186.958C129.172 186.737 130.131 186.737 131.016 186.884C131.312 186.958 131.164 187.474 130.869 187.4Z" fill="#231F20"/>
<path d="M141.347 188.21C142.011 196.248 141.79 204.433 142.159 212.471C142.159 212.84 141.642 212.84 141.568 212.471C141.199 204.36 141.421 196.248 140.757 188.21C140.757 187.841 141.347 187.841 141.347 188.21Z" fill="#231F20"/>
<path d="M127.549 188.21C127.475 192.782 127.327 197.28 127.18 201.852C127.18 202.221 126.59 202.221 126.59 201.852C126.737 197.28 126.885 192.782 126.959 188.21C127.032 187.841 127.623 187.841 127.549 188.21Z" fill="#231F20"/>
<path d="M143.117 212.03C143.855 214.242 139.428 214.021 138.321 214.095C137.952 214.095 137.952 213.579 138.321 213.505C139.059 213.505 143.043 213.652 142.601 212.177C142.453 211.809 143.043 211.661 143.117 212.03Z" fill="#231F20"/>
<path d="M143.117 212.249C143.781 213.503 143.708 215.125 143.781 216.526C143.929 219.107 144.003 221.762 144.003 224.343C144.003 229.21 144.372 234.077 144.298 239.018C144.298 239.386 143.708 239.386 143.708 239.018C143.781 235.035 143.339 231.201 143.412 227.219C143.412 225.08 143.412 222.942 143.339 220.803C143.265 218.443 143.708 214.609 142.601 212.544C142.453 212.249 142.97 211.954 143.117 212.249Z" fill="#231F20"/>
<path d="M144.076 240.346C137.951 242.41 129.613 244.033 123.932 240.198C123.637 239.977 123.932 239.534 124.227 239.756C129.835 243.516 138.025 241.894 144.002 239.903C144.297 239.682 144.371 240.198 144.076 240.346Z" fill="#231F20"/>
<path d="M124.301 235.331C124.227 236.88 124.154 238.355 124.08 239.903C124.08 240.272 123.49 240.272 123.49 239.903C123.563 238.355 123.637 236.88 123.711 235.331C123.785 234.963 124.375 234.963 124.301 235.331Z" fill="#231F20"/>
<path d="M172.263 238.502C171.968 234.372 169.311 230.906 164.81 231.865C162.449 232.381 160.088 233.192 157.8 233.93C153.152 235.405 148.577 237.027 144.002 238.797C143.633 238.944 143.559 238.354 143.855 238.281C147.544 236.88 151.233 235.552 154.996 234.299C158.464 233.192 162.154 231.57 165.769 231.128C170.344 230.538 172.558 234.446 172.853 238.502C172.853 238.871 172.263 238.871 172.263 238.502Z" fill="#231F20"/>
<path d="M232.917 17.8659C227.383 19.9307 225.834 25.9776 224.875 31.2133C223.768 37.4076 222.809 43.602 221.849 49.87C219.783 62.7012 217.717 75.4586 215.651 88.2897C215.577 88.6584 215.061 88.5109 215.135 88.1422C217.57 73.5413 219.857 58.8666 222.292 44.1919C223.325 37.9975 223.768 31.3608 225.834 25.4614C227.088 21.848 229.154 18.7508 232.917 17.3497C233.139 17.2023 233.286 17.7922 232.917 17.8659Z" fill="#231F20"/>
<path d="M237.86 15.9484C234.613 12.9988 227.825 11.1552 223.545 12.5563C218.749 14.1049 215.429 19.1931 213.289 23.4701C208.64 32.6142 205.984 42.8643 204.877 53.0407C204.803 53.4095 204.287 53.4095 204.287 53.0407C205.541 41.3157 208.64 27.8947 215.798 18.2345C218.306 14.8423 221.774 11.5977 226.275 11.5977C230.481 11.5977 235.13 12.7038 238.229 15.5797C238.524 15.801 238.081 16.1697 237.86 15.9484Z" fill="#231F20"/>
<path d="M228.636 11.9675C224.061 8.72284 218.38 8.20665 212.92 7.61671C207.754 7.02677 202.516 6.65806 197.203 6.51058C187.315 6.21561 177.649 7.10051 167.909 7.98542C157.21 8.94407 155.365 23.3975 153.89 31.8779C153.816 32.2466 153.299 32.0991 153.373 31.7304C154.849 23.6188 156.767 8.6491 167.319 7.54297C177.28 6.43683 187.242 5.77316 197.277 6.06812C203.475 6.14187 209.673 6.58432 215.797 7.39548C220.446 7.98542 225.021 8.72284 228.931 11.4513C229.227 11.6725 228.931 12.1887 228.636 11.9675Z" fill="#231F20"/>
<path d="M162.375 9.38483C158.317 9.75354 153.669 9.45857 149.758 10.7122C144.962 12.187 142.158 16.6116 140.608 21.1098C137.657 29.7377 137.14 39.3241 137.878 48.3944C137.878 48.7631 137.362 48.7631 137.288 48.3944C136.402 38.513 136.771 26.6405 141.346 17.6439C142.896 14.6205 145.257 11.8183 148.503 10.5647C152.636 8.86863 157.874 9.31109 162.302 8.94237C162.744 8.79489 162.744 9.31108 162.375 9.38483Z" fill="#231F20"/>
<path d="M211.961 62.4057C203.107 64.7654 194.4 64.323 185.398 63.0694C179.2 62.1845 173.075 61.2258 166.877 60.6359C160.458 60.0459 155.588 59.3085 150.128 55.5477C149.832 55.3264 150.128 54.884 150.423 55.1052C153.448 57.17 156.621 58.8661 160.31 59.456C163.704 59.9722 167.246 60.0459 170.64 60.4884C175.289 61.0046 179.938 61.742 184.586 62.4057C193.81 63.8068 202.664 64.3967 211.74 61.8895C212.183 61.8158 212.33 62.3319 211.961 62.4057Z" fill="#231F20"/>
<path d="M209.821 158.197C210.411 164.244 204.066 165.793 199.343 166.161C190.415 166.751 181.56 167.12 172.632 167.636C154.923 168.595 137.214 170.143 119.653 172.577C119.284 172.651 119.136 172.061 119.505 172.061C133.746 170.07 148.061 168.521 162.45 167.636C170.05 167.194 177.724 166.825 185.324 166.383C189.087 166.161 192.85 166.014 196.613 165.793C201.483 165.498 209.969 165.276 209.304 158.271C209.231 157.902 209.747 157.902 209.821 158.197Z" fill="#231F20"/>
<path d="M119.358 172.65C117.513 172.872 115.742 172.577 114.045 171.839C113.75 171.692 113.972 171.249 114.341 171.397C115.964 172.134 117.587 172.356 119.358 172.134C119.727 172.061 119.727 172.65 119.358 172.65Z" fill="#231F20"/>
<path d="M172.484 238.798C171.008 239.314 169.68 240.862 168.352 241.747C166.876 242.706 165.4 243.591 163.851 244.328C163.556 244.476 163.261 244.033 163.556 243.886C165.327 243.075 167.024 242.116 168.573 241.01C169.828 240.125 170.861 238.871 172.336 238.355C172.705 238.134 172.853 238.65 172.484 238.798Z" fill="#231F20"/>
<path d="M145.479 239.756C148.062 242.854 153.079 242.706 156.916 243.149C162.081 243.739 167.172 244.328 172.338 244.918C184.439 246.319 196.54 247.647 208.641 249.048C211.74 249.417 214.839 249.712 217.864 250.08C218.233 250.154 218.233 250.67 217.864 250.67C197.352 247.942 176.765 246.024 156.178 243.665C152.341 243.222 147.766 243.37 145.036 240.125C144.889 239.904 145.258 239.461 145.479 239.756Z" fill="#231F20"/>
<path d="M219.193 250.745C221.923 251.777 224.948 259.446 220.447 260.036C220.078 260.11 219.931 259.52 220.3 259.52C224.063 259.004 221.407 252.22 219.045 251.261C218.75 251.114 218.898 250.597 219.193 250.745Z" fill="#231F20"/>
<path d="M220.225 260.034C212.035 260.329 203.844 259.887 195.654 259.813C183.184 259.666 170.714 259.444 158.17 259.223C154.997 259.15 151.75 259.223 148.578 259.002C148.209 259.002 148.209 258.412 148.578 258.412C156.694 259.002 164.958 258.781 173.149 258.928C185.619 259.15 198.089 259.297 210.633 259.444C213.806 259.444 217.052 259.592 220.299 259.518C220.594 259.444 220.594 259.961 220.225 260.034Z" fill="#231F20"/>
<path d="M226.054 260.995C232.399 263.355 228.415 275.891 222.364 274.785C219.044 274.195 219.044 270.508 219.339 267.853C219.634 264.756 221.036 262.322 223.988 261.069C224.283 260.921 224.578 261.437 224.283 261.511C220.667 263.06 219.708 266.378 219.782 269.991C219.856 272.646 221.405 275.448 224.799 273.679C225.98 273.015 226.865 271.761 227.456 270.581C229.005 267.705 229.891 262.986 225.906 261.511C225.611 261.364 225.759 260.847 226.054 260.995Z" fill="#231F20"/>
<path d="M137.435 245.434C143.486 245.36 147.323 255.168 149.315 259.593C151.602 264.607 159.35 272.202 156.325 278.249C156.177 278.544 155.661 278.323 155.882 277.954C158.686 272.35 151.307 265.123 149.167 260.477C147.987 257.97 147.028 255.537 145.552 253.177C143.855 250.522 141.125 245.95 137.435 245.95C137.066 245.95 137.066 245.434 137.435 245.434Z" fill="#231F20"/>
<path d="M156.105 278.396C151.751 279.503 146.291 279.06 142.749 275.889C140.24 273.677 138.248 270.654 136.034 268.22C133.231 265.123 130.427 262.173 127.254 259.445C126.959 259.224 127.401 258.855 127.623 259.076C132.198 263.132 136.403 267.704 140.314 272.35C142.306 274.709 143.93 276.7 147.029 277.733C149.907 278.691 153.006 278.691 155.957 277.954C156.326 277.733 156.474 278.323 156.105 278.396Z" fill="#231F20"/>
<path d="M152.637 269.621C150.718 269.031 148.578 269.4 147.103 270.948C145.848 272.276 145.774 273.751 145.332 275.447C145.258 275.815 144.741 275.668 144.815 275.299C145.258 273.234 145.479 271.465 147.176 270.063C148.726 268.81 150.792 268.515 152.71 269.105C153.153 269.179 153.006 269.768 152.637 269.621Z" fill="#231F20"/>
<path d="M158.317 280.168C162.523 280.389 165.769 284.74 165.327 288.87C164.884 293.22 160.531 296.17 156.325 295.728C152.709 295.359 151.086 291.008 151.455 287.837C151.824 284.224 153.816 281.643 157.21 280.315C157.579 280.168 157.653 280.758 157.358 280.832C154.701 281.864 152.93 283.634 152.266 286.436C151.528 289.238 152.045 292.852 154.628 294.474C157.727 296.465 162.523 294.253 164.072 291.229C166.138 287.026 163.261 281.127 158.391 280.832C157.948 280.684 157.948 280.168 158.317 280.168Z" fill="#231F20"/>
<path d="M146.217 277.807C146.069 280.388 146.217 282.895 146.807 285.476C147.029 286.509 147.324 287.541 147.693 288.574C148.431 290.491 149.98 290.86 151.825 290.712C152.194 290.712 152.194 291.228 151.825 291.302C149.39 291.523 148.062 291.081 147.102 288.795C145.774 285.403 145.405 281.568 145.627 277.955C145.701 277.439 146.217 277.439 146.217 277.807Z" fill="#231F20"/>
<path d="M165.77 286.509C165.549 283.928 164.147 281.347 161.859 280.167C160.384 279.356 157.801 278.323 156.03 278.397C155.661 278.397 155.661 277.881 156.03 277.807C157.285 277.733 158.539 278.323 159.719 278.766C160.9 279.208 162.154 279.503 163.187 280.314C165.032 281.789 166.139 284.149 166.36 286.509C166.36 286.877 165.844 286.877 165.77 286.509Z" fill="#231F20"/>
<path d="M125.778 259.666C106.003 262.173 86.1538 264.681 66.3788 267.262C66.0099 267.335 66.0099 266.745 66.3788 266.672C86.1538 264.164 106.003 261.657 125.778 259.076C126.073 259.076 126.073 259.592 125.778 259.666Z" fill="#231F20"/>
<path d="M78.7738 253.178C75.232 253.841 71.8378 255.021 68.3698 255.832C62.4668 257.233 51.989 258.192 53.9075 267.115C53.9813 267.484 53.4648 267.631 53.391 267.262C51.989 260.921 57.892 257.455 63.2785 256.275C68.4436 255.169 73.5349 253.546 78.7 252.661C78.9952 252.588 79.1428 253.104 78.7738 253.178Z" fill="#231F20"/>
<path d="M67.7071 270.876C64.5343 270.655 61.3614 271.835 59.6643 274.637C58.041 277.292 57.3769 281.79 61.1401 282.97C63.3537 283.633 66.3052 283.855 68.3712 282.675C71.3965 280.905 72.6509 275.522 69.7732 273.088C69.478 272.867 69.9208 272.498 70.1421 272.72C72.6509 274.858 72.282 279.061 70.4373 281.495C68.2237 284.518 63.5013 284.592 60.3284 283.265C57.3769 282.011 57.3769 278.398 58.41 275.817C59.9595 271.982 63.7226 269.991 67.7071 270.36C68.0761 270.36 68.0761 270.876 67.7071 270.876Z" fill="#231F20"/>
<path d="M54.2041 268.368C53.3924 270.212 53.0973 272.203 53.4662 274.194C53.8352 275.964 55.0158 278.987 57.4507 278.545C57.8197 278.471 57.9672 278.987 57.5983 279.061C55.6061 279.43 54.3517 277.955 53.54 276.259C52.3594 273.604 52.507 270.654 53.6876 268.073C53.8352 267.778 54.3517 268.073 54.2041 268.368Z" fill="#231F20"/>
<path d="M63.5739 267.631C61.1389 267.999 58.1874 268.663 55.8262 267.852C55.4573 267.705 55.6049 267.188 55.9738 267.336C58.1874 268.073 61.2127 267.483 63.4263 267.115C63.7952 267.041 63.9428 267.557 63.5739 267.631Z" fill="#231F20"/>
<path d="M72.6499 275.668C72.5024 274.046 71.3956 272.276 70.3625 271.022C69.2557 269.548 67.78 268.441 65.8615 268.441C65.4926 268.441 65.4926 267.925 65.8615 267.852C67.8538 267.852 69.4033 268.884 70.6577 270.359C71.8383 271.834 73.0189 273.677 73.2402 275.594C73.2402 276.037 72.6499 276.037 72.6499 275.668Z" fill="#231F20"/>
<path d="M45.3489 27.6003C46.0867 32.6148 45.1275 37.4817 42.6925 41.98C42.545 42.275 42.0285 41.98 42.2498 41.685C44.6848 37.408 45.5702 32.6148 44.9061 27.7478C44.7586 27.3791 45.3489 27.2316 45.3489 27.6003Z" fill="#231F20"/>
<path d="M206.059 144.113C202.222 142.048 198.311 140.057 194.031 139.025C189.826 137.992 185.472 137.919 181.119 137.697C180.75 137.697 180.75 137.107 181.119 137.107C185.472 137.329 189.899 137.402 194.179 138.435C198.532 139.467 202.443 141.532 206.354 143.597C206.649 143.744 206.428 144.26 206.059 144.113Z" fill="#231F20"/>
<path d="M219.044 271.023C212.919 271.245 211.444 264.534 212.108 259.741C212.181 259.372 212.698 259.52 212.624 259.888C212.034 264.313 213.288 270.655 219.044 270.433C219.413 270.433 219.413 271.023 219.044 271.023Z" fill="#231F20"/>
<path d="M230.186 266.082C230.776 261.878 226.718 258.117 222.659 258.339C222.291 258.339 222.291 257.822 222.659 257.749C227.234 257.528 231.366 261.657 230.776 266.155C230.629 266.598 230.112 266.45 230.186 266.082Z" fill="#231F20"/>
<path d="M142.528 212.177C142.675 212.398 140.831 212.988 140.609 212.988C139.502 213.062 138.322 212.914 137.215 212.841C136.846 212.767 136.846 212.251 137.215 212.251C138.469 212.398 140.388 212.767 141.495 212.103C141.937 211.808 142.454 211.145 142.897 211.735C143.118 212.03 142.749 212.472 142.528 212.177Z" fill="#231F20"/>
<path d="M138.173 181.205C137.878 181.795 137.583 182.385 137.214 182.975C137.066 183.196 136.697 183.123 136.697 182.828C136.697 182.238 136.771 181.722 136.992 181.205C137.066 180.984 137.361 180.91 137.509 181.132C137.878 182.09 137.509 182.68 136.845 183.344C136.623 183.565 136.328 183.344 136.402 183.049C136.623 182.312 137.066 181.5 137.878 181.353C138.025 181.353 138.099 181.353 138.173 181.5C138.542 182.09 137.804 183.344 137.14 183.344C136.181 183.344 136.402 182.238 136.697 181.722C136.845 181.5 137.361 181.648 137.214 181.943C136.919 182.607 136.623 183.049 136.107 183.491C135.885 183.639 135.664 183.565 135.664 183.27C135.59 182.68 135.738 182.164 136.107 181.648C136.254 181.427 136.697 181.574 136.623 181.869C136.402 182.533 135.738 183.786 134.852 183.418C134.779 183.344 134.705 183.27 134.705 183.196C134.705 182.607 135.074 182.09 135.443 181.722C135.664 181.5 136.033 181.795 135.885 182.09C135.369 182.828 134.779 183.27 133.967 183.565C133.746 183.639 133.598 183.418 133.598 183.196C133.746 182.533 133.967 182.238 134.557 181.869C134.779 181.722 135.148 182.09 134.926 182.312C134.557 182.607 134.188 182.975 133.819 183.27C133.672 183.123 133.598 182.975 133.451 182.828C134.41 182.312 135.443 181.795 136.402 181.279C136.476 181.427 136.476 181.648 136.55 181.795C135.295 181.943 134.115 182.164 132.934 182.385C132.86 182.238 132.86 182.017 132.786 181.869C133.893 181.648 135 181.5 136.107 181.427C136.402 181.427 136.476 181.795 136.254 181.943C135.074 182.68 133.672 182.459 132.344 182.901C132.344 182.754 132.27 182.533 132.27 182.385C132.86 182.312 133.451 182.312 134.115 182.312C134.41 182.312 134.484 182.754 134.188 182.828C133.377 182.975 132.491 183.123 131.68 183.196C131.384 183.196 131.311 182.754 131.606 182.68C132.27 182.459 132.786 182.459 133.451 182.607C133.672 182.68 133.746 183.123 133.451 183.123C132.786 183.196 132.196 183.196 131.458 183.049C131.163 182.975 131.163 182.533 131.458 182.533C132.122 182.385 132.639 182.385 133.303 182.533C133.524 182.607 133.598 183.049 133.303 183.049C132.565 183.196 132.049 183.049 131.384 182.68C131.237 182.533 131.237 182.312 131.384 182.238C131.901 181.869 132.344 181.722 133.008 181.722C133.303 181.722 133.377 182.238 133.082 182.238C132.565 182.312 132.122 182.459 131.606 182.607C131.606 182.459 131.68 182.238 131.68 182.09C132.122 182.385 133.155 181.574 133.303 182.459C133.377 183.123 132.27 183.418 131.827 183.344C131.237 183.27 130.573 182.68 130.794 182.017C131.089 181.205 132.049 181.279 132.713 181.5C133.082 181.574 132.934 182.09 132.565 182.017C132.049 181.943 131.68 181.795 131.163 181.648C131.237 181.5 131.384 181.353 131.458 181.205C131.827 181.5 132.344 181.943 131.827 182.385C131.163 182.901 130.499 181.869 130.278 181.427C130.13 181.132 130.499 180.837 130.72 181.058C131.089 181.5 131.163 181.795 131.016 182.385C130.942 182.68 130.499 182.607 130.499 182.312C130.499 181.869 130.499 181.427 130.499 180.984C130.499 180.689 131.016 180.615 131.016 180.91C131.089 181.5 131.163 181.943 131.089 182.533C131.089 182.828 130.573 182.901 130.573 182.607C130.499 182.164 130.499 182.238 130.499 181.795C130.499 181.427 131.089 181.427 131.089 181.795C131.089 182.164 131.089 182.459 131.089 182.828C130.868 182.828 130.72 182.828 130.499 182.828C130.499 182.459 130.499 182.09 130.499 181.722C130.499 181.353 131.016 181.353 131.089 181.722C131.163 181.869 131.163 182.09 131.237 182.238C131.384 182.533 130.868 182.828 130.794 182.533C130.647 182.164 130.647 182.164 130.573 181.722C130.794 181.722 130.942 181.722 131.163 181.722C131.163 182.09 131.163 182.459 131.163 182.828C131.163 183.196 130.573 183.196 130.573 182.828C130.573 182.459 130.573 182.164 130.573 181.795C130.794 181.795 130.942 181.795 131.163 181.795C131.163 182.017 131.163 182.238 131.237 182.459C131.089 182.459 130.868 182.533 130.72 182.533C130.794 182.017 130.794 181.574 130.647 181.058C130.794 181.058 131.016 180.984 131.163 180.984C131.163 181.427 131.163 181.869 131.163 182.312C131.016 182.312 130.794 182.238 130.647 182.238C130.573 182.017 130.573 181.722 130.499 181.5C130.647 181.353 130.794 181.279 130.942 181.132C131.016 181.353 131.163 181.574 131.384 181.648C131.089 181.427 131.311 181.058 131.68 181.205C132.049 181.427 132.491 181.5 132.934 181.574C132.86 181.722 132.86 181.943 132.786 182.09C133.451 182.312 132.417 182.828 132.196 182.828C131.901 182.828 131.901 182.828 131.606 182.607C131.384 182.459 131.458 182.164 131.68 182.09C132.196 181.943 132.639 181.869 133.155 181.722C133.155 181.869 133.229 182.09 133.229 182.238C132.713 182.238 132.27 182.385 131.901 182.68C131.901 182.533 131.901 182.385 131.901 182.238C132.417 182.385 132.86 182.459 133.377 182.607C133.377 182.754 133.377 182.975 133.377 183.123C132.86 182.975 132.344 182.975 131.827 183.123C131.827 182.975 131.827 182.754 131.827 182.607C132.344 182.754 132.934 182.754 133.524 182.68C133.524 182.828 133.524 183.049 133.524 183.196C133.008 183.049 132.491 183.049 131.975 183.27C131.975 183.123 131.901 182.901 131.901 182.754C132.713 182.68 133.524 182.607 134.262 182.385C134.262 182.533 134.336 182.754 134.336 182.901C133.746 182.901 133.155 182.901 132.491 182.975C132.196 182.975 132.122 182.533 132.417 182.459C133.672 182.09 135 182.238 136.181 181.574C136.254 181.722 136.254 181.943 136.328 182.09C135.295 182.164 134.188 182.385 133.155 182.533C132.786 182.607 132.639 182.09 133.008 182.017C134.262 181.722 135.517 181.5 136.771 181.353C137.066 181.353 137.14 181.722 136.919 181.869C135.959 182.385 134.926 182.901 133.967 183.418C133.672 183.565 133.377 183.196 133.598 182.975C133.967 182.68 134.336 182.312 134.705 182.017C134.852 182.164 134.926 182.312 135.074 182.459C134.852 182.828 134.631 183.123 134.41 183.491C134.262 183.344 134.188 183.27 134.041 183.123C134.705 182.901 135.221 182.459 135.664 181.869C135.812 182.017 135.959 182.09 136.107 182.238C136.181 182.09 136.254 182.017 136.328 181.869C136.476 181.943 136.697 182.017 136.845 182.09C136.55 182.459 136.402 182.901 136.476 183.418C136.328 183.344 136.181 183.27 136.033 183.196C136.476 182.901 136.845 182.459 136.992 181.869C137.14 181.943 137.361 182.017 137.509 182.09C137.509 182.533 137.435 182.901 137.214 183.27C137.066 183.196 136.919 183.123 136.771 182.975C137.214 182.607 137.435 182.09 137.361 181.427C137.509 181.427 137.73 181.353 137.878 181.353C137.73 181.869 137.656 182.312 137.656 182.828C137.509 182.754 137.287 182.754 137.14 182.68C137.509 182.09 137.804 181.574 138.099 180.91C137.878 180.615 138.32 180.91 138.173 181.205Z" fill="#231F20"/>
<path d="M83.7919 82.3901C81.5045 82.8325 79.4384 82.2426 77.151 81.8739C73.6092 81.2839 70.0674 80.8415 66.4519 80.5465C59.9586 79.9566 53.4653 79.7354 46.972 79.8828C46.6031 79.8828 46.6031 79.3666 46.972 79.2929C53.0226 79.1454 58.9993 79.3666 65.0499 79.8828C67.7063 80.1041 70.3626 80.399 73.0189 80.7677C76.3394 81.2102 80.3977 82.5375 83.7181 81.9476C84.0132 81.8001 84.1608 82.3163 83.7919 82.3901Z" fill="#231F20"/>
<path d="M84.456 79.5151C84.8988 80.4738 84.7512 81.5062 84.0133 82.3173C83.792 82.6123 83.3492 82.1698 83.6444 81.9486C84.1609 81.3587 84.3085 80.5475 84.0133 79.8101C83.8657 79.4414 84.3085 79.1464 84.456 79.5151Z" fill="#231F20"/>
<path d="M172.632 237.839C176.1 238.65 178.535 241.969 178.093 245.508C178.019 245.877 177.502 245.877 177.502 245.508C177.871 242.19 175.731 239.093 172.485 238.355C172.116 238.282 172.263 237.765 172.632 237.839Z" fill="#231F20"/>
<path d="M130.205 191.749C130.279 196.174 130.205 200.524 129.984 204.949C129.984 205.318 129.394 205.318 129.394 204.949C129.615 200.524 129.689 196.174 129.615 191.749C129.689 191.38 130.205 191.38 130.205 191.749Z" fill="#231F20"/>
<path d="M217.2 257.676C205.173 257.16 193.072 257.307 181.045 257.086C180.676 257.086 180.676 256.496 181.045 256.496C193.072 256.717 205.173 256.57 217.2 257.086C217.569 257.16 217.569 257.75 217.2 257.676Z" fill="#231F20"/>
<path d="M176.322 256.937C171.304 256.789 166.287 256.789 161.269 256.789C160.9 256.789 160.9 256.199 161.269 256.199C166.287 256.199 171.304 256.273 176.322 256.347C176.691 256.42 176.691 256.937 176.322 256.937Z" fill="#231F20"/>
<path d="M169.976 238.061C167.984 239.535 165.844 240.936 163.63 242.116C163.335 242.264 163.04 241.821 163.335 241.674C165.549 240.494 167.689 239.167 169.681 237.618C170.05 237.323 170.271 237.839 169.976 238.061Z" fill="#231F20"/>
<path d="M128.359 235.184C128.286 236.659 128.212 238.208 128.138 239.682C128.138 240.051 127.548 240.051 127.548 239.682C127.622 238.208 127.695 236.659 127.769 235.184C127.843 234.889 128.359 234.889 128.359 235.184Z" fill="#231F20"/>
<path d="M132.934 184.818C132.786 185.703 132.786 186.662 132.86 187.547C132.86 187.915 132.343 187.915 132.27 187.547C132.196 186.588 132.196 185.629 132.343 184.671C132.491 184.302 133.008 184.449 132.934 184.818Z" fill="#231F20"/>
<path d="M131.975 176.264C130.573 175.969 129.466 175.011 128.95 173.683C128.802 173.388 129.319 173.241 129.466 173.536C129.909 174.642 130.942 175.453 132.123 175.748C132.492 175.822 132.344 176.338 131.975 176.264Z" fill="#231F20"/>
<path d="M230.851 103.48C230.482 104.365 229.671 105.029 228.712 104.955C228.343 104.955 228.343 104.365 228.712 104.365C229.449 104.365 230.114 103.923 230.335 103.259C230.409 103.038 230.999 103.185 230.851 103.48Z" fill="#231F20"/>
<path d="M222.881 10.6386C212.108 12.9984 208.787 26.6407 205.172 35.416C205.024 35.711 204.508 35.5635 204.655 35.2685C208.345 26.3457 211.739 12.4822 222.807 10.1224C223.102 10.0487 223.25 10.5649 222.881 10.6386Z" fill="#231F20"/>
<path d="M204.287 37.9978C203.771 39.9888 203.181 41.9799 202.664 43.9709C202.59 44.3396 202 44.1921 202.148 43.8234C202.664 41.8324 203.254 39.8413 203.771 37.8503C203.845 37.4816 204.435 37.6291 204.287 37.9978Z" fill="#231F20"/>
<path d="M217.569 97.2121C218.012 100.973 218.233 104.808 218.085 108.642C218.085 109.011 217.495 109.011 217.495 108.642C217.643 104.808 217.495 101.047 216.979 97.2121C216.979 96.8434 217.495 96.8434 217.569 97.2121Z" fill="#231F20"/>
<path d="M216.978 96.7702C217.2 97.9501 217.126 101.047 216.683 97.8026C216.609 97.4339 217.126 97.2864 217.2 97.6551C217.347 98.3925 217.421 99.0562 217.569 99.7936C217.421 99.7936 217.2 99.8674 217.052 99.8674C216.831 97.3601 217.495 99.9411 217.642 100.605C218.233 103.26 218.159 106.43 218.085 109.159C218.085 114.321 216.904 119.114 215.871 124.055C215.429 126.415 215.207 128.848 214.838 131.208C214.396 133.641 213.436 136.001 212.92 138.508C212.035 143.007 211.075 144.998 207.386 147.947C207.091 148.169 206.722 147.8 207.017 147.579C208.567 146.325 210.337 144.998 211.297 143.228C212.33 141.237 212.33 138.73 212.92 136.591C213.879 132.83 214.47 129.143 215.207 125.308C216.019 120.884 217.273 116.607 217.569 112.109C217.864 107.315 217.347 102.596 216.904 97.8026C216.904 97.4339 217.421 97.4339 217.421 97.8026C217.569 98.835 217.716 99.9411 217.79 100.974C217.864 101.268 217.273 101.342 217.273 101.047C217.052 99.6462 217.273 97.4339 217.716 100.384C217.79 100.752 217.273 100.9 217.2 100.531C216.978 99.3512 216.757 98.0976 216.609 96.9177C216.388 96.549 216.904 96.4015 216.978 96.7702Z" fill="#231F20"/>
<path d="M135.886 182.312C136.255 181.943 136.55 181.574 136.771 181.132C136.919 181.279 137.067 181.353 137.214 181.501C136.845 181.796 136.55 182.091 136.181 182.386C135.886 182.607 135.517 182.238 135.812 182.017C136.181 181.722 136.476 181.427 136.845 181.132C137.067 180.911 137.435 181.206 137.288 181.501C137.067 182.017 136.771 182.459 136.329 182.828C136.033 182.902 135.591 182.533 135.886 182.312Z" fill="#231F20"/>
<path d="M210.264 157.755C210.56 166.457 201.484 166.162 195.212 166.531C187.169 166.973 179.052 167.637 171.01 168.079C153.817 169.112 136.625 170.07 119.654 172.577C119.285 172.651 119.137 172.061 119.506 172.061C134.632 169.849 149.906 168.743 165.18 167.858C170.714 167.563 176.175 167.194 181.709 166.752C186.431 166.457 191.227 166.162 195.95 165.867C201.779 165.572 210.043 165.719 209.748 157.682C209.674 157.387 210.264 157.387 210.264 157.755Z" fill="#231F20"/>
<path d="M133.894 175.97C134.336 176.043 134.705 176.043 135.148 175.896C135.517 175.822 135.665 176.338 135.296 176.412C134.779 176.56 134.263 176.56 133.746 176.486C133.377 176.412 133.525 175.896 133.894 175.97Z" fill="#231F20"/>
</svg>
