<svg width="24" height="24" viewBox="0 0 20 20" fill="none" xmlns="http://www.w3.org/2000/svg">
<path d="M18.82 0.00147142C18.5985 0.0121584 18.3828 0.0799552 18.1884 0.165582C17.9959 0.250636 16.8877 0.770703 15.2513 1.54001C13.6149 2.30931 11.4877 3.31111 9.37907 4.30449C5.16177 6.29125 1.01753 8.24607 1.01753 8.24607L1.04774 8.23337C1.04774 8.23337 0.797615 8.3253 0.544022 8.51959C0.417226 8.61673 0.280814 8.74214 0.169121 8.92498C0.0574286 9.10782 -0.0242261 9.36694 0.00654565 9.64101C0.11463 10.6037 1.02198 10.8767 1.02198 10.8767L1.02553 10.8787L5.07482 12.4026C5.17806 12.7813 6.30298 16.9097 6.55044 17.784C6.6871 18.2674 6.81501 18.5462 6.94844 18.7364C7.0152 18.8316 7.08517 18.9053 7.16254 18.9592C7.19328 18.9806 7.22561 18.9966 7.2576 19.0109C7.25828 19.0113 7.25869 19.0106 7.25937 19.0109C7.2633 19.0128 7.267 19.013 7.27092 19.0148L7.26026 19.0119C7.26769 19.0152 7.27503 19.0208 7.28247 19.0236C7.29691 19.0292 7.30575 19.029 7.32423 19.0334C7.78797 19.2115 8.17175 18.881 8.17175 18.881L8.18774 18.8673L10.6752 16.3305L14.7121 19.7914L14.7627 19.8168C15.4693 20.1618 16.1083 19.9694 16.4622 19.6527C16.8161 19.3361 16.9553 18.9279 16.9553 18.9279L16.9704 18.8849L19.9367 1.88484C20.0126 1.50451 20.0234 1.17575 19.9518 0.878681C19.8802 0.581611 19.7063 0.32337 19.4881 0.180235C19.2698 0.0370997 19.0415 -0.0092155 18.82 0.00147142ZM18.844 1.01837C18.934 1.01379 19.0007 1.0251 19.0217 1.03888C19.0427 1.05267 19.0521 1.05086 19.0723 1.13462C19.0925 1.21838 19.1034 1.3948 19.0483 1.67091L19.0465 1.67677L16.0971 18.5782C16.0901 18.5952 16.0286 18.7516 15.8883 18.8771C15.7452 19.0052 15.5859 19.1052 15.1634 18.9103L10.749 15.125L10.6246 15.0176L10.6219 15.0205L9.30178 13.9313L16.7207 4.33379C16.7777 4.26024 16.8142 4.1701 16.8256 4.07427C16.837 3.97845 16.8229 3.88104 16.785 3.79383C16.7471 3.70662 16.6871 3.63334 16.6122 3.58286C16.5372 3.53237 16.4506 3.50683 16.3627 3.50933C16.2769 3.51179 16.1934 3.54091 16.122 3.59334L5.38664 11.4628L1.33114 9.93602C1.33114 9.93602 0.928427 9.68961 0.909151 9.51793C0.908082 9.50842 0.903327 9.51703 0.924254 9.48276C0.94518 9.44851 0.997782 9.39067 1.06373 9.34014C1.19563 9.23909 1.34624 9.17799 1.34624 9.17799L1.36134 9.17212L1.37645 9.16529C1.37645 9.16529 5.52089 7.21036 9.73798 5.2237C11.8465 4.23038 13.9734 3.22931 15.6094 2.4602C17.2449 1.69128 18.4268 1.13782 18.5268 1.09359C18.6408 1.04343 18.754 1.02295 18.844 1.01837ZM13.9241 6.40667L8.2979 13.6852L8.29524 13.6881C8.28645 13.6997 8.27815 13.7118 8.27036 13.7242C8.26144 13.7378 8.25314 13.7518 8.24549 13.7662C8.21388 13.8252 8.19362 13.8907 8.18596 13.9587C8.18596 13.96 8.18596 13.9613 8.18596 13.9626L7.45304 17.5867C7.44086 17.5475 7.43233 17.5332 7.41928 17.4871V17.4861C7.18649 16.6636 6.12515 12.7701 5.97831 12.2316L13.9241 6.40667ZM8.9331 14.8779L9.94409 15.7121L8.4587 17.2262L8.9331 14.8779Z" fill="#00AEEF"/>
</svg>
