<svg width="183" height="131" viewBox="0 0 183 131" fill="none" xmlns="http://www.w3.org/2000/svg">
<path d="M30.2023 2.13086H145.661C161.673 2.13086 174.557 14.5148 174.557 29.6508V84.0653C174.557 97.3249 164.8 108.458 151.79 111.085L157.92 129.098L129.649 111.71H30.2023C14.3158 111.71 1.3064 99.3263 1.3064 84.1904V29.6508C1.3064 14.5148 14.3158 2.13086 30.2023 2.13086Z" fill="#F9FAFC" stroke="#263238" stroke-miterlimit="10"/>
<path d="M165.926 30.9032C174.838 30.9032 182.063 24.0146 182.063 15.517C182.063 7.01947 174.838 0.130859 165.926 0.130859C157.014 0.130859 149.789 7.01947 149.789 15.517C149.789 24.0146 157.014 30.9032 165.926 30.9032Z" fill="#00AEEF"/>
<path d="M164.39 23.095C164.053 22.5892 163.884 21.8306 163.884 20.8191V12.3898L161.945 13.4856C161.693 13.5699 161.524 13.6542 161.271 13.6542C160.934 13.6542 160.597 13.4856 160.344 13.2328C160.091 12.9799 159.922 12.6427 159.922 12.3055C159.922 12.0527 160.007 11.7998 160.091 11.6312C160.26 11.4626 160.428 11.2097 160.765 11.0412L164.39 9.10243C164.98 8.76526 165.401 8.59668 165.823 8.59668C167.087 8.59668 167.677 9.5239 167.677 11.4626V21.1562C167.677 23.0107 167.003 23.9379 165.654 23.9379C165.233 23.8536 164.727 23.6007 164.39 23.095Z" fill="white"/>
<path d="M50.6437 55.8982H54.8311V61.3706C54.1525 61.592 53.5123 61.7461 52.9107 61.8327C52.3139 61.9241 51.7026 61.9699 51.0769 61.9699C49.4838 61.9699 48.2661 61.503 47.4238 60.5693C46.5863 59.6307 46.1676 58.2855 46.1676 56.5335C46.1676 54.8297 46.6537 53.5013 47.626 52.5483C48.603 51.5953 49.9555 51.1188 51.6834 51.1188C52.7663 51.1188 53.8107 51.3354 54.8167 51.7686L54.0731 53.559C53.303 53.174 52.5016 52.9815 51.6689 52.9815C50.7015 52.9815 49.9266 53.3064 49.3442 53.9561C48.7618 54.6059 48.4707 55.4795 48.4707 56.5768C48.4707 57.7223 48.7041 58.5983 49.171 59.2048C49.6426 59.8064 50.3261 60.1072 51.2213 60.1072C51.6882 60.1072 52.1623 60.0591 52.6436 59.9628V57.7608H50.6437V55.8982Z" fill="black"/>
<path d="M58.9318 57.7753C58.9318 58.5743 59.0618 59.1783 59.3217 59.5874C59.5864 59.9965 60.0148 60.2011 60.6068 60.2011C61.194 60.2011 61.6151 59.9989 61.8702 59.5946C62.1301 59.1855 62.2601 58.5791 62.2601 57.7753C62.2601 56.9763 62.1301 56.3771 61.8702 55.9776C61.6103 55.5781 61.1843 55.3784 60.5923 55.3784C60.0051 55.3784 59.5816 55.5781 59.3217 55.9776C59.0618 56.3723 58.9318 56.9715 58.9318 57.7753ZM64.5126 57.7753C64.5126 59.0893 64.166 60.1168 63.473 60.8581C62.7799 61.5993 61.8149 61.9699 60.5779 61.9699C59.803 61.9699 59.1195 61.8014 58.5275 61.4645C57.9355 61.1228 57.4807 60.6342 57.163 59.9989C56.8454 59.3636 56.6865 58.6224 56.6865 57.7753C56.6865 56.4565 57.0307 55.4313 57.7189 54.6997C58.4072 53.9682 59.3746 53.6024 60.6212 53.6024C61.3961 53.6024 62.0796 53.7708 62.6716 54.1077C63.2636 54.4446 63.7184 54.9284 64.0361 55.5589C64.3537 56.1894 64.5126 56.9282 64.5126 57.7753Z" fill="black"/>
<path d="M68.0863 57.7753C68.0863 58.5743 68.2162 59.1783 68.4761 59.5874C68.7408 59.9965 69.1692 60.2011 69.7612 60.2011C70.3484 60.2011 70.7696 59.9989 71.0246 59.5946C71.2845 59.1855 71.4145 58.5791 71.4145 57.7753C71.4145 56.9763 71.2845 56.3771 71.0246 55.9776C70.7647 55.5781 70.3388 55.3784 69.7468 55.3784C69.1596 55.3784 68.736 55.5781 68.4761 55.9776C68.2162 56.3723 68.0863 56.9715 68.0863 57.7753ZM73.667 57.7753C73.667 59.0893 73.3205 60.1168 72.6274 60.8581C71.9343 61.5993 70.9693 61.9699 69.7323 61.9699C68.9574 61.9699 68.274 61.8014 67.682 61.4645C67.09 61.1228 66.6351 60.6342 66.3175 59.9989C65.9998 59.3636 65.841 58.6224 65.841 57.7753C65.841 56.4565 66.1851 55.4313 66.8734 54.6997C67.5616 53.9682 68.5291 53.6024 69.7757 53.6024C70.5506 53.6024 71.234 53.7708 71.826 54.1077C72.418 54.4446 72.8729 54.9284 73.1905 55.5589C73.5082 56.1894 73.667 56.9282 73.667 57.7753Z" fill="black"/>
<path d="M78.0421 61.9699C77.0939 61.9699 76.3479 61.6017 75.804 60.8653C75.2649 60.1289 74.9954 59.1085 74.9954 57.8042C74.9954 56.4806 75.2698 55.4506 75.8184 54.7142C76.372 53.973 77.1324 53.6024 78.0998 53.6024C79.1154 53.6024 79.8903 53.997 80.4245 54.7864H80.4967C80.386 54.1847 80.3307 53.6481 80.3307 53.1764V50.5918H82.5399V61.8255H80.8505L80.4245 60.7786H80.3307C79.8301 61.5728 79.0673 61.9699 78.0421 61.9699ZM78.8146 60.2155C79.3777 60.2155 79.7892 60.0519 80.0491 59.7246C80.3138 59.3973 80.4582 58.8414 80.4823 58.0569V57.8186C80.4823 56.9523 80.3475 56.3314 80.078 55.956C79.8133 55.5805 79.3801 55.3928 78.7785 55.3928C78.2875 55.3928 77.9049 55.6022 77.6306 56.0209C77.361 56.4348 77.2263 57.0389 77.2263 57.833C77.2263 58.6272 77.3634 59.224 77.6378 59.6235C77.9121 60.0182 78.3044 60.2155 78.8146 60.2155Z" fill="black"/>
<path d="M90.8857 61.8255H88.6838V50.5918H90.8857V61.8255Z" fill="black"/>
<path d="M98.9211 61.8255L98.6251 60.7931H98.5096C98.2738 61.1685 97.9393 61.4597 97.5061 61.6666C97.0729 61.8688 96.5796 61.9699 96.0261 61.9699C95.0779 61.9699 94.3632 61.7172 93.8819 61.2118C93.4005 60.7016 93.1599 59.97 93.1599 59.0171V53.754H95.3619V58.4684C95.3619 59.0507 95.4654 59.4887 95.6723 59.7823C95.8793 60.0711 96.209 60.2155 96.6614 60.2155C97.2775 60.2155 97.7227 60.011 97.997 59.6018C98.2714 59.1879 98.4085 58.5045 98.4085 57.5515V53.754H100.611V61.8255H98.9211Z" fill="black"/>
<path d="M106.198 61.9699C103.686 61.9699 102.43 60.5909 102.43 57.833C102.43 56.4613 102.772 55.4145 103.455 54.6925C104.138 53.9658 105.118 53.6024 106.393 53.6024C107.327 53.6024 108.165 53.7853 108.906 54.1511L108.256 55.8549C107.91 55.7153 107.587 55.6022 107.289 55.5156C106.99 55.4241 106.692 55.3784 106.393 55.3784C105.248 55.3784 104.675 56.1918 104.675 57.8186C104.675 59.3973 105.248 60.1866 106.393 60.1866C106.817 60.1866 107.209 60.1313 107.57 60.0206C107.931 59.9051 108.292 59.727 108.653 59.4863V61.3706C108.297 61.5969 107.936 61.7533 107.57 61.8399C107.209 61.9265 106.752 61.9699 106.198 61.9699Z" fill="black"/>
<path d="M112.646 57.436L113.606 56.2086L115.866 53.754H118.349L115.144 57.2555L118.544 61.8255H116.003L113.678 58.555L112.732 59.3131V61.8255H110.53V50.5918H112.732V55.6022L112.617 57.436H112.646Z" fill="black"/>
<path d="M121.547 58.324H119.786L119.418 51.2704H121.916L121.547 58.324ZM119.389 60.7931C119.389 60.3888 119.497 60.0831 119.714 59.8762C119.93 59.6692 120.245 59.5657 120.659 59.5657C121.059 59.5657 121.367 59.6716 121.583 59.8834C121.805 60.0952 121.916 60.3984 121.916 60.7931C121.916 61.1733 121.805 61.4741 121.583 61.6955C121.362 61.9121 121.054 62.0204 120.659 62.0204C120.255 62.0204 119.942 61.9145 119.721 61.7027C119.499 61.4862 119.389 61.1829 119.389 60.7931Z" fill="black"/>
</svg>
