<?xml version="1.0" encoding="utf-8"?>
<!-- Generator: Adobe Illustrator 23.0.4, SVG Export Plug-In . SVG Version: 6.00 Build 0)  -->
<!DOCTYPE svg PUBLIC "-//W3C//DTD SVG 1.1//EN" "http://www.w3.org/Graphics/SVG/1.1/DTD/svg11.dtd" [
	<!ENTITY ns_extend "http://ns.adobe.com/Extensibility/1.0/">
	<!ENTITY ns_ai "http://ns.adobe.com/AdobeIllustrator/10.0/">
	<!ENTITY ns_graphs "http://ns.adobe.com/Graphs/1.0/">
	<!ENTITY ns_vars "http://ns.adobe.com/Variables/1.0/">
	<!ENTITY ns_imrep "http://ns.adobe.com/ImageReplacement/1.0/">
	<!ENTITY ns_sfw "http://ns.adobe.com/SaveForWeb/1.0/">
	<!ENTITY ns_custom "http://ns.adobe.com/GenericCustomNamespace/1.0/">
	<!ENTITY ns_adobe_xpath "http://ns.adobe.com/XPath/1.0/">
]>
<svg version="1.1" id="Слой_1" xmlns:x="&ns_extend;" xmlns:i="&ns_ai;" xmlns:graph="&ns_graphs;"
	 xmlns="http://www.w3.org/2000/svg" xmlns:xlink="http://www.w3.org/1999/xlink" x="0px" y="0px" viewBox="0 0 896.4 642.8"
	 style="enable-background:new 0 0 896.4 642.8;" xml:space="preserve">
<style type="text/css">
	.st0{fill:#231F20;}
	.st1{opacity:0.5;}
	.st2{fill:#40B3E7;}
	.st3{fill:#2EA9E1;}
</style>
<metadata>
	<sfw  xmlns="&ns_sfw;">
		<slices></slices>
		<sliceSourceBounds  bottomLeftOrigin="true" height="3460.1" width="896.4" x="1.2" y="-3460.3"></sliceSourceBounds>
	</sfw>
</metadata>
<g>
	<g>
		<path class="st0" d="M673.6,217.1c11.7,4.1,23.5,3.6,35.3,6.7c13,3.4,25.5,9.9,36.7,17.3c22.8,15.1,43.9,36.5,58.4,59.8
			c0.6,0.9,2.1,0.1,1.5-0.9c-14.2-22.9-34.4-43.5-56.5-58.8c-10.2-7.1-21.4-13.1-33.1-17.1c-13.7-4.8-28.1-3.8-41.8-8.7
			C673,215.1,672.5,216.8,673.6,217.1L673.6,217.1z"/>
	</g>
	<g>
		<path class="st0" d="M808.2,305.9c4.3,3.6,7.5,7.5,9.9,12.6c1.6,3.4,3.2,6.1,6.5,8.1c0.9,0.6,1.8-0.9,0.9-1.5
			c-4.2-2.6-5.2-6.7-7.5-10.7c-2.2-3.8-5.2-6.9-8.6-9.8C808.6,304,807.3,305.2,808.2,305.9L808.2,305.9z"/>
	</g>
	<g>
		<path class="st0" d="M828,341.2c16.3,15.8,28.5,36.4,38.3,56.7c4.6,9.7,8,19.8,12.4,29.6c5.8,13,22.3,28.7,13.3,43.5
			c-0.6,0.9,0.9,1.8,1.5,0.9c5.2-8.6,2.7-17.3-2-25.5c-7.8-13.4-13.7-26.7-19.8-41c-10.1-23.5-23.9-47.5-42.3-65.4
			C828.4,339.2,827.2,340.4,828,341.2L828,341.2z"/>
	</g>
	<g>
		<path class="st0" d="M885.2,480c-8.1,7.4-15.9,14.9-22.4,23.8c-7.8,10.7-14.5,21.8-24.2,30.9c-17.5,16.2-40.5,28.1-62.7,36.3
			c-1,0.4-0.6,2,0.5,1.7c20.5-7.5,40.9-18,57.8-31.8c8.9-7.3,16.1-15.8,22.6-25.2c8.8-12.8,18.1-23.9,29.6-34.3
			C887.2,480.4,886,479.2,885.2,480L885.2,480z"/>
	</g>
	<g>
		<path class="st0" d="M771.9,465.9c6.5-11.4,14.5-24.1,24.4-32.8c0.8-0.7-0.4-1.9-1.2-1.2c-10.1,8.7-18.2,21.6-24.7,33.1
			C769.9,466,771.4,466.9,771.9,465.9L771.9,465.9z"/>
	</g>
	<g>
		<path class="st0" d="M745.7,406.4c6.3,7.1,12.2,14.8,19.9,20.5c7.2,5.4,15.5,8,24,10.5c1.1,0.3,1.5-1.3,0.5-1.7
			c-9.7-2.8-18.8-6.1-26.6-12.8c-6.1-5.3-11.2-11.7-16.5-17.8C746.2,404.4,745,405.6,745.7,406.4L745.7,406.4z"/>
	</g>
	<g>
		<path class="st0" d="M706,377.7c9.3,11,23.6,13.8,34.2,23.2c0.8,0.7,2-0.5,1.2-1.2c-10.5-9.3-24.9-12.2-34.2-23.2
			C706.5,375.7,705.3,376.9,706,377.7L706,377.7z"/>
	</g>
	<g>
		<path class="st0" d="M736,398.3c-6.7,23.1-1.9,48.1-10.5,70.7c-7.3,19.2-12.3,34.6-8.9,55.6c0.2,1.1,1.8,0.6,1.7-0.5
			c-2.1-12.6-2.1-25,1.9-37.3c2.4-7.4,6.1-14.3,8.5-21.7c6.9-21.4,2.6-44.8,8.9-66.5C737.9,397.7,736.3,397.3,736,398.3L736,398.3z"
			/>
	</g>
	<g>
		<path class="st0" d="M758.4,480.7c-20.2,32.7-55.9,51.2-84.1,76c-23.6,20.8-48.3,52.2-45.8,85.3c0.1,1.1,1.8,1.1,1.7,0
			c-2.9-38.2,29.6-72.3,57.6-94.1c25.4-19.9,54.7-38.3,72-66.3C760.4,480.6,759,479.7,758.4,480.7L758.4,480.7z"/>
	</g>
	<g>
		<path class="st0" d="M406.2,596.6c-0.7,5.3-2,10.5-3.9,15.5c-0.4,1,1.3,1.5,1.7,0.5c2-5.2,3.3-10.5,3.9-16
			C408.1,595.5,406.3,595.5,406.2,596.6L406.2,596.6z"/>
	</g>
	<g>
		<path class="st0" d="M406.3,415.6c-0.1,8.8,3.5,16.5,4.1,25.1c0.3,4.4-0.3,9-0.3,13.5c0.1,13.4,0.6,27.1,1.9,40.4
			c1.4,15.1,11.1,33.4,6.2,48c-2.2,6.7-5.6,12.2-7.2,19.2c-1.8,7.8-2.5,15.8-3,23.7c-0.1,1.1,1.6,1.1,1.7,0
			c0.6-10,1.6-20.3,4.7-29.9c2.1-6.4,5.9-11.6,6.6-18.5c1.6-14.2-5.9-28.4-7.3-42.6c-1.3-13.3-1.8-27-1.9-40.4c0-4.5,0.6-9,0.3-13.5
			c-0.5-8.6-4.2-16.3-4.1-25.1C408,414.5,406.3,414.5,406.3,415.6L406.3,415.6z"/>
	</g>
	<g>
		<path class="st0" d="M747.5,406.4c19.1-28.3,46.3-57.5,81.3-65c1.1-0.2,0.6-1.9-0.5-1.7c-35.6,7.6-62.9,37.1-82.3,65.8
			C745.4,406.5,746.9,407.4,747.5,406.4L747.5,406.4z"/>
	</g>
	<g>
		<path class="st0" d="M558,263.5c1.1,0,1.1-1.7,0-1.7C556.9,261.8,556.9,263.5,558,263.5L558,263.5z"/>
	</g>
	<g>
		<path class="st0" d="M563.1,264.7c38.4-0.4,81.9-16.3,99-53.5c0.5-1-1-1.9-1.5-0.9c-16.8,36.6-59.6,52.2-97.5,52.6
			C562,262.9,562,264.7,563.1,264.7L563.1,264.7z"/>
	</g>
	<g>
		<path class="st0" d="M715,605.4c15.6-15.5,34.3-26.1,55.7-31.3c1.1-0.3,0.6-1.9-0.5-1.7c-21.6,5.3-40.7,16.1-56.4,31.8
			C713,605,714.3,606.2,715,605.4L715,605.4z"/>
	</g>
	<g>
		<path class="st0" d="M670.4,220.6c-19.1,35.5-64,53.7-102.4,56.9c-1.1,0.1-1.1,1.8,0,1.7c38.9-3.2,84.5-21.7,103.9-57.7
			C672.4,220.5,670.9,219.6,670.4,220.6L670.4,220.6z"/>
	</g>
	<g>
		<path class="st0" d="M741.5,400.8c13.6-25.9,36-47.9,61.6-61.9c1-0.5,0.1-2-0.9-1.5c-25.9,14.1-48.5,36.3-62.2,62.5
			C739.5,400.9,741,401.7,741.5,400.8L741.5,400.8z"/>
	</g>
	<g>
		<path class="st2" d="M478.9,489.9l13.2-9.2c4.7,4.3,10.5,8.1,19.2,7.4c5.6-0.5,7.7-1.8,10.5-4.8s3.8-6.1,3.4-11.1l-5.1-68.6
			l17.2-1.6l5.8,69.1c0.8,10.1-1.7,18.1-7.7,24.1c-5.9,6-13.3,9.8-23.1,10.6C497.1,506.9,485.7,501.3,478.9,489.9z"/>
		<path class="st2" d="M573.8,492.8c-6.9-3.8-13.5-8.2-16.7-15.5l14.9-9.9c4.8,10.7,12.5,17,24.8,16.1c6.1-0.5,9.7-2.8,12.5-5.5
			c2.8-2.6,4.1-5.9,3.8-9.7c-0.3-4-2.2-6.9-5.6-8.8c-3.4-1.8-9.4-3.7-17.9-5.5c-4.8-1-8.7-2-11.7-3s-6.2-2.4-9.6-4.4
			c-3.4-1.9-6-4.5-7.9-7.6s-3-6.9-3.3-11.3c-0.7-8.7,1.8-15.8,7.6-21.4s13-8.7,21.7-9.4c7.8-0.6,14.9,0.7,21,4.1
			c6.2,3.4,11.1,8.3,14.9,14.7l-13,8.9c-4.8-8.8-12.1-12.8-21.7-12.1c-4.7,0.4-8.3,1.8-10.9,4.2c-2.6,2.4-3.8,5.5-3.5,9.2
			c0.3,3.6,1.9,6.4,5,8.3c3,1.9,8.4,3.7,16,5.4c3.8,0.9,6.6,1.6,8.4,2.1c1.8,0.5,4.3,1.2,7.5,2.3c3.2,1.1,5.7,2.2,7.4,3.4
			c1.7,1.2,3.5,2.7,5.5,4.5s3.4,4,4.4,6.4c0.9,2.5,1.6,5.3,1.8,8.5c0.7,8.9-0.6,17-6.6,22.7s-13.6,9.1-23.9,9.9
			C589.3,500.2,580.7,496.6,573.8,492.8z"/>
	</g>
	<g>
		<path class="st0" d="M536.9,404c2.4,23.5,4.2,47.1,5.4,70.7c0.1,1.1,1.8,1.1,1.7,0c-1.1-23.6-2.9-47.2-5.4-70.7
			C538.5,402.9,536.8,402.9,536.9,404L536.9,404z"/>
	</g>
	<g>
		<path class="st0" d="M484.9,499.3c20.3,15.3,48.2,8.6,58.1-14.6c0.4-1-1-1.9-1.5-0.9c-9.6,22.3-36.3,28.6-55.8,13.9
			C484.9,497.1,484,498.6,484.9,499.3L484.9,499.3z"/>
	</g>
	<g>
		<path class="st0" d="M519.2,406.7c1.4,19.4,3.3,38.8,4.7,58.2c0.1,1.1,1.8,1.1,1.7,0c-1.4-19.4-3.3-38.8-4.7-58.2
			C520.8,405.6,519.1,405.6,519.2,406.7L519.2,406.7z"/>
	</g>
	<g>
		<path class="st0" d="M521.3,403.7c4.1-0.6,8.3-1,12.5-1.1c1.1,0,1.1-1.7,0-1.7c-4.3,0.1-8.6,0.5-12.9,1.2
			C519.8,402.2,520.3,403.9,521.3,403.7L521.3,403.7z"/>
	</g>
	<g>
		<path class="st0" d="M479.7,491.6c2.9-2.2,6-4.9,9.3-6.5c4.5-2.2,5.1-1.4,9.4,0.6c4.4,2.1,9.9,4.1,14.9,3.2
			c8.5-1.6,13.1-10.7,12.3-18.7c-0.1-1.1-1.8-1.1-1.7,0c0.9,9.2-5.4,17.6-15.1,16.8c-5.7-0.4-11-3.3-15.5-6.5
			c-0.2-0.2-0.6-0.2-0.9,0c-4.4,3.3-9.2,6.2-13.6,9.5C478,490.8,478.9,492.3,479.7,491.6L479.7,491.6z"/>
	</g>
	<g>
		<path class="st0" d="M565.2,404.7c-7.1,10.1-13.2,23.3-5.7,35c7.6,11.8,25.5,14.6,38.1,17.2c1.1,0.2,1.5-1.4,0.5-1.7
			c-10.7-2.2-24.7-4.5-33.2-12c-12.2-10.8-6-26.5,1.8-37.6C567.3,404.6,565.9,403.8,565.2,404.7L565.2,404.7z"/>
	</g>
	<g>
		<path class="st0" d="M605,458.3c15.5,7.7,5.3,23.8-7.9,25c-9.6,0.9-19.3-5.7-22.6-14.6c-0.4-1-2-0.6-1.7,0.5
			c4.7,12.7,19.4,19.3,31.9,14c12.1-5.1,13.2-20.4,1.2-26.3C604.9,456.3,604,457.8,605,458.3L605,458.3z"/>
	</g>
	<g>
		<path class="st0" d="M577.8,432.4c-6.6-8.7-1.2-17.4,8.6-18.8c8.1-1.2,16,1.2,20.2,8.7c0.5,1,2,0.1,1.5-0.9
			c-5.2-9.4-17-12-26.7-8.4c-8.9,3.2-10.3,13.2-5,20.3C577,434.1,578.5,433.3,577.8,432.4L577.8,432.4z"/>
	</g>
	<g>
		<path class="st0" d="M571.6,401.4c17.1-7.9,38.9-3.6,49.1,13.1c0.6,0.9,2.1,0.1,1.5-0.9c-10.7-17.6-33.5-22-51.4-13.7
			C569.8,400.4,570.6,401.9,571.6,401.4L571.6,401.4z"/>
	</g>
	<g>
		<path class="st0" d="M609.9,425.3c4.4-2.5,8.6-5.2,12.7-8.2c0.9-0.7,0-2.1-0.9-1.5c-4,3-8.3,5.8-12.7,8.2
			C608.1,424.4,609,425.9,609.9,425.3L609.9,425.3z"/>
	</g>
	<g>
		<path class="st0" d="M581.7,436.2c12,7.1,26.7,6.7,38.5,14c10.8,6.6,9.1,19.8,6.9,30.7c-0.2,1.1,1.4,1.5,1.7,0.5
			c2-9.8,4-23.3-4.7-30.6c-11.5-9.7-28.8-8.5-41.5-16C581.6,434.1,580.8,435.6,581.7,436.2L581.7,436.2z"/>
	</g>
	<g>
		<path class="st0" d="M557.5,479.7c14.9,20.3,53.4,30.1,69.8,6c0.6-0.9-0.9-1.8-1.5-0.9c-15.6,22.9-52.8,13.2-66.8-6
			C558.3,477.9,556.8,478.8,557.5,479.7L557.5,479.7z"/>
	</g>
	<g>
		<path class="st0" d="M559.6,476.6c4.1-2,7.4-5.4,11.3-7.7c1-0.6,0.1-2-0.9-1.5c-3.9,2.3-7.3,5.7-11.3,7.7
			C557.7,475.6,558.6,477,559.6,476.6L559.6,476.6z"/>
	</g>
	<g>
		<path class="st0" d="M562,390.7c5.8-17.2,15.9-29.9,29.2-42c9.7-8.8,16.3-18.3,19.8-30.9c0.3-1.1-1.4-1.5-1.7-0.5
			c-5,18.3-17.7,27-29.9,40.1c-8.8,9.4-15,20.7-19.1,32.8C560,391.3,561.6,391.8,562,390.7L562,390.7z"/>
	</g>
	<g>
		<path class="st0" d="M593.9,357.2c5.1-4.5,10.1-9.1,15.2-13.6c0.8-0.7-0.4-1.9-1.2-1.2c-5.1,4.5-10.1,9.1-15.2,13.6
			C591.9,356.8,593.1,358,593.9,357.2L593.9,357.2z"/>
	</g>
	<g>
		<path class="st0" d="M542.5,519.9c-2.3,20.9-23.4,31.3-32.6,48.7c-0.5,1,1,1.8,1.5,0.9c9.4-17.8,30.5-28.1,32.8-49.6
			C544.4,518.8,542.7,518.8,542.5,519.9L542.5,519.9z"/>
	</g>
	<g>
		<path class="st0" d="M661.6,211.6c3.4-1.2,6.4-0.5,8.8,2.1c0.7,0.8,2-0.4,1.2-1.2c-2.8-3.1-6.5-3.9-10.4-2.6
			C660.1,210.3,660.5,212,661.6,211.6L661.6,211.6z"/>
	</g>
	<g>
		<path class="st0" d="M740.1,400.9c1.9,1.9,3.3,4.8,6,5.7c1.1,0.3,1.5-1.3,0.5-1.7c-2.3-0.7-3.7-3.6-5.3-5.2
			C740.6,398.9,739.4,400.1,740.1,400.9L740.1,400.9z"/>
	</g>
	<g>
		<path class="st0" d="M829.7,331.4c0.6,1.9,0.6,3.8,0.1,5.7c-0.3,1.1,1.4,1.5,1.7,0.5c0.6-2.2,0.5-4.4-0.1-6.6
			C831,329.9,829.4,330.3,829.7,331.4L829.7,331.4z"/>
	</g>
	<g>
		<path class="st0" d="M809.8,335.1c3.5-1.4,7.1-2.5,10.9-3.2c1.1-0.2,0.6-1.9-0.5-1.7c-3.7,0.7-7.4,1.8-10.9,3.2
			C808.3,333.9,808.7,335.5,809.8,335.1L809.8,335.1z"/>
	</g>
	<g>
		<path class="st0" d="M699.3,383.8c3.5,0.6,6.8,1.6,10,3.1c1,0.5,1.9-1,0.9-1.5c-3.3-1.6-6.8-2.7-10.4-3.3
			C698.7,381.9,698.3,383.6,699.3,383.8L699.3,383.8z"/>
	</g>
	<g class="st1">
		<path class="st0" d="M662.2,218.5c2.2,0.2,4.2,0.9,6.1,2.1c0.6,0.3,1.1-0.6,0.5-0.9c-2.1-1.2-4.3-1.9-6.7-2.2
			C661.6,217.4,661.6,218.4,662.2,218.5L662.2,218.5z"/>
	</g>
	<g class="st1">
		<path class="st0" d="M660,221.5c1.8,0.5,3.5,1.2,5.2,2.1c0.6,0.3,1.1-0.6,0.5-0.9c-1.7-0.9-3.5-1.7-5.4-2.2
			C659.7,220.3,659.4,221.3,660,221.5L660,221.5z"/>
	</g>
	<g class="st1">
		<path class="st0" d="M658.2,225.5c1.5,0.9,2.9,1.8,4.4,2.7c0.6,0.3,1.1-0.5,0.5-0.9c-1.5-0.9-2.9-1.8-4.4-2.7
			C658.1,224.2,657.6,225.1,658.2,225.5L658.2,225.5z"/>
	</g>
	<g class="st1">
		<path class="st0" d="M655,229.8c1.1,0.8,2.2,1.5,3.2,2.3c0.5,0.4,1.1-0.5,0.5-0.9c-1.1-0.8-2.2-1.5-3.2-2.3
			C655,228.6,654.4,229.5,655,229.8L655,229.8z"/>
	</g>
	<g class="st1">
		<path class="st0" d="M651.7,232.7c1.5,1,2.7,2.3,3.6,3.9c0.3,0.6,1.2,0.1,0.9-0.5c-1-1.7-2.3-3.2-4-4.3
			C651.6,231.5,651.1,232.4,651.7,232.7L651.7,232.7z"/>
	</g>
	<g class="st1">
		<path class="st0" d="M648.2,236.5c1.1,1,2,2.1,2.8,3.4c0.4,0.5,1.3,0,0.9-0.5c-0.9-1.3-1.9-2.5-3-3.6
			C648.5,235.3,647.7,236,648.2,236.5L648.2,236.5z"/>
	</g>
	<g class="st1">
		<path class="st0" d="M643.4,240.7c1.2,1.1,2.1,2.4,2.8,3.8c0.3,0.6,1.2,0.1,0.9-0.5c-0.8-1.5-1.8-2.8-3-4
			C643.6,239.5,642.9,240.2,643.4,240.7L643.4,240.7z"/>
	</g>
	<g class="st1">
		<path class="st0" d="M639,245.7c1,0.9,1.8,1.8,2.5,3c0.3,0.6,1.2,0,0.9-0.5c-0.7-1.2-1.6-2.2-2.7-3.2
			C639.3,244.5,638.5,245.2,639,245.7L639,245.7z"/>
	</g>
	<g class="st1">
		<path class="st0" d="M633.2,250.4c0.9,0.7,1.6,1.6,2.1,2.6c0.3,0.6,1.2,0.1,0.9-0.5c-0.5-1.2-1.3-2.2-2.4-3
			C633.2,249.1,632.7,250,633.2,250.4L633.2,250.4z"/>
	</g>
	<g class="st1">
		<path class="st0" d="M628.6,252.8c0.6,0.9,1.2,1.9,1.7,2.8c0.3,0.6,1.2,0,0.9-0.5c-0.6-0.9-1.2-1.9-1.7-2.8
			C629.2,251.7,628.3,252.2,628.6,252.8L628.6,252.8z"/>
	</g>
	<g class="st1">
		<path class="st0" d="M623.1,255.3c0.5,1.1,1.1,2.2,1.9,3.2c0.4,0.5,1.3,0,0.9-0.5c-0.8-1-1.4-2.1-1.9-3.2
			C623.7,254.1,622.8,254.7,623.1,255.3L623.1,255.3z"/>
	</g>
	<g class="st1">
		<path class="st0" d="M617.5,258.2c0.8,0.8,1.3,1.8,1.7,2.9c0.2,0.6,1.2,0.4,1-0.3c-0.5-1.2-1.1-2.3-2-3.3
			C617.8,257,617,257.7,617.5,258.2L617.5,258.2z"/>
	</g>
	<g class="st1">
		<path class="st0" d="M612.2,259.3c0.7,1.5,1.5,2.9,2.2,4.4c0.3,0.6,1.2,0.1,0.9-0.5c-0.7-1.5-1.5-2.9-2.2-4.4
			C612.8,258.2,611.9,258.7,612.2,259.3L612.2,259.3z"/>
	</g>
	<g class="st1">
		<path class="st0" d="M607.3,261.8c0.4,1.3,0.9,2.6,1.5,3.8c0.3,0.6,1.2,0.1,0.9-0.5c-0.6-1.1-1.1-2.3-1.4-3.5
			C608.1,260.9,607.1,261.2,607.3,261.8L607.3,261.8z"/>
	</g>
	<g class="st1">
		<path class="st0" d="M602.3,263.7c0.4,1.2,0.8,2.4,1.1,3.7c0.2,0.6,1.2,0.4,1-0.3c-0.4-1.2-0.8-2.4-1.1-3.7
			C603.1,262.8,602.1,263.1,602.3,263.7L602.3,263.7z"/>
	</g>
	<g class="st1">
		<path class="st0" d="M595.2,264.9c0.2,1.5,0.6,3,1.2,4.4c0.3,0.6,1.2,0.3,1-0.3c-0.6-1.4-1-2.9-1.2-4.4
			C596.1,263.9,595.1,264.2,595.2,264.9L595.2,264.9z"/>
	</g>
	<g class="st1">
		<path class="st0" d="M588.5,266.9c0.2,1.1,0.3,2.2,0.5,3.4c0.1,0.7,1.1,0.4,1-0.3c-0.2-1.1-0.3-2.2-0.5-3.4
			C589.4,266,588.4,266.3,588.5,266.9L588.5,266.9z"/>
	</g>
	<g class="st1">
		<path class="st0" d="M583.2,268.2c-0.1,1.2,0,2.4,0.3,3.6c0.2,0.6,1.2,0.4,1-0.3c-0.3-1.1-0.4-2.2-0.3-3.4
			C584.3,267.6,583.3,267.6,583.2,268.2L583.2,268.2z"/>
	</g>
	<g class="st1">
		<path class="st0" d="M576.2,268.2c0,1.4-0.1,2.7-0.1,4.1c0,0.7,1,0.7,1,0c0-1.4,0.1-2.7,0.1-4.1
			C577.3,267.6,576.2,267.6,576.2,268.2L576.2,268.2z"/>
	</g>
	<g class="st1">
		<path class="st0" d="M569.6,270c0,1.1,0,2.2,0,3.4c0,0.7,1,0.7,1,0c0-1.1,0-2.2,0-3.4C570.6,269.3,569.6,269.3,569.6,270
			L569.6,270z"/>
	</g>
	<g class="st1">
		<path class="st0" d="M744.9,398.4c0.9,0.6,1.8,1.2,2.7,1.7c0.6,0.3,1.1-0.6,0.5-0.9c-1-0.5-1.9-1-2.7-1.7
			C744.9,397.1,744.3,398,744.9,398.4L744.9,398.4z"/>
	</g>
	<g class="st1">
		<path class="st0" d="M748.4,392.7c1.2,0.7,2.2,1.6,3.1,2.6c0.4,0.5,1.2-0.2,0.7-0.7c-1-1.1-2.1-2-3.3-2.7
			C748.3,391.5,747.8,392.4,748.4,392.7L748.4,392.7z"/>
	</g>
	<g class="st1">
		<path class="st0" d="M752.6,386.8c0.9,0.8,1.8,1.6,2.6,2.5c0.5,0.5,1.2-0.3,0.7-0.7c-0.9-0.8-1.8-1.6-2.6-2.5
			C752.9,385.6,752.2,386.4,752.6,386.8L752.6,386.8z"/>
	</g>
	<g class="st1">
		<path class="st0" d="M756.3,381.3c0.9,0.9,1.8,1.6,2.8,2.3c0.6,0.4,1.1-0.5,0.5-0.9c-1-0.6-1.8-1.3-2.6-2.2
			C756.6,380.1,755.8,380.8,756.3,381.3L756.3,381.3z"/>
	</g>
	<g class="st1">
		<path class="st0" d="M761.8,376.6c0.8,0.7,1.5,1.5,2.3,2.2c0.5,0.5,1.2-0.3,0.7-0.7c-0.8-0.7-1.5-1.5-2.3-2.2
			C762.1,375.4,761.3,376.2,761.8,376.6L761.8,376.6z"/>
	</g>
	<g class="st1">
		<path class="st0" d="M766.2,371.1c0.8,0.9,1.7,1.8,2.5,2.7c0.5,0.5,1.2-0.2,0.7-0.7c-0.8-0.9-1.7-1.8-2.5-2.7
			C766.5,369.8,765.8,370.6,766.2,371.1L766.2,371.1z"/>
	</g>
	<g class="st1">
		<path class="st0" d="M770.2,366.7c0.9,0.9,1.7,1.8,2.6,2.7c0.5,0.5,1.2-0.3,0.7-0.7c-0.9-0.9-1.7-1.8-2.6-2.7
			C770.4,365.5,769.7,366.2,770.2,366.7L770.2,366.7z"/>
	</g>
	<g class="st1">
		<path class="st0" d="M776,363c0.5,0.6,1.1,1.1,1.6,1.7c0.5,0.5,1.2-0.2,0.7-0.7c-0.5-0.6-1.1-1.1-1.6-1.7
			C776.3,361.8,775.5,362.5,776,363L776,363z"/>
	</g>
	<g class="st1">
		<path class="st0" d="M779.8,357.6c1,0.9,1.8,1.9,2.6,3.1c0.4,0.5,1.3,0,0.9-0.5c-0.8-1.2-1.7-2.3-2.8-3.3
			C780,356.4,779.3,357.2,779.8,357.6L779.8,357.6z"/>
	</g>
	<g class="st1">
		<path class="st0" d="M784.7,353.9c0.8,1.1,1.7,2.1,2.5,3.2c0.4,0.5,1.1-0.2,0.7-0.7c-0.8-1.1-1.7-2.1-2.5-3.2
			C785,352.6,784.3,353.3,784.7,353.9L784.7,353.9z"/>
	</g>
	<g class="st1">
		<path class="st0" d="M789.9,350.4c1.1,0.8,2,1.8,2.7,3c0.3,0.6,1.2,0,0.9-0.5c-0.8-1.3-1.8-2.4-3.1-3.4
			C789.8,349.1,789.3,350,789.9,350.4L789.9,350.4z"/>
	</g>
	<g class="st1">
		<path class="st0" d="M795,346c1.1,0.9,1.8,2,2.4,3.3c0.3,0.6,1.1,0.1,0.9-0.5c-0.6-1.4-1.4-2.5-2.5-3.5
			C795.2,344.8,794.5,345.5,795,346L795,346z"/>
	</g>
	<g class="st1">
		<path class="st0" d="M800.1,343.8c0.7,1,1.4,2.1,2.2,3.1c0.4,0.5,1.3,0,0.9-0.5c-0.7-1-1.4-2.1-2.2-3.1
			C800.7,342.7,799.8,343.3,800.1,343.8L800.1,343.8z"/>
	</g>
	<g class="st1">
		<path class="st0" d="M804.9,341.5c0.9,1,1.7,2.1,2.4,3.3c0.3,0.6,1.2,0.1,0.9-0.5c-0.7-1.3-1.5-2.4-2.5-3.5
			C805.2,340.3,804.5,341.1,804.9,341.5L804.9,341.5z"/>
	</g>
	<g class="st1">
		<path class="st0" d="M810.8,337.3c0.8,1.3,1.4,2.7,1.9,4.2c0.2,0.6,1.2,0.4,1-0.3c-0.5-1.6-1.2-3.1-2-4.5
			C811.3,336.2,810.4,336.7,810.8,337.3L810.8,337.3z"/>
	</g>
	<g class="st1">
		<path class="st0" d="M816.5,335.9c0.7,1.5,1.2,3,1.5,4.6c0.1,0.7,1.1,0.4,1-0.3c-0.3-1.7-0.8-3.3-1.6-4.8
			C817.1,334.8,816.2,335.3,816.5,335.9L816.5,335.9z"/>
	</g>
	<g class="st1">
		<path class="st0" d="M823.3,335.5c0.4,0.9,0.5,1.7,0.4,2.6c-0.1,0.7,1,0.7,1,0c0.1-1,0-2-0.4-2.9C824,334.6,823,334.9,823.3,335.5
			L823.3,335.5z"/>
	</g>
	<g class="st1">
		<path class="st0" d="M749.4,323.1c9.5-12.3,23.4-22.1,26.1-38.3c0.1-0.6-0.9-0.9-1-0.3c-2.7,16.1-16.6,25.8-26,38.1
			C748.2,323.1,749,323.6,749.4,323.1L749.4,323.1z"/>
	</g>
	<g class="st1">
		<path class="st0" d="M759.4,302.9c4.1-3.5,7.3-7.7,9.3-12.6c2.2-5.4,2.5-11.5,6.7-16c0.4-0.5-0.3-1.2-0.7-0.7
			c-3.1,3.3-4.1,7.3-5.4,11.6c-1.9,6.8-5.2,12.4-10.6,17C758.1,302.6,758.9,303.3,759.4,302.9L759.4,302.9z"/>
	</g>
	<g class="st1">
		<path class="st0" d="M759.9,293.7c1.1-1.6,2.1-3.1,3.2-4.7c0.4-0.5-0.5-1.1-0.9-0.5c-1.1,1.6-2.1,3.1-3.2,4.7
			C758.6,293.7,759.5,294.2,759.9,293.7L759.9,293.7z"/>
	</g>
	<g class="st1">
		<path class="st0" d="M765.6,282.2c1.6-4.1,3.7-7.9,6.4-11.4c0.4-0.5-0.3-1.3-0.7-0.7c-2.8,3.6-5,7.5-6.7,11.8
			C764.3,282.5,765.3,282.8,765.6,282.2L765.6,282.2z"/>
	</g>
	<g class="st1">
		<path class="st0" d="M782.3,286.6c-4.8,19.3-22.6,31.5-28,50.6c-0.2,0.6,0.8,0.9,1,0.3c5.4-19.1,23.3-31.2,28-50.6
			C783.5,286.2,782.5,286,782.3,286.6L782.3,286.6z"/>
	</g>
	<g class="st1">
		<path class="st0" d="M751.3,347.6c-1,2.3-1.6,4.6-2,7.1c-0.1,0.6,0.9,0.9,1,0.3c0.3-2.4,0.9-4.6,1.9-6.8
			C752.5,347.5,751.6,347,751.3,347.6L751.3,347.6z"/>
	</g>
	<g class="st1">
		<path class="st0" d="M775,317.7c6.2-6.7,11.1-14.3,14.6-22.7c0.3-0.6-0.7-0.9-1-0.3c-3.5,8.2-8.3,15.7-14.3,22.2
			C773.9,317.5,774.6,318.2,775,317.7L775,317.7z"/>
	</g>
	<g class="st1">
		<path class="st0" d="M783.1,320c4.7-5.3,8-11.3,9.8-18.1c0.2-0.6-0.8-0.9-1-0.3c-1.8,6.6-5,12.5-9.6,17.6
			C781.9,319.8,782.6,320.5,783.1,320L783.1,320z"/>
	</g>
	<g class="st1">
		<path class="st0" d="M790.7,320c1.6-2.8,3.2-5.5,4.9-8.3c0.3-0.6-0.6-1.1-0.9-0.5c-1.6,2.8-3.2,5.5-4.9,8.3
			C789.5,320.1,790.3,320.6,790.7,320L790.7,320z"/>
	</g>
	<g class="st1">
		<path class="st0" d="M795.4,322.6c0.8-1,1.5-2,2.3-3c0.4-0.5-0.5-1-0.9-0.5c-0.8,1-1.5,2-2.3,3C794.1,322.6,795,323.1,795.4,322.6
			L795.4,322.6z"/>
	</g>
	<g class="st1">
		<path class="st0" d="M778.3,325.7c-2.3,2.4-3.9,5.2-4.9,8.4c-0.2,0.6,0.8,0.9,1,0.3c0.9-3,2.5-5.6,4.6-7.9
			C779.5,325.9,778.8,325.2,778.3,325.7L778.3,325.7z"/>
	</g>
	<g class="st1">
		<path class="st0" d="M770,322.8c-1.5,2-2.7,4.2-3.5,6.6c-0.2,0.6,0.8,0.9,1,0.3c0.8-2.3,1.9-4.4,3.4-6.3
			C771.3,322.8,770.4,322.3,770,322.8L770,322.8z"/>
	</g>
	<g class="st1">
		<path class="st0" d="M764.6,268.4c-3.4,3.6-6,7.6-8,12.1c-0.3,0.6,0.6,1.1,0.9,0.5c1.9-4.4,4.5-8.4,7.8-11.9
			C765.8,268.7,765,267.9,764.6,268.4L764.6,268.4z"/>
	</g>
	<g class="st1">
		<path class="st0" d="M759.1,266.4c-2.6,2.7-4.6,5.8-6,9.2c-0.3,0.6,0.7,0.9,1,0.3c1.4-3.3,3.3-6.2,5.8-8.8
			C760.3,266.7,759.6,266,759.1,266.4L759.1,266.4z"/>
	</g>
	<g class="st1">
		<path class="st0" d="M755,262.7c-1.6,1.6-2.9,3.5-3.9,5.6c-0.3,0.6,0.6,1.1,0.9,0.5c0.9-2,2.2-3.8,3.8-5.4
			C756.2,262.9,755.5,262.2,755,262.7L755,262.7z"/>
	</g>
	<g class="st1">
		<path class="st0" d="M750.6,259.7c-0.4,0.4-0.8,0.8-1.2,1.2c-0.5,0.5,0.3,1.2,0.7,0.7c0.4-0.4,0.8-0.8,1.2-1.2
			C751.8,260,751.1,259.2,750.6,259.7L750.6,259.7z"/>
	</g>
	<g class="st1">
		<path class="st0" d="M746.4,256.4c-0.6,0.4-1.2,0.8-1.7,1.2c-0.5,0.4,0,1.3,0.5,0.9c0.6-0.4,1.2-0.8,1.7-1.2
			C747.4,257,746.9,256.1,746.4,256.4L746.4,256.4z"/>
	</g>
	<g class="st1">
		<path class="st0" d="M550.7,516.2c-1.9,11.8-6.6,22.6-13.8,32.1c-0.4,0.5,0.5,1,0.9,0.5c7.3-9.6,12-20.4,13.9-32.4
			C551.8,515.8,550.9,515.6,550.7,516.2L550.7,516.2z"/>
	</g>
	<g class="st1">
		<path class="st0" d="M552.9,530c1.8-4.9,3.6-9.9,5.4-14.8c0.2-0.6-0.8-0.9-1-0.3c-1.8,4.9-3.6,9.9-5.4,14.8
			C551.6,530.4,552.6,530.6,552.9,530L552.9,530z"/>
	</g>
	<g class="st1">
		<path class="st0" d="M561.2,506.3c0.2-1.3,0.3-2.6,0.5-3.9c0.1-0.7-1-0.7-1,0c-0.2,1.3-0.3,2.6-0.5,3.9
			C560.1,506.9,561.2,506.9,561.2,506.3L561.2,506.3z"/>
	</g>
	<g class="st1">
		<path class="st0" d="M714.8,392.2c-3.5,9.6-15.4,11.7-20.4,20.3c-0.3,0.6,0.6,1.1,0.9,0.5c5-8.7,16.9-10.7,20.5-20.5
			C716,391.9,715.1,391.6,714.8,392.2L714.8,392.2z"/>
	</g>
	<g class="st1">
		<path class="st0" d="M690.8,421.9c-1.5,3.1-2.5,6.4-3,9.8c-0.1,0.6,0.9,0.9,1,0.3c0.5-3.3,1.4-6.5,2.9-9.5
			C692,421.9,691.1,421.3,690.8,421.9L690.8,421.9z"/>
	</g>
	<g class="st1">
		<path class="st0" d="M697.9,423.3c2.9-9.6,11.1-15.4,19-20.7c0.5-0.4,0-1.3-0.5-0.9c-8.2,5.5-16.5,11.5-19.5,21.3
			C696.7,423.6,697.7,423.9,697.9,423.3L697.9,423.3z"/>
	</g>
	<g class="st1">
		<path class="st0" d="M721.8,399.3c1.1-1.1,2.1-2.3,3.2-3.4c0.5-0.5-0.3-1.2-0.7-0.7c-1.1,1.1-2.1,2.3-3.2,3.4
			C720.6,399.1,721.4,399.8,721.8,399.3L721.8,399.3z"/>
	</g>
	<g class="st1">
		<path class="st0" d="M711.9,416.4c4.3-6.5,11.8-9.8,16.7-15.8c0.4-0.5-0.3-1.2-0.7-0.7c-4.9,6.1-12.5,9.4-16.8,16
			C710.6,416.5,711.5,417,711.9,416.4L711.9,416.4z"/>
	</g>
	<g class="st1">
		<path class="st0" d="M722.8,413.7c2-2.8,4.5-5.2,7.3-7.2c0.5-0.4,0-1.3-0.5-0.9c-2.9,2.2-5.5,4.7-7.6,7.6
			C721.5,413.7,722.4,414.2,722.8,413.7L722.8,413.7z"/>
	</g>
	<g class="st1">
		<path class="st0" d="M707.7,424.6c-5,6.7-6.7,15.4-9.8,23c-3.9,9.4-9.2,17.6-18.5,22.3c-0.6,0.3-0.1,1.2,0.5,0.9
			c6.8-3.5,11.8-8.9,15.5-15.5c5.3-9.5,6.7-21.4,13.2-30.1C709,424.5,708.1,424,707.7,424.6L707.7,424.6z"/>
	</g>
	<g class="st1">
		<path class="st0" d="M717.8,421.8c-7.1,9.3-7.3,21.5-12.8,31.6c-0.3,0.6,0.6,1.1,0.9,0.5c5.6-10.1,5.8-22.3,12.8-31.6
			C719.1,421.8,718.2,421.2,717.8,421.8L717.8,421.8z"/>
	</g>
	<g class="st1">
		<path class="st0" d="M697.6,468.9c-2.9,8.2-10,12.4-16.2,17.7c-5,4.3-8.5,9.6-12,15.1c-0.3,0.6,0.5,1.1,0.9,0.5
			c4.6-7.5,9.8-13.3,16.7-18.8c5.1-4,9.5-8.1,11.7-14.3C698.8,468.5,697.8,468.2,697.6,468.9L697.6,468.9z"/>
	</g>
	<g class="st1">
		<path class="st0" d="M723.7,435.3c-4.7,9.9-8.6,20.1-12.5,30.3c-0.2,0.6,0.8,0.9,1,0.3c3.8-10.1,7.7-20.3,12.4-30.1
			C724.9,435.2,724,434.7,723.7,435.3L723.7,435.3z"/>
	</g>
	<g class="st1">
		<path class="st0" d="M706.7,476.3c-3.6,4.8-7.7,9.1-12.3,12.9c-0.5,0.4,0.2,1.1,0.7,0.7c4.7-3.9,8.8-8.3,12.5-13.1
			C708,476.3,707.1,475.8,706.7,476.3L706.7,476.3z"/>
	</g>
	<g class="st1">
		<path class="st0" d="M717.9,473.2c-1.2,2.2-2.4,4.4-3.5,6.5c-0.3,0.6,0.6,1.1,0.9,0.5c1.2-2.2,2.4-4.4,3.5-6.5
			C719.1,473.1,718.2,472.6,717.9,473.2L717.9,473.2z"/>
	</g>
	<g class="st1">
		<path class="st0" d="M707.5,491.3c-8.3,8.4-16.3,16.9-20.9,27.9c-0.3,0.6,0.7,0.9,1,0.3c4.5-10.8,12.5-19.3,20.6-27.5
			C708.6,491.5,707.9,490.8,707.5,491.3L707.5,491.3z"/>
	</g>
	<g>
		<path class="st0" d="M437.1,256.2c8.1-1.8,17-2.2,23.8-7.3c0.9-0.7,0-2.1-0.9-1.5c-6.7,5-15.5,5.4-23.4,7.1
			C435.6,254.8,436,256.5,437.1,256.2L437.1,256.2z"/>
	</g>
	<g>
		<path class="st0" d="M442.7,122.2c3.6,2.5,3.1,9.9,1.4,13.4c-0.5,1,1,1.9,1.5,0.9c2.1-4.5,2.4-12.6-2.1-15.8
			C442.7,120,441.8,121.5,442.7,122.2L442.7,122.2z"/>
	</g>
	<g>
		<path class="st0" d="M443.1,140.7c-2,7.5-0.2,15.2-2.8,22.7c-0.4,1,1.3,1.5,1.7,0.5c2.6-7.5,0.8-15.2,2.8-22.7
			C445,140,443.4,139.6,443.1,140.7L443.1,140.7z"/>
	</g>
	<g>
		<path class="st0" d="M441.5,169.4c3.6,5.8,12.9,6.1,19,5.8c1.1-0.1,1.1-1.8,0-1.7c-5.3,0.2-14.3,0.1-17.5-5
			C442.4,167.6,440.9,168.4,441.5,169.4L441.5,169.4z"/>
	</g>
	<g>
		<path class="st0" d="M475.6,168.4c6.3-3.6,11.9,0.8,17.6,3.3c4.5,2,10.3,2.3,13.1,6.9c0.6,0.9,2.1,0.1,1.5-0.9
			c-3.6-5.8-11.9-6.8-17.7-9.5c-5.1-2.5-10.1-4.3-15.4-1.3C473.8,167.4,474.7,168.9,475.6,168.4L475.6,168.4z"/>
	</g>
	<g>
		<path class="st0" d="M465.3,193.3c1.6,0.6,3.6,0.7,5.2,0.1c1.9-0.7,3.3-2.6,4.6-3.9c0.8-0.8-0.4-2-1.2-1.2
			c-1.1,1.1-2.4,2.8-3.8,3.4c-1.4,0.6-3,0.4-4.4-0.1C464.8,191.2,464.3,192.9,465.3,193.3L465.3,193.3z"/>
	</g>
	<g>
		<path class="st0" d="M462.3,185.6c0.8,0.4,2.1-0.1,2.9-0.3c1.8-0.5,3.5-1.2,5-2.1c0.9-0.6,0.1-2.1-0.9-1.5
			c-1.2,0.8-2.5,1.3-3.9,1.8c-0.5,0.2-1,0.3-1.5,0.4c-0.2,0-0.4,0.1-0.6,0.1s-0.5-0.1-0.1,0.1C462.2,183.6,461.3,185.1,462.3,185.6
			L462.3,185.6z"/>
	</g>
	<g>
		<path class="st0" d="M467.8,202.5c1.5-1.3,2.8-2.5,4.9-2.9c1.8-0.4,3.6-0.3,5.4-0.6c2.3-0.4,4.2-1.1,5.6-3.1
			c0.6-0.9-0.9-1.8-1.5-0.9c-2,2.9-6.4,2.3-9.4,2.8c-2.7,0.5-4.1,1.7-6.1,3.5C465.7,202,466.9,203.2,467.8,202.5L467.8,202.5z"/>
	</g>
	<g>
		<path class="st0" d="M456.5,213.1c-0.5,4.3,0.8,9.2,3.7,12.3c4.7,4.9,12.4,4.4,16.6,9.6c0.7,0.9,1.9-0.4,1.2-1.2
			c-3.1-3.8-7.6-4.4-11.8-6.3c-5.7-2.6-8.8-8.1-8.1-14.3C458.3,212,456.6,212,456.5,213.1L456.5,213.1z"/>
	</g>
	<g>
		<path class="st0" d="M436.3,123.3c1.2-3.5,0.6-6.2,0.7-9.7c0.1-2.8,1.1-6.2,2.4-8.7c0.5-1-1-1.8-1.5-0.9c-1.2,2.4-2.1,5.2-2.5,7.9
			c-0.6,3.8,0.5,7.1-0.8,10.9C434.3,123.9,435.9,124.4,436.3,123.3L436.3,123.3z"/>
	</g>
	<g>
		<path class="st0" d="M440.2,100c0.2-11.1,0.5-20.7,7.7-29.9c0.7-0.9-0.5-2.1-1.2-1.2c-3.2,4-5.9,8.9-7.3,13.9
			c-1.5,5.4-0.9,11.6-0.9,17.2C438.5,101.1,440.2,101.1,440.2,100L440.2,100z"/>
	</g>
	<g>
		<path class="st0" d="M538.4,106c5.1,4.5,10.7,9.1,17.8,6.5c7.5-2.8,11.6-10.4,13.9-17.6c0.3-1.1-1.3-1.5-1.7-0.5
			c-2.1,6.4-5.6,13.3-12.1,16c-6.8,2.8-11.8-1.4-16.7-5.7C538.8,104,537.6,105.2,538.4,106L538.4,106z"/>
	</g>
	<g>
		<path class="st0" d="M536.5,100.9c8.1,3.3,15.9-0.6,21.4-7c4.2-4.9,6.4-10.9,11-15.6c9.9-10.2,24.5-10.1,33,2.3
			c0.6,0.9,2.1,0,1.5-0.9c-6.1-8.8-14.9-13.4-25.5-9.6c-15.6,5.7-21.8,36.9-40.9,29.1C535.9,98.9,535.5,100.5,536.5,100.9
			L536.5,100.9z"/>
	</g>
	<g>
		<path class="st0" d="M534.3,94.5c5-1.1,9-4.4,12.5-8.1c4-4.2,6.9-10,11.8-13.2c0.9-0.6,0.1-2.1-0.9-1.5
			c-9.1,5.8-12.2,18.5-23.8,21C532.8,93.1,533.2,94.7,534.3,94.5L534.3,94.5z"/>
	</g>
	<g>
		<path class="st0" d="M563.2,70c11.2-8,27.8-11.8,36.9,1.4c0.6,0.9,2.1,0,1.5-0.9c-9.7-13.9-27.2-10.7-39.3-2
			C561.5,69.2,562.3,70.7,563.2,70L563.2,70z"/>
	</g>
	<g>
		<path class="st0" d="M551.1,113.5c6.8,2,14.4,1.7,21-1c8.6-3.6,15.7-23.7,27.1-13.5c0.8,0.7,2-0.5,1.2-1.2
			c-4.7-4.3-10-4.6-15.2-0.6c-3.7,2.9-5.3,7.6-8.8,10.7c-6.3,5.7-17.1,6.3-24.9,4C550.5,111.5,550,113.2,551.1,113.5L551.1,113.5z"
			/>
	</g>
	<g>
		<path class="st0" d="M557,121.2c0.3,3.6-0.7,7-3.1,9.8c-0.7,0.8,0.5,2.1,1.2,1.2c2.6-3.1,3.9-6.9,3.6-11
			C558.6,120.1,556.9,120.1,557,121.2L557,121.2z"/>
	</g>
	<g>
		<path class="st0" d="M564.1,131.7c4.9-3.2,7.9-8.2,8.5-14c0.1-1.1-1.6-1.1-1.7,0c-0.5,5.2-3.3,9.7-7.7,12.5
			C562.3,130.8,563.2,132.3,564.1,131.7L564.1,131.7z"/>
	</g>
	<g>
		<path class="st0" d="M560.4,140.4c0.9,1.8,2.6,3.1,4.7,2.9c1-0.1,1.8-0.6,2.7-1c2.1-1,3.8-1.2,6.1-1.1c1.1,0.1,1.1-1.7,0-1.7
			c-1.8-0.1-3.6-0.1-5.3,0.5c-2.4,0.9-5,3.1-6.7-0.4C561.4,138.5,559.9,139.4,560.4,140.4L560.4,140.4z"/>
	</g>
	<g>
		<path class="st0" d="M580.5,139.1c1.5-2.3,2.5-4.9,2.9-7.6c0.1-1.1-1.5-1.5-1.7-0.5c-0.4,2.6-1.3,5-2.7,7.2
			C578.4,139.1,579.9,140,580.5,139.1L580.5,139.1z"/>
	</g>
	<g>
		<path class="st0" d="M597.4,120.1c0,8-4,17.3-8.8,23.5c-4.2,5.4-12,13.5-19.1,14.4c-1.1,0.1-1.1,1.9,0,1.7c7.4-1,15.1-8.6,19.6-14
			c5.6-6.6,10-16.9,10-25.6C599.2,119,597.4,119,597.4,120.1L597.4,120.1z"/>
	</g>
	<g>
		<path class="st0" d="M565.2,157.7c-3.4-0.2-6.4-1.6-8.9-4.1c-0.8-0.8-2,0.4-1.2,1.2c2.7,2.7,6.2,4.3,10.1,4.6
			C566.3,159.5,566.3,157.8,565.2,157.7L565.2,157.7z"/>
	</g>
	<g>
		<path class="st0" d="M555.1,153.7c-2.9,3.4-4.3,10.3-2.1,14.4c1.6,2.9,5.3,4.2,8.3,5.2c6.3,2.1,13.6,2.8,16.8,9.5
			c0.5,1,2,0.1,1.5-0.9c-2.6-5.4-7.8-7.5-13.3-9c-4.3-1.2-11-2.2-12.3-7.3c-0.8-3.3,0.2-8.2,2.3-10.6
			C557,154.1,555.8,152.8,555.1,153.7L555.1,153.7z"/>
	</g>
	<g>
		<path class="st0" d="M580.7,184.8c3.7,0.7,6-0.4,9.1-2.2c4.6-2.6,10.3,1.7,11.2,6.6c0.2,1.1,1.8,0.6,1.7-0.5
			c-0.7-4.2-4.6-7.7-8.6-8.7c-1.4-0.3-2.5-0.2-3.8,0.4c-3.2,1.5-5.1,3.5-9,2.8C580.1,183,579.6,184.6,580.7,184.8L580.7,184.8z"/>
	</g>
	<g>
		<path class="st0" d="M528.5,75.7c3-2.1,5.3-4.6,8.7-5.9c3.3-1.3,6.9-1.7,10.5-1.8c1.1,0,1.1-1.7,0-1.7c-3.7,0.1-7.4,0.6-10.9,1.9
			c-3.7,1.4-6,3.9-9.1,6.1C526.7,74.8,527.5,76.3,528.5,75.7L528.5,75.7z"/>
	</g>
	<g>
		<path class="st0" d="M524.7,64.5c0.4-13.2,15-27.1,28-27.7c1.1-0.1,1.1-1.8,0-1.7c-14,0.7-29.3,15.2-29.7,29.4
			C523,65.6,524.7,65.6,524.7,64.5L524.7,64.5z"/>
	</g>
	<g>
		<path class="st0" d="M470.4,54.4c5.6,1.3,11.6,0.9,14.9-4.3c2.6-4,9.9-15.5,13.3-5.6c0.7,1.9,0.7,4.1,1.4,6c0.4,1,2,0.6,1.7-0.5
			c-1.2-3.5-1-10.3-5.6-11.4c-3.1-0.7-6.5,2.1-8.3,4.1c-1.3,1.5-2.1,3.2-3.1,4.8c-3.3,5.4-7.6,6.6-13.9,5.1
			C469.8,52.5,469.3,54.1,470.4,54.4L470.4,54.4z"/>
	</g>
	<g>
		<path class="st0" d="M447.7,70.2c9.6-4.7,14.2-16.1,6-24.4c-0.8-0.8-2,0.4-1.2,1.2c7.5,7.6,2.9,17.5-5.6,21.7
			C445.9,69.2,446.7,70.7,447.7,70.2L447.7,70.2z"/>
	</g>
	<g>
		<path class="st0" d="M434.4,52c-0.9,2.6-0.8,5.2,0.3,7.7c1.3,3,4,4.7,6.4,6.7c0.9,0.7,2.1-0.5,1.2-1.2c-4.2-3.4-8.2-6.8-6.2-12.7
			C436.4,51.4,434.7,51,434.4,52L434.4,52z"/>
	</g>
	<g>
		<path class="st0" d="M437.8,43c2.9-2.2,7.9-1.2,10.5,0.9c0.9,0.7,2.1-0.5,1.2-1.2c-3.2-2.6-9-3.8-12.6-1.2
			C436.1,42.1,436.9,43.6,437.8,43L437.8,43z"/>
	</g>
	<g>
		<path class="st0" d="M441.7,37.5c2.7-1.3,5.7-1.5,8.6-0.5c1,0.4,1.5-1.3,0.5-1.7c-3.3-1.1-6.7-0.9-9.9,0.7
			C439.9,36.5,440.7,37.9,441.7,37.5L441.7,37.5z"/>
	</g>
	<g>
		<path class="st0" d="M428.4,78.1c2.5-2.5,6.2-2.7,9-0.3c0.8,0.7,2.1-0.5,1.2-1.2c-3.4-2.9-8.1-2.8-11.4,0.3
			C426.4,77.7,427.6,78.9,428.4,78.1L428.4,78.1z"/>
	</g>
	<g>
		<path class="st0" d="M428.5,73.5c2.4-3.9,6.8-5.3,11-3.6c1,0.4,1.5-1.2,0.5-1.7c-4.9-2-10.2-0.2-12.9,4.4
			C426.5,73.6,427.9,74.4,428.5,73.5L428.5,73.5z"/>
	</g>
	<g>
		<path class="st0" d="M517.4,40.2c5.4-0.3,7.7-4.7,10.9-8.5c11-12.9,27.8-7.8,37.5,3.8c0.7,0.9,1.9-0.4,1.2-1.2
			c-6-7.2-14.9-13-24.6-12.3c-4.7,0.3-8.9,2.2-12.4,5.3c-3.8,3.4-6.7,10.9-12.6,11.1C516.3,38.6,516.3,40.3,517.4,40.2L517.4,40.2z"
			/>
	</g>
	<g>
		<path class="st0" d="M492,16.3c7.2-7.6,17.1-11.2,27.6-9.7c1.1,0.2,1.5-1.5,0.5-1.7c-11-1.6-21.6,2-29.2,10.1
			C490.1,15.9,491.3,17.1,492,16.3L492,16.3z"/>
	</g>
	<g>
		<path class="st0" d="M498.8,51.2c4.4,1.5,10.3,2.1,14.7,0.4c5.7-2.3,9.1-3.9,15.6-1.7c1,0.4,1.5-1.3,0.5-1.7
			c-4.3-1.4-8.6-1.9-12.8-0.2c-6,2.4-10.9,3.8-17.4,1.6C498.2,49.2,497.7,50.9,498.8,51.2L498.8,51.2z"/>
	</g>
	<g>
		<path class="st0" d="M576.1,110c4.4,4.5,10.1,7.8,16.3,9.5c8,2.2,16.1-2.4,23.6,0.1c1,0.4,1.5-1.3,0.5-1.7
			c-6.2-2.1-11.3,1-17.5,0.9c-7.9-0.1-16.2-4.5-21.6-10C576.5,108,575.3,109.3,576.1,110L576.1,110z"/>
	</g>
	<g>
		<path class="st0" d="M595.6,83.3c4.5,0.8,8.3,3.4,10.9,7.1c1.8,2.6,1.7,5,2.5,8c1.2,4.3,3.8,10.4,8.9,10.8c1.1,0.1,1.1-1.6,0-1.7
			c-7.6-0.7-6.3-12-9-16.7c-2.7-4.7-7.4-8.2-12.8-9.1C595,81.4,594.5,83.1,595.6,83.3L595.6,83.3z"/>
	</g>
	<g>
		<path class="st0" d="M575.8,98c3.1-7,8.3-13.6,16.5-14.1c1.1-0.1,1.1-1.8,0-1.7c-8.9,0.6-14.6,7.3-18,15
			C573.9,98.1,575.3,99,575.8,98L575.8,98z"/>
	</g>
	<g>
		<path class="st0" d="M575.3,88.3c1.5-3.1,3.2-6.6,6.8-7.7c1.1-0.3,0.6-2-0.5-1.7c-4.1,1.3-6.1,4.9-7.9,8.5
			C573.3,88.4,574.8,89.3,575.3,88.3L575.3,88.3z"/>
	</g>
	<g>
		<path class="st0" d="M544.9,159.1c-1.1,5.3-0.6,11.1,4.2,14.4c0.9,0.6,1.8-0.9,0.9-1.5c-4.2-2.8-4.4-8-3.5-12.4
			C546.8,158.4,545.2,158,544.9,159.1L544.9,159.1z"/>
	</g>
	<g>
		<path class="st0" d="M519.5,166c1.7,5.9,8.6,8.2,13.9,9c1.1,0.2,1.5-1.5,0.5-1.7c-4.7-0.7-11.2-2.5-12.7-7.8
			C520.9,164.5,519.2,164.9,519.5,166L519.5,166z"/>
	</g>
	<g>
		<path class="st0" d="M541.7,176.1c4.4,1.4,7.5,3.6,10.1,7.4c1.3,1.9,2.4,3.9,4.2,5.4c3.3,2.8,7.5,3.6,11.7,2.9
			c1.1-0.2,0.6-1.8-0.5-1.7c-8.4,1.3-11.1-4.2-15.6-9.8c-2.5-3.1-5.8-4.8-9.5-6C541.1,174.1,540.7,175.8,541.7,176.1L541.7,176.1z"
			/>
	</g>
	<g>
		<path class="st0" d="M477.6,180.5c0.2,4.8,2.7,9,6.7,11.7c3.7,2.5,9.8,2.8,12.4,6.7c0.6,0.9,2.1,0.1,1.5-0.9
			c-1.8-2.7-5-3.8-7.9-4.9c-5.7-2.3-10.7-5.8-11-12.6C479.3,179.4,477.6,179.4,477.6,180.5L477.6,180.5z"/>
	</g>
	<g>
		<path class="st0" d="M489.7,180.7c1,6.3,2.7,15,8.1,19.2c1.9,1.4,4.7,2.6,7.1,3.1c2,0.4,7.3-0.7,8.5,0.9c0.7,0.9,2.2,0,1.5-0.9
			c-2.2-2.8-8-1.2-11-2.2c-9-2.9-11.2-12.2-12.6-20.6C491.2,179.2,489.5,179.7,489.7,180.7L489.7,180.7z"/>
	</g>
	<g>
		<path class="st0" d="M503,191.4c3.6,5.8,7.6,11.9,14.1,14.7c7.7,3.3,13.7-2.9,21.1-0.7c1.1,0.3,1.5-1.3,0.5-1.7
			c-5.7-1.7-9.4,1.5-14.9,1.7c-9.3,0.3-14.8-7.8-19.2-14.9C503.9,189.6,502.4,190.5,503,191.4L503,191.4z"/>
	</g>
	<g>
		<path class="st0" d="M514.6,191.8c4.4,5.6,10.1,2.5,16,2c7.4-0.7,13.4,5,18.2,10.2c0.8,0.8,2-0.4,1.2-1.2c-3.4-3.6-7.6-7.4-12-9.7
			c-7-3.6-16.9,4.3-22.2-2.4C515.1,189.7,513.9,190.9,514.6,191.8L514.6,191.8z"/>
	</g>
	<g>
		<path class="st0" d="M507.6,181.6c0.9,2.4,2.4,4.7,3.8,6.8c0.6,0.9,2.1,0,1.5-0.9c-1.3-1.9-2.8-4.1-3.6-6.4
			C508.9,180.1,507.3,180.6,507.6,181.6L507.6,181.6z"/>
	</g>
	<g>
		<path class="st0" d="M452,193.2c-0.5,5.7-0.5,12.8,3.1,17.7c1.5,2,3.7,3.3,5.8,4.6c4.6,2.6,8.8,4.9,13.2,7.8
			c3.7,2.5,8.4,3.8,12.9,4.1c2.2,0.2,3.9,0,6-0.4c2.2-0.5,4.7-2.1,6.9-2.7c5.2-1.3,8.5-0.8,13.6,1.1c1,0.4,1.5-1.3,0.5-1.7
			c-4.4-1.7-8.6-3.1-13.4-2.1c-6.8,1.4-11.3,5.1-18.7,3c-5.4-1.5-9.6-5.6-14.4-8.5c-4.5-2.7-2-0.4-7.4-4.5c-6.6-4.9-7-10.5-6.3-18.6
			C453.8,192.1,452.1,192.1,452,193.2L452,193.2z"/>
	</g>
	<g>
		<path class="st0" d="M482.5,236.4c7.6,1.2,14.6,6.5,22.4,6.8c5.3,0.2,11.1-1.9,16.1-3.4c1.1-0.3,0.6-2-0.5-1.7
			c-5.1,1.5-10.9,3.7-16.2,3.2c-7.4-0.6-14-5.5-21.3-6.7C481.9,234.5,481.4,236.2,482.5,236.4L482.5,236.4z"/>
	</g>
	<g>
		<path class="st0" d="M529.9,263.7c2-8.9,9.1-15.3,18.3-15.4c4.4-0.1,8.3,0.9,12.3-1.3c1-0.5,0.1-2-0.9-1.5
			c-4.3,2.5-8.8,0.8-13.4,1.2c-2.7,0.2-5.4,1.1-7.8,2.4c-5.5,3-8.9,8.2-10.2,14.2C528,264.3,529.7,264.8,529.9,263.7L529.9,263.7z"
			/>
	</g>
	<g>
		<path class="st0" d="M528.7,234.2c10.7-6.6,20.7-4.8,32.2-2.5c3.8,0.8,7.5,1.7,11.3,0.7c10.6-2.5,15.8-13.5,23.5-19.8
			c0.9-0.7-0.4-1.9-1.2-1.2c-12,9.8-16.2,22-34.7,18.4c-11.6-2.3-21.6-3.4-32.1,3C526.9,233.3,527.7,234.8,528.7,234.2L528.7,234.2z
			"/>
	</g>
	<g>
		<path class="st0" d="M601.5,212.2c4-0.1,7.7,0.9,11.1,3.1c0.9,0.6,1.8-0.9,0.9-1.5c-3.6-2.3-7.7-3.5-11.9-3.4
			C600.4,210.5,600.4,212.2,601.5,212.2L601.5,212.2z"/>
	</g>
	<g>
		<path class="st0" d="M479,240.7c1.7,2.7,4.6,4.3,7.8,4.3c1.1,0,1.1-1.7,0-1.7c-2.6,0-4.9-1.2-6.3-3.4
			C479.9,238.9,478.4,239.8,479,240.7L479,240.7z"/>
	</g>
	<g>
		<path class="st0" d="M497.3,266.1c11.5,3,13.8-5.3,19.2-13.8c3.9-6.1,8.5-13.7,16.6-14.9c5.2-0.8,11.9,1.8,17.2,2.5
			c4.2,0.6,6.9,0.5,10.8-1.4c1-0.5,0.1-2-0.9-1.5c-10.6,5.1-23.3-5.5-33.5,0.8c-9.4,5.8-15.4,30-28.8,26.5
			C496.7,264.1,496.2,265.8,497.3,266.1L497.3,266.1z"/>
	</g>
	<g>
		<path class="st0" d="M476.5,307c5.9-1.2,11-3.6,15.9-7.2c6.3-4.6,11.6-10.2,19.8-10.9c1.1-0.1,1.1-1.8,0-1.7
			c-14.1,1.1-22.3,15.4-36.2,18.1C475,305.5,475.4,307.2,476.5,307L476.5,307z"/>
	</g>
	<g>
		<path class="st0" d="M501.7,307.8c3.1-2.3,5-6,7.4-9c3.3-4.1,7.3-7.6,12.7-8.2c1.1-0.1,1.1-1.8,0-1.7c-4,0.4-7.4,2.1-10.3,4.8
			c-4,3.6-6.3,9.4-10.7,12.6C500,307,500.8,308.5,501.7,307.8L501.7,307.8z"/>
	</g>
	<g>
		<path class="st0" d="M475.7,306.7c5.8,6.9,15.7,11.7,25,10.9c15.2-1.4,18.8-22.5,35.8-17.4c1.1,0.3,1.5-1.3,0.5-1.7
			c-9.6-2.9-15.1,0.9-21.3,7.7c-5,5.3-9.7,10-17.7,9.7s-16-4.6-21-10.5C476.2,304.7,475,305.9,475.7,306.7L475.7,306.7z"/>
	</g>
	<g>
		<path class="st0" d="M508.7,314.8c7.8-5.1,23.6-12.4,31.4-4.1c0.8,0.8,2-0.4,1.2-1.2c-8.5-9.1-24.8-1.9-33.4,3.8
			C506.9,313.9,507.8,315.4,508.7,314.8L508.7,314.8z"/>
	</g>
	<g>
		<path class="st0" d="M456,291.1c0.9,9.7,10.8,16.7,20.3,15.9c1.1-0.1,1.1-1.8,0-1.7c-8.4,0.7-17.7-5.4-18.6-14.2
			C457.6,290,455.9,290,456,291.1L456,291.1z"/>
	</g>
	<g>
		<path class="st0" d="M457.3,271.9c2-2.5,4.2-4.8,6.5-7c2.5-2.3,5.4-5,8.8-5.8c1.1-0.3,0.6-1.9-0.5-1.7c-3.1,0.8-5.6,2.9-7.9,4.9
			c-3,2.5-5.7,5.3-8.2,8.3C455.4,271.5,456.6,272.7,457.3,271.9L457.3,271.9z"/>
	</g>
	<g>
		<path class="st0" d="M477.1,258.7c6.5,1.2,13.5,2.1,20,0.6c5.4-1.2,6.6-5.5,11.2-7.5c1-0.5,0.1-1.9-0.9-1.5
			c-4.2,1.9-5.5,5.9-10,7.2c-6.3,1.7-13.5,0.8-19.8-0.4C476.5,256.8,476,258.5,477.1,258.7L477.1,258.7z"/>
	</g>
	<g>
		<path class="st0" d="M517,279.5c2,1.8,5.5,1.8,7.8,0.7c3.1-1.5,4.8-6.6,5.5-9.7c0.3-1.1-1.4-1.5-1.7-0.5c-0.6,2.6-1.8,6.5-4,8.2
			c-1.6,1.2-4.9,1.4-6.5,0C517.4,277.5,516.2,278.8,517,279.5L517,279.5z"/>
	</g>
	<g>
		<path class="st0" d="M586.5,250.6c3.3-3.3,7.3-6.6,11.9-8.1c5.7-1.9,10.5,1,15,4c0.9,0.6,1.8-0.9,0.9-1.5c-4.4-2.9-9-5.8-14.4-4.7
			c-5.5,1.1-10.6,5.2-14.5,9.1C584.5,250.2,585.7,251.4,586.5,250.6L586.5,250.6z"/>
	</g>
	<g>
		<path class="st0" d="M569.2,244.2c9.7-1.9,18.7-13.3,28.8-11.6c10.5,1.8,16.5,7.6,26.9,1.3c0.9-0.6,0.1-2.1-0.9-1.5
			c-12.6,7.7-19.4-4-31-1.5c-8.7,1.9-15.4,9.9-24.3,11.6C567.7,242.8,568.1,244.5,569.2,244.2L569.2,244.2z"/>
	</g>
	<g>
		<path class="st0" d="M587.9,220.6c9-2.8,15.4,2.6,24,2.1c8.3-0.5,14.2-5.6,18.8-12.1c0.6-0.9-0.8-1.8-1.5-0.9
			c-6.5,9.3-15.4,13.3-26.2,9.8c-5.2-1.7-10.3-2.2-15.6-0.5C586.4,219.3,586.8,220.9,587.9,220.6L587.9,220.6z"/>
	</g>
	<g>
		<path class="st0" d="M592.3,202.4c10.8-7.8,18.4-0.6,26.5,5.9c3.8,3.1,8.2,4.4,12.6,1.7c0.9-0.6,0.1-2.1-0.9-1.5
			c-7.6,4.8-15.1-7.2-22-9.9c-6.1-2.5-11.8-1.5-17.1,2.3C590.6,201.6,591.4,203.1,592.3,202.4L592.3,202.4z"/>
	</g>
	<g>
		<path class="st0" d="M578.3,205.2c6.5-12,19-17.9,32.5-13.6c7.3,2.4,10.9,8.9,17.2,12.6c1,0.6,1.8-0.9,0.9-1.5
			c-4.7-2.8-7.8-7.7-12.5-10.5c-4.4-2.7-9.9-3.6-15-3.6c-10.9,0.1-19.4,6.3-24.5,15.7C576.3,205.3,577.8,206.2,578.3,205.2
			L578.3,205.2z"/>
	</g>
	<g>
		<path class="st0" d="M537.6,290.8c2.9-0.8,5.7-2.1,8-4.1c3.9-3.4,7.2-7.9,13.1-6.5c1.1,0.2,1.5-1.4,0.5-1.7
			c-9.4-2.2-13.8,8.5-22,10.7C536.1,289.4,536.5,291.1,537.6,290.8L537.6,290.8z"/>
	</g>
	<g>
		<path class="st0" d="M531,288c6.4-2.7,9.1-9.7,15.2-12.4c6-2.7,15.6-0.4,20.7,3.3c0.9,0.6,1.8-0.8,0.9-1.5
			c-5.2-3.7-13-5.3-19.3-4.1c-7.6,1.4-10.8,10.2-17.8,13.1C529.5,286.8,529.9,288.5,531,288L531,288z"/>
	</g>
	<g>
		<path class="st0" d="M517.9,288c6.6-1.2,13.1-0.1,19,3.2c5,2.8,7.4,7.6,10.7,12c3.5,4.5,7.5,7.1,13.2,6.1c1.1-0.2,0.6-1.8-0.5-1.7
			c-10.6,1.8-14.5-13.3-22.6-17.9c-6.3-3.6-13.2-4.7-20.3-3.4C516.4,286.5,516.8,288.2,517.9,288L517.9,288z"/>
	</g>
	<g>
		<path class="st0" d="M543.7,313.7c3.6,4.3,9.5,5.7,14.7,3.7c1-0.4,0.6-2.1-0.5-1.7c-4.7,1.9-9.8,0.6-13-3.2
			C544.2,311.6,543,312.8,543.7,313.7L543.7,313.7z"/>
	</g>
	<g>
		<path class="st0" d="M461,292.8c4.8,4.5,10.5,6.9,17.1,5.9c7.2-1,11.2-7.6,18.1-9c1.1-0.2,0.6-1.9-0.5-1.7c-5.8,1.1-8.8,5.8-14,8
			c-6.9,2.9-14.4,0.5-19.6-4.5C461.4,290.8,460.2,292,461,292.8L461,292.8z"/>
	</g>
	<g>
		<path class="st0" d="M471,291.3c3.6-0.1,6.1-2.2,8.6-4.5c4.7-4.3,8.8-7.8,15.2-9.1c1.1-0.2,0.6-1.9-0.5-1.7
			c-4.8,1-8.7,3.1-12.4,6.2c-3.3,2.8-6.4,7.2-11,7.3C469.9,289.6,469.9,291.3,471,291.3L471,291.3z"/>
	</g>
	<g>
		<path class="st0" d="M453.2,274.4c-1.9,2.8-2.8,6.2-3.1,9.5c-0.2,2.1-0.1,3.5,1.3,4.9s3.3,2.4,5.4,2c3.3-0.7,4.4-4,6.5-6.2
			c0.7-0.8-0.5-2-1.2-1.2c-1.5,1.6-2.3,4-4.3,5.2c-1.9,1.2-4.1,0.5-5.4-1.2c-1-1.3-0.7-3.2-0.4-4.8c0.4-2.6,1.2-5.2,2.7-7.4
			C455.3,274.4,453.8,273.5,453.2,274.4L453.2,274.4z"/>
	</g>
	<g>
		<path class="st0" d="M479.1,245.7c-4.4-2.2-4.4-8.6-10.3-9c-3.5-0.3-6,0.9-7.2,4.1c-2.6,7.3-3.1,15.8,3.5,21.1
			c0.9,0.7,2.1-0.5,1.2-1.2c-5.6-4.4-5.1-10.2-3.8-16.5c0.2-1.1,0.4-2.4,0.9-3.4c1.9-3.5,6.6-2.9,9.1-0.6c2.4,2.2,2.7,5.5,5.7,7
			C479.3,247.7,480.1,246.2,479.1,245.7L479.1,245.7z"/>
	</g>
	<g>
		<path class="st0" d="M462.1,247.5c6.3-2.6,8.4,1.8,13,4.4c3.7,2,7.7,1.5,11.3-0.5c1-0.6,0.1-2-0.9-1.5c-3.5,2-7.6,2.2-10.9-0.4
			c-0.9-0.7-1.7-1.7-2.7-2.4c-3.2-2.3-6.7-2.7-10.3-1.2C460.6,246.2,461,247.9,462.1,247.5L462.1,247.5z"/>
	</g>
	<g>
		<path class="st0" d="M458.8,168.6c2.7-1.3,8-3.9,10.9-2.2c0.9,0.6,1.8-0.9,0.9-1.5c-3.7-2.2-9.2,0.5-12.7,2.2
			C456.9,167.6,457.8,169.1,458.8,168.6L458.8,168.6z"/>
	</g>
	<g>
		<path class="st0" d="M470.8,154.6c4.7-0.6,8.4,3.5,7.1,8.1c-0.3,1.1,1.4,1.5,1.7,0.5c1.6-5.6-2.9-11.1-8.8-10.3
			C469.8,153,469.8,154.8,470.8,154.6L470.8,154.6z"/>
	</g>
	<g>
		<path class="st0" d="M456.5,123.6c-0.1,1.7-0.4,3.3-1.1,4.8c-0.5,1,1,1.9,1.5,0.9c0.8-1.8,1.3-3.7,1.4-5.7
			C458.3,122.5,456.6,122.5,456.5,123.6L456.5,123.6z"/>
	</g>
	<g>
		<path class="st0" d="M473.4,122.1c2.8-7.2,15.5-5.1,21.3-4.4c1.1,0.1,1.5-1.5,0.5-1.7c-6.9-1-20.1-2.9-23.4,5.5
			C471.3,122.6,473,123.1,473.4,122.1L473.4,122.1z"/>
	</g>
	<g>
		<path class="st0" d="M471.5,116.4c1.8-1.8,4-4.7,7-3.9c1.1,0.3,1.5-1.4,0.5-1.7c-3.7-1-6.3,2-8.6,4.3
			C469.5,116,470.7,117.2,471.5,116.4L471.5,116.4z"/>
	</g>
	<g>
		<path class="st0" d="M475.2,119.2c0,3.1,1.2,5.9,3.4,8c0.8,0.8,2-0.4,1.2-1.2c-1.9-1.8-2.9-4.2-2.9-6.8
			C476.9,118.1,475.2,118.1,475.2,119.2L475.2,119.2z"/>
	</g>
	<g>
		<path class="st0" d="M477.9,128.7c3-1,5.8-2.2,8.7-3.6c1-0.5,0.1-2-0.9-1.5c-2.7,1.3-5.4,2.5-8.2,3.4
			C476.4,127.5,476.8,129.1,477.9,128.7L477.9,128.7z"/>
	</g>
	<g>
		<path class="st0" d="M475.9,131c-0.1,0.7,0,1.3,0.2,2c0.4,1,2,0.6,1.7-0.5c-0.2-0.5-0.2-1-0.2-1.5C477.7,129.9,476,130,475.9,131
			L475.9,131z"/>
	</g>
	<g>
		<path class="st0" d="M464.8,110.8c1.4-1.5,2.7-2.9,4.4-4c2.4-1.5,4.6-1.5,7.3-2.4c1-0.4,0.9-0.7,1.7-1c7.4-3.5,14.4-0.2,22.4,0.4
			c1.1,0.1,1.1-1.6,0-1.7c-6-0.4-17.1-5.2-22.9-1.4c-0.9,0.6-0.5,1.4-1.8,2.1c-0.6,0.3-3.1,0.2-4,0.5c-3.3,1.1-5.9,3.9-8.2,6.4
			C462.8,110.3,464,111.6,464.8,110.8L464.8,110.8z"/>
	</g>
	<g>
		<path class="st0" d="M458.3,110.3c0.2-0.2-0.5,0.1-0.6,0.1c-0.4,0.1-0.8,0.2-1.2,0.3c-0.4,0.1-1.5,0.4-1.8,0.3
			c0.2,0.2,0.4,0.4,0.6,0.6c-0.1-0.4,0.4-1.7,0.6-2.2c0.3-1,1.1-1.2,2.1-1.6c1.9-0.6,4.1-0.6,5.4-2.3c0.7-0.9-0.8-1.7-1.5-0.9
			c-0.7,0.9-2.3,1-3.3,1.2c-1,0.3-2,0.6-2.9,1c-1.4,0.8-1.7,2.3-2,3.8c-0.3,1.4,0.2,2.1,1.6,1.8c1.2-0.2,3.1-0.4,4.1-1.2
			C460.4,110.8,459.2,109.6,458.3,110.3L458.3,110.3z"/>
	</g>
	<g>
		<path class="st0" d="M465.3,103.4c1.1,0,1.1-1.7,0-1.7S464.2,103.4,465.3,103.4L465.3,103.4z"/>
	</g>
	<g>
		<path class="st0" d="M469.1,101.5c0.2-2.4,2.7-1.7,4.3-2.4c1.3-0.5,2.4-1.7,3.9-1.6c1.1,0.1,1.1-1.6,0-1.7
			c-0.9-0.1-1.8,0.2-2.6,0.6c-0.6,0.3-1.1,0.7-1.7,1c-0.8,0.4-1.5,0.4-2.3,0.5c-2,0.2-3.2,1.7-3.4,3.7
			C467.3,102.6,469.1,102.6,469.1,101.5L469.1,101.5z"/>
	</g>
	<g>
		<path class="st0" d="M480.5,95.2c1.8-0.4,2.6,0.1,4.1,0.8c0.2,0.1,0.3,0.4,0.6,0.5c1.2,0.2,2.1-0.5,3.4-0.2
			c3.6,0.8,5.9,4.1,9.8,4.1c1.1,0,1.1-1.7,0-1.7c-4.3,0-7.1-4.1-11.3-4.1c-1.6,0-1.9-0.6-3.2-1.1c-1.2-0.4-2.6-0.1-3.8,0.1
			C478.9,93.7,479.4,95.4,480.5,95.2L480.5,95.2z"/>
	</g>
	<g>
		<path class="st0" d="M501.5,102.4c0.7-0.3,1.4-0.3,2,0.2c0.9,0.7,2.1-0.5,1.2-1.2c-1.1-0.9-2.4-1.2-3.7-0.6
			C500,101.1,500.5,102.8,501.5,102.4L501.5,102.4z"/>
	</g>
	<g>
		<path class="st0" d="M463.6,109c-1.8,1.1-3.8,1.5-5.9,1.2c-0.6-0.1-1,0.6-0.8,1.1c-0.1,0-0.2-0.1-0.4-0.1c-1.1,0-1.1,1.7,0,1.7
			c1.2,0,2.4-0.6,2-2c-0.3,0.4-0.6,0.7-0.8,1.1c2.4,0.3,4.7-0.2,6.7-1.5C465.4,109.9,464.5,108.4,463.6,109L463.6,109z"/>
	</g>
	<g>
		<path class="st0" d="M444.1,124c-0.4,3.5-5.3,4.3-6.9,7.2c-1.3,2.4,0,4.6,1.6,6.4c0.7,0.8,1.9-0.4,1.2-1.2
			c-3.4-3.8-0.1-5.7,2.9-7.9c1.6-1.2,2.6-2.5,2.9-4.5C445.9,122.9,444.2,122.9,444.1,124L444.1,124z"/>
	</g>
	<g>
		<path class="st0" d="M435.5,134.8c-0.4-2.8-5.7-5.1-1.6-7.6c0.9-0.6,0.1-2.1-0.9-1.5c-1.6,1-3,2.8-2.3,4.8
			c0.6,1.9,2.8,2.8,3.1,4.7C434,136.3,435.6,135.8,435.5,134.8L435.5,134.8z"/>
	</g>
	<g>
		<path class="st0" d="M435.4,126.4c1.1,0,1.1-1.7,0-1.7C434.2,124.7,434.2,126.4,435.4,126.4L435.4,126.4z"/>
	</g>
	<g>
		<path class="st0" d="M438.2,125c1.9-0.5,3.5-1.5,5-2.8c0.8-0.7-0.4-1.9-1.2-1.2c-1.2,1.1-2.7,1.9-4.3,2.3
			C436.7,123.7,437.1,125.4,438.2,125L438.2,125z"/>
	</g>
	<g>
		<path class="st0" d="M450.2,125.2c0.7-0.4,1.5-0.7,2.2-1.1c1-0.5,0.1-2-0.9-1.5c-0.7,0.4-1.5,0.7-2.2,1.1
			C448.4,124.2,449.2,125.7,450.2,125.2L450.2,125.2z"/>
	</g>
	<g>
		<path class="st0" d="M448.9,122.3c1.1,0,1.1-1.7,0-1.7S447.8,122.3,448.9,122.3L448.9,122.3z"/>
	</g>
	<g>
		<path class="st0" d="M497.9,114.8c3.9,0.2,7.4-1.6,10.7-3.4c1-0.5,0.1-2-0.9-1.5c-3.1,1.7-6.2,3.3-9.9,3.2
			C496.8,113,496.8,114.7,497.9,114.8L497.9,114.8z"/>
	</g>
	<g>
		<path class="st0" d="M491.9,111.6c-1.1-0.4-2.3-0.6-3.5-0.6c-1.1,0-1.1,1.7,0,1.7s2.1,0.2,3.1,0.6
			C492.4,113.6,492.9,111.9,491.9,111.6L491.9,111.6z"/>
	</g>
	<g>
		<path class="st0" d="M512.2,172.7c2.1,6.4,8.7,10.5,15.3,11c5.4,0.4,8.3-2.5,13.8,2.5c2.6,2.4,3.7,6,5.8,8.8
			c2.9,3.8,5.7,5.9,10.5,5.6c1.1-0.1,1.1-1.8,0-1.7c-10.8,0.7-11-14.5-20.4-16.9c-3.4-0.9-6.9,0.3-10.3-0.1
			c-5.5-0.6-11.3-4.2-13.1-9.7C513.6,171.2,511.9,171.7,512.2,172.7L512.2,172.7z"/>
	</g>
	<g>
		<path class="st0" d="M556.4,195.9c5.3,3.8,12.4,4.4,17.4,0.1c0.8-0.7-0.4-1.9-1.2-1.2c-4.4,3.8-10.8,2.9-15.3-0.3
			C556.4,193.8,555.6,195.3,556.4,195.9L556.4,195.9z"/>
	</g>
	<g>
		<path class="st0" d="M572,190.5c1.6-0.8,3.1-1.7,4.5-2.7c0.9-0.6,0-2.1-0.9-1.5c-1.4,1-2.9,1.9-4.5,2.7
			C570.1,189.5,571,191,572,190.5L572,190.5z"/>
	</g>
	<g>
		<path class="st0" d="M466.3,281.5c7.2-9.6,14.9-15.5,27.2-12.7c7.6,1.7,13.6,5.2,20.5,8.7c1,0.5,1.9-1,0.9-1.5
			c-8.6-4.3-16.9-9.6-26.9-10c-10.7-0.4-17.2,6.6-23.1,14.6C464.1,281.6,465.6,282.4,466.3,281.5L466.3,281.5z"/>
	</g>
	<g>
		<path class="st0" d="M591.3,140.7c0.1,7.9,2.5,17.6,8.5,23.2c6.6,6.2,16.3,7.5,24.7,4.8c1-0.3,0.6-2-0.5-1.7
			c-8.2,2.7-17.9,1.3-24-5.3c-4.9-5.3-6.9-14-7-21C593,139.6,591.3,139.6,591.3,140.7L591.3,140.7z"/>
	</g>
	<g>
		<path class="st0" d="M607.7,138.5c2.1,8.3,9,14,17.5,14.6c1.1,0.1,1.1-1.6,0-1.7c-7.8-0.6-13.9-5.8-15.8-13.4
			C609,137,607.4,137.4,607.7,138.5L607.7,138.5z"/>
	</g>
	<g>
		<path class="st0" d="M621.2,125.8c4.8,4.3,2.9,10.5,4,16.1c0.6,3.1,2.1,5.5,5.2,6.3c1.1,0.3,1.5-1.4,0.5-1.7
			c-5.9-1.6-3.9-10.3-4.6-14.7c-0.5-2.9-1.6-5.3-3.8-7.3C621.6,123.9,620.4,125.1,621.2,125.8L621.2,125.8z"/>
	</g>
	<g>
		<path class="st0" d="M587.8,160.5c2.3,19.9,25,30.7,41.3,18.5c0.9-0.7,0-2.1-0.9-1.5c-15.1,11.3-36.5,1.8-38.7-17
			C589.4,159.4,587.7,159.4,587.8,160.5L587.8,160.5z"/>
	</g>
	<g>
		<path class="st0" d="M585.5,148.2c1.1,5.7,2.1,11.4,3.1,17.1c0.9,5.2,1.4,11.1,3.9,15.8c0.5,1,2,0.1,1.5-0.9
			c-2.7-5-3.1-11.6-4.1-17.1c-0.9-5.1-1.8-10.2-2.8-15.3C586.9,146.7,585.3,147.1,585.5,148.2L585.5,148.2z"/>
	</g>
	<g>
		<path class="st0" d="M510.1,79.6c-0.2-3.6-0.4-7.2,0.7-10.7c1-3.2,2.7-6.2,4.1-9.2c0.5-1-1-1.9-1.5-0.9c-1.5,3.1-3.3,6.3-4.3,9.6
			c-1.1,3.6-0.9,7.4-0.7,11.2C508.4,80.7,510.1,80.7,510.1,79.6L510.1,79.6z"/>
	</g>
	<g>
		<path class="st0" d="M517.1,28.8c5.1-10,20.5-23.9,32.1-16.1c0.9,0.6,1.8-0.9,0.9-1.5c-12.6-8.4-28.9,5.9-34.5,16.7
			C515.1,28.9,516.6,29.8,517.1,28.8L517.1,28.8z"/>
	</g>
	<g>
		<path class="st0" d="M473,23.6c3.4-5.9,6.8-12.5,12-16.9c5-4.3,17.3-8.6,21.5-0.6c0.5,1,2,0.1,1.5-0.9c-3-5.8-11.3-6-16.9-4.2
			c-9.5,3.2-14.9,13.6-19.6,21.7C471,23.7,472.5,24.6,473,23.6L473,23.6z"/>
	</g>
	<g>
		<path class="st0" d="M449.9,32.7c5.4-8.9,18.3-9.5,27.1-6.5c1,0.4,1.5-1.3,0.5-1.7c-9.6-3.3-23.2-2.3-29,7.3
			C447.8,32.7,449.3,33.6,449.9,32.7L449.9,32.7z"/>
	</g>
	<g class="st1">
		<path class="st0" d="M492.3,311.1c4.5-1.9,6.9-6.2,9-10.4c0.3-0.6-0.6-1.1-0.9-0.5c-2,4-4.2,8.2-8.6,10.1
			C491.2,310.4,491.7,311.3,492.3,311.1L492.3,311.1z"/>
	</g>
	<g class="st1">
		<path class="st0" d="M493.3,306.8c0.7-0.7,1.3-1.3,2-2c0.5-0.5-0.3-1.2-0.7-0.7c-0.7,0.7-1.3,1.3-2,2
			C492.1,306.5,492.8,307.2,493.3,306.8L493.3,306.8z"/>
	</g>
	<g class="st1">
		<path class="st0" d="M480.7,171.5c0,3.3-0.4,6.9,0.2,10.1c0.5,2.6,2.1,4.8,3.7,6.9c0.4,0.5,1.3,0,0.9-0.5
			c-1.9-2.6-3.5-4.9-3.7-8.3c-0.2-2.7-0.1-5.5-0.1-8.2C481.8,170.8,480.8,170.8,480.7,171.5L480.7,171.5z"/>
	</g>
	<g class="st1">
		<path class="st0" d="M536.3,200c1.1,0.2,2.1,0.5,3.1,1.1c0.6,0.3,1.1-0.5,0.5-0.9c-1-0.6-2.1-1-3.4-1.2
			C535.9,198.9,535.6,199.9,536.3,200L536.3,200z"/>
	</g>
	<g class="st1">
		<path class="st0" d="M516.8,226.7c4.9,3.3,11.3,3.7,15.6-0.9c0.5-0.5-0.3-1.2-0.7-0.7c-4,4.2-9.8,3.7-14.3,0.7
			C516.8,225.4,516.3,226.3,516.8,226.7L516.8,226.7z"/>
	</g>
	<g class="st1">
		<path class="st0" d="M488.4,254.3c2.5-0.9,4.1-3,5.6-5.1c0.4-0.5-0.5-1.1-0.9-0.5c-1.3,1.9-2.7,3.8-5,4.7
			C487.5,253.6,487.8,254.6,488.4,254.3L488.4,254.3z"/>
	</g>
	<g class="st1">
		<path class="st0" d="M494.4,255.6c1.9-1,3.3-2.5,4.3-4.4c0.3-0.6-0.6-1.1-0.9-0.5c-0.9,1.8-2.2,3.1-3.9,4
			C493.3,255,493.8,255.9,494.4,255.6L494.4,255.6z"/>
	</g>
	<g class="st1">
		<path class="st0" d="M540.1,303.7c1.6,2.9,4.3,4.9,7.6,5.6c0.6,0.1,0.9-0.9,0.3-1c-3-0.6-5.5-2.4-7-5.1
			C540.7,302.6,539.8,303.1,540.1,303.7L540.1,303.7z"/>
	</g>
	<g class="st1">
		<path class="st0" d="M545.4,305.1c0.7,0.7,1.4,1.4,2.2,1.9c0.5,0.4,1.1-0.5,0.5-0.9c-0.7-0.5-1.4-1.1-2-1.8
			C545.6,303.9,544.9,304.6,545.4,305.1L545.4,305.1z"/>
	</g>
	<g class="st1">
		<path class="st0" d="M548,185.8c1.4,2.3,3.2,4.3,5.3,5.9c0.5,0.4,1.3-0.3,0.7-0.7c-2.1-1.6-3.8-3.5-5.2-5.7
			C548.5,184.7,547.6,185.2,548,185.8L548,185.8z"/>
	</g>
	<g class="st1">
		<path class="st0" d="M555.2,181c1.6,2.6,4.2,4.3,7.2,4.6c0.7,0.1,0.7-1,0-1c-2.7-0.3-5-1.8-6.3-4.1
			C555.7,179.9,554.8,180.5,555.2,181L555.2,181z"/>
	</g>
	<g class="st1">
		<path class="st0" d="M527.9,166.2c1.6,1.6,3.5,2.7,5.8,3.1c3.2,0.7,6.5,0.4,9.1,2.7c0.5,0.4,1.2-0.3,0.7-0.7
			c-4.3-3.8-10.7-1.7-14.9-5.9C528.2,165,527.5,165.8,527.9,166.2L527.9,166.2z"/>
	</g>
	<g class="st1">
		<path class="st0" d="M539.8,166.2c0.8,0.2,1.6,0.5,2.4,0.9c0.6,0.3,1.1-0.6,0.5-0.9c-0.8-0.4-1.7-0.8-2.6-1
			C539.4,165.1,539.1,166.1,539.8,166.2L539.8,166.2z"/>
	</g>
	<g class="st1">
		<path class="st0" d="M500.8,178.5c1.5,2.5,1.8,5.3,2,8.1c0.1,0.7,1.1,0.7,1,0c-0.3-3-0.6-6-2.2-8.6
			C501.4,177.5,500.5,178,500.8,178.5L500.8,178.5z"/>
	</g>
	<g>
		<path class="st0" d="M628,204.2c9.4,5.7,20.8,10,31.9,9.6c1.1,0,1.1-1.7,0-1.7c-10.8,0.3-21.9-3.9-31-9.4
			C627.9,202.2,627.1,203.7,628,204.2L628,204.2z"/>
	</g>
	<g>
		<path class="st0" d="M469.2,169.7c-8.6,2.9-15.8,9.7-17.1,19.1c-0.6,4,0.6,9.4,3.3,12.5c3.9,4.5,10.8,5.5,14.5,10.3
			c0.7,0.9,2.2,0,1.5-0.9c-4.1-5.4-11.8-6.1-15.6-12c-7.2-11.1,3.5-24,13.8-27.4C470.7,171,470.3,169.3,469.2,169.7L469.2,169.7z"/>
	</g>
	<g>
		<path class="st0" d="M560.8,36.4c9.4-0.5,13.7,4.6,19.3,11.2c2.8,3.3,5.9,5.7,10.4,5.5c1.1,0,1.1-1.8,0-1.7
			c-7.8,0.3-10.4-8.2-15.6-12.5c-4.1-3.3-9-4.5-14.1-4.2C559.7,34.8,559.6,36.5,560.8,36.4L560.8,36.4z"/>
	</g>
	<g>
		<path class="st0" d="M542.5,67.1c3.5-12,15.9-20.2,28.2-14.9c1,0.4,1.9-1,0.9-1.5c-13.3-5.8-26.9,2.7-30.7,15.9
			C540.5,67.7,542.2,68.1,542.5,67.1L542.5,67.1z"/>
	</g>
	<g>
		<path class="st0" d="M532.9,27c13.9-18.4,39.4-19.2,52.3,1.8c4.9,7.9,5.1,18.7,15.2,22.1c1,0.4,1.5-1.3,0.5-1.7
			c-10-3.3-9.9-15.2-15.1-22.7c-4.4-6.3-12.2-12-19.5-14.4c-13.8-4.5-26.8,3.3-34.9,14.1C530.7,27.1,532.2,27.9,532.9,27L532.9,27z"
			/>
	</g>
	<g class="st1">
		<path class="st0" d="M683.6,527.5c-2.2,5.4-3.7,11-4.5,16.7c-0.1,0.6,0.9,0.9,1,0.3c0.8-5.8,2.3-11.3,4.5-16.7
			C684.8,527.2,683.8,526.9,683.6,527.5L683.6,527.5z"/>
	</g>
	<g class="st1">
		<path class="st0" d="M684,500.2c-14.3,14-18.3,35-33,48.8c-0.5,0.5,0.2,1.2,0.7,0.7c14.6-13.8,18.7-34.7,33-48.8
			C685.2,500.5,684.5,499.7,684,500.2L684,500.2z"/>
	</g>
	<g class="st1">
		<path class="st0" d="M706.4,504.3c-8.2,9-14,19.5-17.2,31.2c-0.2,0.6,0.8,0.9,1,0.3c3.2-11.6,8.9-21.9,17-30.8
			C707.5,504.5,706.8,503.8,706.4,504.3L706.4,504.3z"/>
	</g>
	<g class="st1">
		<path class="st0" d="M709.1,512.7c-4.2,4.8-7.5,10.2-9.7,16.2c-0.2,0.6,0.8,0.9,1,0.3c2.1-5.9,5.3-11.1,9.4-15.7
			C710.2,512.9,709.5,512.2,709.1,512.7L709.1,512.7z"/>
	</g>
	<g class="st1">
		<path class="st0" d="M711,520.5c-0.4,0.7-0.9,1.5-1.3,2.2c-0.3,0.6,0.5,1.1,0.9,0.5c0.4-0.7,0.9-1.5,1.3-2.2
			C712.2,520.4,711.3,519.9,711,520.5L711,520.5z"/>
	</g>
	<g class="st1">
		<path class="st0" d="M645.7,558.6c-12,9.4-20.9,21.5-26.4,35.6c-0.2,0.6,0.8,0.9,1,0.3c5.5-14,14.4-25.9,26.2-35.2
			C647,558.9,646.2,558.2,645.7,558.6L645.7,558.6z"/>
	</g>
	<g class="st1">
		<path class="st0" d="M665,552c-3.9,12.8-17,19.5-22.4,31.5c-0.3,0.6,0.6,1.1,0.9,0.5c5.5-12.1,18.6-18.8,22.5-31.8
			C666.2,551.6,665.2,551.4,665,552L665,552z"/>
	</g>
	<g>
		<path class="st0" d="M542.2,207.5c3.4,2,6.2,5.4,10.5,4.5c1.1-0.2,0.6-1.9-0.5-1.7c-3.6,0.8-6.4-2.7-9.2-4.3
			C542.1,205.5,541.2,206.9,542.2,207.5L542.2,207.5z"/>
	</g>
	<g>
		<path class="st0" d="M556.5,207.6c2.7,1.6,6.3,0.8,9-0.5c4.5-2.3,7.3-6.7,8.6-11.5c0.3-1.1-1.4-1.5-1.7-0.5
			c-1.1,4.2-3.4,8-7.3,10.2c-2.2,1.2-5.5,2.3-7.8,0.8C556.4,205.6,555.5,207,556.5,207.6L556.5,207.6z"/>
	</g>
	<g>
		<path class="st0" d="M458,223.4c-3.4,5.3,0.1,13.1,5.1,16.1c0.9,0.6,1.8-0.9,0.9-1.5c-4.2-2.5-7.3-9.3-4.5-13.8
			C460.1,223.4,458.6,222.5,458,223.4L458,223.4z"/>
	</g>
	<g>
		<path class="st0" d="M453.4,37.4c3.3,1,7.2,2.5,9,5.6c0.6,0.9,2,0.1,1.5-0.9c-2.1-3.5-6.3-5.3-10-6.4
			C452.8,35.5,452.4,37.1,453.4,37.4L453.4,37.4z"/>
	</g>
	<g>
		<path class="st0" d="M480.5,29.4c1.6-2.2,3.3-4.3,4.9-6.5c0.7-0.9-0.8-1.7-1.5-0.9c-1.6,2.2-3.3,4.3-4.9,6.5
			C478.4,29.5,479.9,30.3,480.5,29.4L480.5,29.4z"/>
	</g>
	<g>
		<path class="st0" d="M497.8,33.7c4.4-8.6,10.1-16.9,18.8-21.7c1-0.5,0.1-2-0.9-1.5c-8.9,4.9-14.9,13.5-19.4,22.3
			C495.8,33.8,497.3,34.7,497.8,33.7L497.8,33.7z"/>
	</g>
	<g>
		<path class="st0" d="M520.5,9.8c4.4-3.4,16.5-7.9,19.6-0.7c0.4,1,1.9,0.1,1.5-0.9c-3.6-8.1-16.9-3.8-22,0.1
			C518.8,9,519.6,10.5,520.5,9.8L520.5,9.8z"/>
	</g>
	<g>
		<path class="st0" d="M426.9,82.2c-0.6,3.4,2.5,6,5.7,6.1c3,0,6-2.6,4.3-5.7c-0.5-1-2-0.1-1.5,0.9c1.2,2.2-1.8,3.3-3.5,3.1
			c-1.8-0.3-3.8-1.8-3.5-3.9C428.8,81.6,427.1,81.1,426.9,82.2L426.9,82.2z"/>
	</g>
	<g>
		<path class="st0" d="M439.5,49.1c9.3,2,9.5,14,5.8,21.1c-0.5,1,1,1.8,1.5,0.9c4.2-8,3.6-21.3-6.9-23.6
			C438.9,47.2,438.4,48.9,439.5,49.1L439.5,49.1z"/>
	</g>
	<g>
		<path class="st0" d="M458.2,53c4-7.3,9.1-14.8,17.5-17.1c7.1-2,15.3-0.5,20.5,4.9c0.8,0.8,2-0.4,1.2-1.2
			c-5.4-5.6-13.6-7.3-21.1-5.6c-9.4,2.1-15.3,10.2-19.7,18.2C456.2,53.1,457.7,53.9,458.2,53L458.2,53z"/>
	</g>
	<g>
		<path class="st0" d="M552.2,67c3.7-1.5,6.6-4.4,8.1-8.1c0.4-1-1.2-1.5-1.7-0.5c-1.3,3.1-3.8,5.6-6.9,6.9
			C550.7,65.8,551.2,67.4,552.2,67L552.2,67z"/>
	</g>
	<g>
		<path class="st0" d="M514,33.3c-2.2,6-6.6,12.1-13.8,11.3c-1.1-0.1-1.1,1.6,0,1.7c8,0.9,13-5.8,15.4-12.5
			C516,32.7,514.4,32.3,514,33.3L514,33.3z"/>
	</g>
	<g>
		<path class="st0" d="M606.6,84.5c3.4,1.8,7.2,1.7,10.6,0.1c0.6-0.3,0.5-1.2,0-1.5c-7.5-4.6-5.6-14-9.4-20.8
			c-2.5-4.5-6.7-7.4-11.6-8.8c-1.1-0.3-1.5,1.4-0.5,1.7c9.2,2.6,11.5,9.6,13.5,18c1.1,4.6,2.9,8.8,7.1,11.4c0-0.5,0-1,0-1.5
			c-2.8,1.3-6.1,1.3-8.9-0.1C606.5,82.5,605.6,84,606.6,84.5L606.6,84.5z"/>
	</g>
	<g>
		<path class="st0" d="M602.1,107.8c9.5-0.4,19.7,0,25.2,9.1c4.5,7.4,1.9,16.4,3.2,24.5c0.2,1.1,1.8,0.6,1.7-0.5
			c-1.6-9.9,1.7-19.8-5.7-28c-6.4-7-15.5-7.2-24.4-6.8C601,106.1,601,107.8,602.1,107.8L602.1,107.8z"/>
	</g>
	<g>
		<path class="st0" d="M629.9,153.8c0.2,3.7-0.8,7.2-2.8,10.4c-0.6,0.9,0.9,1.8,1.5,0.9c2.2-3.4,3.2-7.2,3-11.2
			C631.5,152.7,629.8,152.7,629.9,153.8L629.9,153.8z"/>
	</g>
	<g>
		<path class="st0" d="M527.6,78.9c-0.5,4.7-0.8,8.7,2.1,12.7c0.6,0.9,2.1,0,1.5-0.9c-2.7-3.8-2.3-7.5-1.8-11.8
			C529.4,77.8,527.7,77.9,527.6,78.9L527.6,78.9z"/>
	</g>
	<g>
		<path class="st0" d="M457.7,59.5c5-1.4,8.9-0.8,12.8-5c4.5-4.9,4.8-13,11.9-15.3c1-0.3,0.6-2-0.5-1.7c-4.7,1.5-6.9,5.3-9,9.6
			c-1.8,3.7-3.6,7.4-7.6,9.1c-2.5,1-5.4,0.9-8,1.7C456.1,58.2,456.6,59.8,457.7,59.5L457.7,59.5z"/>
	</g>
	<g>
		<path class="st0" d="M495.8,48.5c-4.7-0.7-9.9,0.9-13.9,3.3c-1,0.6-0.1,2,0.9,1.5c3.6-2.1,8.4-3.8,12.6-3.1
			C496.4,50.3,496.9,48.7,495.8,48.5L495.8,48.5z"/>
	</g>
	<g>
		<path class="st0" d="M523.3,70.2c0.8,2.3,2.2,4.1,4.2,5.5c0.9,0.6,1.8-0.8,0.9-1.5c-1.6-1.1-2.7-2.7-3.4-4.5
			C524.5,68.7,522.9,69.1,523.3,70.2L523.3,70.2z"/>
	</g>
	<g class="st1">
		<path class="st0" d="M669.5,240c3.5-5.4,8.8-9.1,15-10.6c0.6-0.2,0.4-1.2-0.3-1c-6.5,1.6-12,5.5-15.6,11.1
			C668.3,240,669.2,240.5,669.5,240L669.5,240z"/>
	</g>
	<g class="st1">
		<path class="st0" d="M690.2,234.2c2.2-1.3,4.4-2.5,6.7-3.5c0.6-0.3,0.1-1.2-0.5-0.9c-2.3,1-4.6,2.2-6.7,3.5
			C689.1,233.7,689.6,234.6,690.2,234.2L690.2,234.2z"/>
	</g>
	<g class="st1">
		<path class="st0" d="M703.3,238.3c2-1.3,4.2-2.1,6.6-2.6c0.7-0.1,0.4-1.1-0.3-1c-2.4,0.5-4.7,1.3-6.8,2.7
			C702.3,237.8,702.8,238.7,703.3,238.3L703.3,238.3z"/>
	</g>
	<g class="st1">
		<path class="st0" d="M714.3,242.2c1.7-0.6,3.5-1.1,5.3-1.4c0.6-0.1,0.4-1.1-0.3-1c-1.8,0.3-3.5,0.8-5.3,1.4
			C713.4,241.4,713.7,242.4,714.3,242.2L714.3,242.2z"/>
	</g>
	<g class="st1">
		<path class="st0" d="M725.5,248c1.3-0.7,2.7-1,4.1-1.1c0.7,0,0.7-1.1,0-1c-1.6,0.1-3.2,0.5-4.6,1.3
			C724.4,247.4,725,248.3,725.5,248L725.5,248z"/>
	</g>
	<g class="st1">
		<path class="st0" d="M555.3,289.2c5-1.4,9.8-1.5,14.9-0.4c3.1,0.7,5.8,1.4,9,0.9c0.7-0.1,0.4-1.1-0.3-1c-4.6,0.7-8.9-1.4-13.4-1.7
			c-3.6-0.3-7.1,0.2-10.5,1.1C554.3,288.4,554.6,289.4,555.3,289.2L555.3,289.2z"/>
	</g>
	<g class="st1">
		<path class="st0" d="M584.8,289.7c7.4-0.5,13.9-3.8,20.3-7.2c0.6-0.3,0.1-1.2-0.5-0.9c-6.3,3.3-12.6,6.5-19.8,7.1
			C584.2,288.7,584.2,289.7,584.8,289.7L584.8,289.7z"/>
	</g>
	<g class="st1">
		<path class="st0" d="M611.4,279.8c1.7-0.9,3.5-1.4,5.4-1.7c0.7-0.1,0.4-1.1-0.3-1c-2,0.3-3.9,0.9-5.7,1.9
			C610.3,279.2,610.8,280.1,611.4,279.8L611.4,279.8z"/>
	</g>
	<g class="st1">
		<path class="st0" d="M584.1,284.5c2.1-0.3,4.2-0.9,6.2-1.7c0.6-0.2,0.3-1.2-0.3-1c-2,0.8-4,1.4-6.2,1.7
			C583.2,283.6,583.5,284.6,584.1,284.5L584.1,284.5z"/>
	</g>
	<g class="st1">
		<path class="st0" d="M622.5,275.1c3-1.5,5.7-3.2,8.3-5.3c0.5-0.4-0.2-1.1-0.7-0.7c-2.5,2-5.2,3.7-8.1,5.1
			C621.4,274.5,621.9,275.4,622.5,275.1L622.5,275.1z"/>
	</g>
	<g class="st1">
		<path class="st0" d="M738.4,253.8c0.5-0.3,1-0.6,1.5-0.9c0.6-0.3,0-1.2-0.5-0.9s-1,0.6-1.5,0.9
			C737.3,253.2,737.8,254.1,738.4,253.8L738.4,253.8z"/>
	</g>
	<g class="st1">
		<path class="st0" d="M763.9,338c-1.8,3.4-2.5,7-3,10.8c-0.9,6.3-2.4,11.2-6.3,16.3c-0.4,0.5,0.5,1,0.9,0.5
			c2.7-3.6,4.8-7.1,5.7-11.6c1.1-5.3,1-10.7,3.7-15.6C765.1,338,764.2,337.4,763.9,338L763.9,338z"/>
	</g>
	<g class="st1">
		<path class="st0" d="M771.5,343.1c-0.2,0.8-0.4,1.6-0.6,2.3c-0.2,0.6,0.8,0.9,1,0.3c0.2-0.8,0.4-1.6,0.6-2.3
			C772.7,342.7,771.7,342.5,771.5,343.1L771.5,343.1z"/>
	</g>
	<g class="st1">
		<path class="st0" d="M617.4,308.8c1.6-4.3,3.1-8.7,4.7-13c0.2-0.6-0.8-0.9-1-0.3c-1.6,4.3-3.1,8.7-4.7,13
			C616.2,309.2,617.2,309.4,617.4,308.8L617.4,308.8z"/>
	</g>
	<g class="st1">
		<path class="st0" d="M627.9,442.9c1-5.2,4.1-9.2,7-13.4c2.8-4.2,5.7-8.3,8.5-12.5c0.4-0.5-0.5-1.1-0.9-0.5
			c-3.2,4.7-6.4,9.4-9.6,14c-2.6,3.8-5.1,7.5-6,12.1C626.8,443.3,627.8,443.6,627.9,442.9L627.9,442.9z"/>
	</g>
	<g class="st1">
		<path class="st0" d="M640.1,432.3c3.7-6.1,7.9-11.8,12.6-17.2c0.4-0.5-0.3-1.2-0.7-0.7c-4.7,5.4-9,11.2-12.8,17.4
			C638.8,432.3,639.7,432.8,640.1,432.3L640.1,432.3z"/>
	</g>
	<g class="st1">
		<path class="st0" d="M667.7,275.6c-2.3,18.6,7.7,36.3,24.6,44.1c0.6,0.3,1.1-0.6,0.5-0.9c-16.7-7.7-26.4-25-24.1-43.3
			C668.8,274.9,667.8,274.9,667.7,275.6L667.7,275.6z"/>
	</g>
	<g class="st1">
		<path class="st0" d="M805,429.4c6.2-4.2,13.1-6.6,20.6-7.2c0.7-0.1,0.7-1.1,0-1c-7.7,0.6-14.8,3.1-21.2,7.4
			C804,428.8,804.5,429.7,805,429.4L805,429.4z"/>
	</g>
	<g class="st1">
		<path class="st0" d="M792.7,427.1c1.2-2.9,2.4-5.8,3.6-8.7c0.3-0.6-0.7-0.9-1-0.3c-1.2,2.9-2.4,5.8-3.6,8.7
			C791.4,427.4,792.4,427.7,792.7,427.1L792.7,427.1z"/>
	</g>
	<g class="st1">
		<path class="st0" d="M785,427.9c-0.1-2.7,0.6-5.3,2-7.6c0.3-0.6-0.5-1.1-0.9-0.5c-1.5,2.5-2.2,5.2-2.1,8.1
			C784,428.6,785,428.6,785,427.9L785,427.9z"/>
	</g>
	<g class="st1">
		<path class="st0" d="M781.2,425.9c0.1-1.3,0.2-2.5,0.3-3.8c0.1-0.7-1-0.7-1,0c-0.1,1.3-0.2,2.5-0.3,3.8
			C780.1,426.5,781.2,426.5,781.2,425.9L781.2,425.9z"/>
	</g>
	<g class="st1">
		<path class="st0" d="M776.5,423.8c-0.3-3.7,0.1-7.2,1.4-10.6c0.2-0.6-0.8-0.9-1-0.3c-1.3,3.5-1.8,7.2-1.4,10.9
			C775.5,424.5,776.5,424.5,776.5,423.8L776.5,423.8z"/>
	</g>
	<g class="st1">
		<path class="st0" d="M770.2,420.6c0.1-0.8,0.2-1.6,0.3-2.3c0.1-0.7-0.9-0.6-1,0c-0.1,0.8-0.2,1.6-0.3,2.3
			C769.1,421.3,770.1,421.3,770.2,420.6L770.2,420.6z"/>
	</g>
	<g class="st1">
		<path class="st0" d="M763.4,416.5c0-1,0-1.9,0-2.9c0-0.7-1-0.7-1,0c0,1,0,1.9,0,2.9C762.4,417.2,763.4,417.2,763.4,416.5
			L763.4,416.5z"/>
	</g>
	<g class="st1">
		<path class="st0" d="M758.2,411.6c0-0.7,0-1.4,0-2c0-0.7-1-0.7-1,0s0,1.4,0,2S758.2,412.2,758.2,411.6L758.2,411.6z"/>
	</g>
	<g class="st1">
		<path class="st0" d="M773.1,374.5c0.8,8.5,7.5,11.6,14.8,14.5c13.5,5.4,27.4,8.9,38.1,19.4c0.5,0.5,1.2-0.3,0.7-0.7
			c-5.6-5.6-12.1-9.4-19.4-12.5c-10.3-4.3-31.8-7.5-33.1-20.7C774,373.8,773,373.8,773.1,374.5L773.1,374.5z"/>
	</g>
	<g>
		<path class="st0" d="M429.6,256.4c-17.4,5.1-32.2,20.6-42.6,34.8c-13.6,18.4-20.5,39.6-23.6,62.1c-0.2,1.1,1.5,1.5,1.7,0.5
			c2.9-20.4,8.7-40,20.3-57.3c10.5-15.5,26.3-33,44.8-38.4C431.2,257.7,430.7,256.1,429.6,256.4L429.6,256.4z"/>
	</g>
	<g>
		<path class="st0" d="M361.1,356.7c-17.7,8.6-32.1,30.7-40.9,47.7c-0.5,1,1,1.8,1.5,0.9c8.7-16.9,22.7-38.5,40.3-47
			C363,357.7,362.1,356.2,361.1,356.7L361.1,356.7z"/>
	</g>
	<g>
		<path class="st0" d="M314.7,416.7c17.8,6.3,34.8,15.1,51,24.9c16.3,9.9,33.7,21.3,44.8,37.1c0.6,0.9,2.1,0,1.5-0.9
			c-10.7-15.2-27-26.3-42.6-36c-17.1-10.6-35.2-20-54.2-26.8C314.1,414.7,313.7,416.3,314.7,416.7L314.7,416.7z"/>
	</g>
	<g>
		<path class="st2" d="M16.2,220.4c0,0,9.2-7.9,14.7-6.1s12.5,12.4,17.2,18.2c4.6,5.8,32.9,39.7,38.6,46.1s22.3,30.3,23.3,31.6
			c1,1.3,3.8,4.4,3,9.2c-0.7,4.8-6.5,19.4-7.7,21.6s-6.9,6.4-11.3,4.7c-1.8-0.7-16.7-12.4-14.6-19.4c0.3-1,0.4-3.9,2.3-6.6
			c3.9-5.6,8.5-16.2,1.1-21.7c-1.1-0.8-5.3,0.2-8.3,3.2c-3.5,3.5-7.1,9.5-8.4,10.4c-1.7,1.3-3.7-1.4-3.9-4.9
			c-0.2-4.1,4.4-9.2,7.8-22.3c0.8-3.2-4.2-9.3-7.1-10.4c-6.3-2.4-16.3,19-17.8,16.7c-3.2-5-11.8-18.6-18.1-25.7
			c-6.5-7.4-12.9-12.4-15.6-15.2c-5.2-5.5-10.8-14.5-10.6-16.4c0.3-3.8,6.7-7.3,8.9-8.8C11.9,223.2,14.8,221.5,16.2,220.4z"/>
		<g>
			<path class="st0" d="M141.6,321.6c4.9,5.8,9.9,12.6,12.6,19.7c1.9,5,2.4,10.5,4.4,15.5c0.4,1,2.1,0.6,1.7-0.5
				c-2.2-5.5-2.7-11.6-5-17c-2.9-6.9-7.6-13.3-12.4-19C142.1,319.5,140.9,320.7,141.6,321.6L141.6,321.6z"/>
		</g>
		<g>
			<path class="st0" d="M63.8,253c16.8,0.8,25.2,22.6,37.1,32.7c12.3,10.5,25.8,17.7,35.7,31c0.7,0.9,2.1,0,1.5-0.9
				c-11.3-15.2-27.6-22.7-40.8-35.8c-11-10.9-16.1-28.1-33.5-28.9C62.7,251.2,62.7,252.9,63.8,253L63.8,253z"/>
		</g>
		<g>
			<path class="st0" d="M12,274.2c6.3,14.5,14.5,28.4,21.8,42.5c0.5,1,2,0.1,1.5-0.9c-7.4-14-15.5-28-21.8-42.5
				C13,272.3,11.5,273.2,12,274.2L12,274.2z"/>
		</g>
		<g>
			<path class="st0" d="M35.1,273.9c-3.8-6.4-11-19.1-20.3-17.7c-7.9,1.2-4.7,13.2-3,17.8c0.4,1,2,0.6,1.7-0.5
				c-2-5.1-4.7-18.1,5.1-15c6.8,2.1,11.5,10.5,15,16.3C34.2,275.8,35.7,274.9,35.1,273.9L35.1,273.9z"/>
		</g>
		<g>
			<path class="st0" d="M58.9,274c-9,8.4-15.9,18.3-20.6,29.7c-0.4,1,1.2,1.5,1.7,0.5c4.6-11.1,11.4-20.8,20.1-28.9
				C60.9,274.5,59.7,273.3,58.9,274L58.9,274z"/>
		</g>
		<g>
			<path class="st0" d="M37,308.7c-2.4,3.9-4.5,8.9-4.9,13.5c-0.4,3.9,1.4,6.6,3.7,9.5c0.7,0.9,1.9-0.4,1.2-1.2
				c-3-3.8-3.7-7.4-2.3-12.1c0.9-3.1,2.1-6.1,3.8-8.9C39,308.7,37.6,307.8,37,308.7L37,308.7z"/>
		</g>
		<g>
			<path class="st0" d="M64.7,276c9.8,9.2,1.1,18.2-2.4,27.4c-2.6,6.9-4.1,14.2-6.9,21.1c-0.4,1,1.2,1.5,1.7,0.5
				c2.9-7.1,4.3-14.6,7.2-21.7c1.6-3.8,3.9-7.3,5.4-11.1c2.5-6.7,1.6-12.3-3.7-17.3C65.1,274,63.9,275.2,64.7,276L64.7,276z"/>
		</g>
		<g>
			<path class="st0" d="M76.6,297.6c-4.8,4.8-10,10.1-13.5,16c-3.7,6.5-3.3,14.3-6.4,21.1c-0.5,1,1,1.9,1.5,0.9
				c2.5-5.4,2.6-11.3,4.5-16.9c2.7-7.8,9.4-14.2,15.1-19.9C78.6,298,77.3,296.8,76.6,297.6L76.6,297.6z"/>
		</g>
		<g>
			<path class="st0" d="M81.2,298.1c11.5,6.6-0.7,18.9-2.4,27.5c-0.2,1.1,1.4,1.5,1.7,0.5c2-10,14.5-22.1,1.6-29.5
				C81.1,296.1,80.2,297.5,81.2,298.1L81.2,298.1z"/>
		</g>
		<g>
			<path class="st0" d="M78.9,330.6c0,2.7-0.1,5.3-0.5,7.9c-0.1,1.1,1.6,1.1,1.7,0c0.3-2.6,0.5-5.3,0.5-7.9
				C80.6,329.5,78.9,329.5,78.9,330.6L78.9,330.6z"/>
		</g>
		<g>
			<path class="st0" d="M56.4,341.4c0.8,3.2,3.4,5.2,5.8,7.2c0.9,0.7,1.7-0.8,0.9-1.5c-2.1-1.6-4.3-3.4-5.1-6.1
				C57.8,339.8,56.2,340.3,56.4,341.4L56.4,341.4z"/>
		</g>
		<g>
			<path class="st0" d="M113.6,393.6c2.5,2.2,5.8,3.3,8.3,5.6c0.8,0.7,2-0.5,1.2-1.2c-2.5-2.3-5.8-3.4-8.3-5.6
				C114,391.7,112.8,392.9,113.6,393.6L113.6,393.6z"/>
		</g>
		<g>
			<path class="st0" d="M40.1,338.5c6.5,5.9,10.3,14,16.6,20.1c5.8,5.6,13.3,9.8,20.2,14c11.9,7.1,26.3,11.9,36.7,21
				c0.8,0.7,2-0.5,1.2-1.2c-8.8-7.7-20.2-11.8-30.3-17.4c-8.9-5-19.1-10.5-26.6-17.6c-6.3-6-10.1-14.2-16.6-20.1
				C40.5,336.6,39.3,337.8,40.1,338.5L40.1,338.5z"/>
		</g>
		<g>
			<path class="st0" d="M0.1,231.4c-0.6,4.5,1.6,7.8,4.5,11.2c4.4,5.1,8.9,10,13.4,15c0.7,0.8,1.9-0.4,1.2-1.2
				c-3.2-3.6-6.4-7.2-9.6-10.8c-3.6-4.1-8.5-8.2-7.8-14.2C2,230.3,0.3,230.4,0.1,231.4L0.1,231.4z"/>
		</g>
		<g>
			<path class="st0" d="M63.3,302.5c1.6,1.3,3,2.9,4.4,4.4c0.8,0.8,2-0.4,1.2-1.2c-1.5-1.5-2.8-3-4.4-4.4
				C63.7,300.6,62.5,301.8,63.3,302.5L63.3,302.5z"/>
		</g>
		<g>
			<path class="st0" d="M61.4,308.6c0.8,1.4,1.7,2.7,2.7,3.9c0.7,0.9,1.9-0.4,1.2-1.2c-0.9-1.1-1.7-2.3-2.4-3.5
				C62.4,306.8,60.9,307.7,61.4,308.6L61.4,308.6z"/>
		</g>
		<g>
			<path class="st0" d="M112.9,316.8c-1.5,4.7-3,9.4-4.7,14.1c-0.8,2.3-1.6,4.7-2.6,6.9c-1.3,2.9-1.8,5.3-5,4.4
				c-3.5-0.9-7.6-7.1-9.9-9.8c-3-3.6-5.9-7.3-8.7-11.2c-0.6-0.9-2.1,0-1.5,0.9c3.5,4.8,7.1,9.4,11,13.9c2,2.2,6.9,8.8,10.5,8.8
				c2.7-0.1,3.4-2,4.3-4.2c3-7.7,5.7-15.5,8.2-23.3C114.8,316.2,113.2,315.7,112.9,316.8L112.9,316.8z"/>
		</g>
		<g>
			<path class="st0" d="M79,331.9c2.8,3.9,6.3,7.2,9.6,10.7c2.9,3,5,4.3,9.3,4.2c1.1,0,1.1-1.7,0-1.7c-4.6,0.1-6.7-2.3-9.7-5.4
				c-2.7-2.8-5.5-5.5-7.7-8.7C79.9,330.2,78.4,331,79,331.9L79,331.9z"/>
		</g>
		<g>
			<path class="st0" d="M50.3,284.7c-9.8-13.2-20-26.1-30.9-38.4c-2.5-2.8-5.5-5.4-7.6-8.5c-7.8-11.2-6.3-8.6-1.1-12.9
				c3.5-2.8,8.8-6.4,12.9-7.9c12.9-4.8,23.5,15.9,30,23.9c18.7,23.4,39.5,46.2,56.5,71c0.6,0.9,2.1,0,1.5-0.9
				c-20-29.2-44.6-56.2-66.8-83.8c-3-3.7-6.3-9.5-10.5-12.2c-7.3-4.7-14.4,2-20.5,5.8c-7.5,4.8-11.5,6.8-5.6,15.4
				c5,7.4,12.2,13.7,18,20.6c7.8,9.4,15.3,19,22.6,28.8C49.5,286.5,51,285.6,50.3,284.7L50.3,284.7z"/>
		</g>
		<g>
			<path class="st0" d="M35.5,277c4,4,5.9,9.4,8.8,14.1c0.6,0.9,2.1,0.1,1.5-0.9c-3-4.8-5-10.4-9.1-14.4C36,275,34.7,276.2,35.5,277
				L35.5,277z"/>
		</g>
		<g>
			<path class="st0" d="M128.9,388.1c-7.7,1.2-14.3,2.3-21.5-1.5c-1-0.5-1.8,1-0.9,1.5c7.5,4.1,14.7,3,22.8,1.7
				C130.4,389.6,130,387.9,128.9,388.1L128.9,388.1z"/>
		</g>
		<g>
			<path class="st0" d="M114.1,328c0.6,3.8,1.1,7.5,1.7,11.3c0.2,1.1,1.8,0.6,1.7-0.5c-0.6-3.8-1.1-7.5-1.7-11.3
				C115.6,326.4,113.9,326.9,114.1,328L114.1,328z"/>
		</g>
		<g>
			<path class="st0" d="M65,322c0.8,0.2,1.5,0.4,2.3,0.6c1.1,0.3,1.5-1.4,0.5-1.7c-0.8-0.2-1.5-0.4-2.3-0.6
				C64.4,320.1,63.9,321.7,65,322L65,322z"/>
		</g>
		<g>
			<path class="st0" d="M43.6,304.8c0.3,0.2,0.7,0.5,1,0.7c0.9,0.7,1.7-0.8,0.9-1.5c-0.3-0.2-0.7-0.5-1-0.7
				C43.5,302.6,42.7,304.1,43.6,304.8L43.6,304.8z"/>
		</g>
	</g>
	<g>
		<path class="st0" d="M316.9,407.2c-1.6,2.3-3.1,5.8-2.8,8.7c0.1,1.1,1.8,1.1,1.7,0c-0.2-2.6,1.2-5.7,2.6-7.8
			C319,407.1,317.5,406.3,316.9,407.2L316.9,407.2z"/>
	</g>
	<g>
		<path class="st0" d="M320.8,405.6c19,5.7,39.5,12,56.1,23.2c0.9,0.6,1.8-0.9,0.9-1.5c-16.7-11.2-37.5-17.6-56.5-23.3
			C320.2,403.6,319.7,405.3,320.8,405.6L320.8,405.6z"/>
	</g>
	<g class="st1">
		<path class="st0" d="M335.3,413.2c-1.2,1.5-1.8,3.2-1.9,5.1c0,0.7,1,0.7,1,0c0.1-1.6,0.6-3.1,1.6-4.3
			C336.4,413.4,335.7,412.7,335.3,413.2L335.3,413.2z"/>
	</g>
	<g class="st1">
		<path class="st0" d="M340.1,414.9c-1.1,1.6-1.8,3.3-2.1,5.2c-0.1,0.6,0.9,0.9,1,0.3c0.3-1.8,1-3.4,2-5
			C341.3,414.9,340.4,414.4,340.1,414.9L340.1,414.9z"/>
	</g>
	<g class="st1">
		<path class="st0" d="M343.7,417.8c-0.5,1.2-1.1,2.3-1.6,3.5c-0.3,0.6,0.6,1.1,0.9,0.5c0.5-1.2,1.1-2.3,1.6-3.5
			C344.9,417.8,344,417.2,343.7,417.8L343.7,417.8z"/>
	</g>
	<g class="st1">
		<path class="st0" d="M350.2,419.1c-0.7,1.5-1.5,2.9-2.4,4.2c-0.4,0.5,0.5,1.1,0.9,0.5c0.9-1.3,1.7-2.7,2.4-4.2
			C351.4,419,350.5,418.5,350.2,419.1L350.2,419.1z"/>
	</g>
	<g class="st1">
		<path class="st0" d="M355.2,423.1c-0.4,1-0.9,2-1.3,3.1c-0.3,0.6,0.6,1.1,0.9,0.5c0.4-1,0.9-2,1.3-3.1
			C356.4,423,355.5,422.5,355.2,423.1L355.2,423.1z"/>
	</g>
	<g class="st1">
		<path class="st0" d="M362.5,426.8c-0.5,1.2-1.1,2.3-1.7,3.4c-0.3,0.6,0.6,1.1,0.9,0.5c0.6-1.1,1.2-2.3,1.7-3.4
			C363.7,426.7,362.8,426.2,362.5,426.8L362.5,426.8z"/>
	</g>
	<g class="st1">
		<path class="st0" d="M368.6,432c-0.5,0.8-0.9,1.6-1.4,2.4c-0.3,0.6,0.6,1.1,0.9,0.5c0.5-0.8,0.9-1.6,1.4-2.4
			C369.8,432,368.9,431.5,368.6,432L368.6,432z"/>
	</g>
	<g class="st1">
		<path class="st0" d="M376,435.7c-0.5,0.9-1.1,1.8-1.8,2.6c-0.4,0.5,0.3,1.2,0.7,0.7c0.8-0.9,1.4-1.8,1.9-2.8
			C377.2,435.7,376.3,435.2,376,435.7L376,435.7z"/>
	</g>
	<g class="st1">
		<path class="st0" d="M382.1,440.9c-0.3,1-0.8,1.8-1.4,2.6c-0.4,0.5,0.3,1.2,0.7,0.7c0.7-0.9,1.3-1.9,1.7-3.1
			C383.4,440.6,382.4,440.3,382.1,440.9L382.1,440.9z"/>
	</g>
	<g>
		<path class="st0" d="M164.5,361.3c11.7,7.7,20.5,18.5,32.7,25.5c10.8,6.2,22.5,10.5,34.3,14.2c26.9,8.6,55,14.4,78.6,30.8
			c0.9,0.6,1.8-0.9,0.9-1.5c-21.8-15.1-47.4-21.4-72.5-28.9c-13.9-4.2-27.8-8.9-40.4-16.1c-12.3-7-21.1-17.8-32.7-25.5
			C164.4,359.2,163.6,360.7,164.5,361.3L164.5,361.3z"/>
	</g>
	<g>
		<path class="st0" d="M411.1,485.8c-12.5,8.3-25.4,16.2-37.7,24.9c-13,9.2-25.6,20.8-41.3,25c-16.2,4.4-35.8-1.5-51.1-7.3
			c-14.4-5.5-28-13.1-40.6-22c-42.7-29.8-72.8-73.6-113.3-105.9c-0.9-0.7-2.1,0.5-1.2,1.2c43.4,34.6,75,82.1,122.3,112
			c21.8,13.8,54.1,29.6,80.8,24.6c14.9-2.8,27.6-13.2,39.4-21.9c14.1-10.4,29-19.5,43.5-29.1C412.8,486.7,412,485.2,411.1,485.8
			L411.1,485.8z"/>
	</g>
	<g>
		<path class="st0" d="M315.3,416.6c-4.1,8.1-7.8,17.9-6.7,27.1c0.1,1.1,1.8,1.1,1.7,0c-1-8.8,2.5-18.4,6.5-26.2
			C317.3,416.5,315.8,415.6,315.3,416.6L315.3,416.6z"/>
	</g>
	<g>
		<path class="st0" d="M383.3,433.3c8.3,4.8,15.8,10.5,22.7,17.2c0.8,0.8,2-0.4,1.2-1.2c-7-6.7-14.7-12.6-23.1-17.4
			C383.2,431.2,382.4,432.7,383.3,433.3L383.3,433.3z"/>
	</g>
	<g>
		<path class="st0" d="M600.7,221c6.5,1.7,9.4,6.5,14.4,10.3c2.9,2.3,5.7,3.1,9.4,2.2c1.1-0.3,0.6-1.9-0.5-1.7
			c-6.4,1.6-10-4.3-14.2-8.1c-2.5-2.3-5.5-3.7-8.7-4.5C600.1,219.1,599.6,220.8,600.7,221L600.7,221z"/>
	</g>
	<g>
		<path class="st0" d="M467.7,178.9c1.5,4.5,5.2,7.9,9.8,9.1c1.1,0.3,1.5-1.4,0.5-1.7c-4-1-7.3-3.9-8.6-7.9
			C469,177.4,467.4,177.8,467.7,178.9L467.7,178.9z"/>
	</g>
	<g>
		<path class="st0" d="M461,182.2c-0.8,6,2.2,10.7,4.1,16.5c1.1,3.5,1.6,6.5,5,8.3c5.7,3,14.1,1.2,20.3,3.3
			c7.2,2.4,9.8,3.4,17.5,3.8c3.5,0.2,7.4,0.6,10.6,2.4c2.2,1.2,4,3.8,6.2,4.8c0.8,0.3,1.7,0.7,2.6,0.8c5.3,0.7,11.1-4.2,16-5.4
			c12.7-3,25.3,9.6,33.2-6.4c0.5-1-1-1.9-1.5-0.9c-6.6,13.4-23,3.2-34.3,6.4c-7.4,2.1-9.7,5.8-17.8,2c-3.6-1.7-5.8-4.4-9.9-5.1
			c-6-1.1-11.4,0.3-17.4-1.7c-3.9-1.3-7.4-2.9-11.6-3.6c-6.3-1.1-14.4,0.2-17.2-7.6c-1-2.6-4.5-15.5-4.3-16.9
			C462.8,181.5,461.2,181.1,461,182.2L461,182.2z"/>
	</g>
	<g>
		<path class="st0" d="M460.1,167.9c2-1.2,4.2-1.4,6.5-1.2c1.4,0.1,2.6,0.4,3.9-0.3c1-0.5,0.1-2-0.9-1.5c-1.5,0.8-4.2-0.1-5.9,0
			c-1.6,0.1-3.1,0.6-4.5,1.5C458.3,167,459.2,168.5,460.1,167.9L460.1,167.9z"/>
	</g>
	<g>
		<path class="st0" d="M455,110.9c9.1,1.7,11.6-4.3,18.8-8.9c-0.6,0.3-0.6,1.5,0.2,1.6c1.8,0.2,0.9-0.2,2.7-0.5
			c4.1-0.6,6.8-2.6,11.2-2.5c3.9,0.1,7.9,1.5,11.6,2.5c0.8,0.2,1.5-0.8,0.8-1.4c-1.8-1.7-2.5,0.3,0.7,0.7c1,0.1,1.1-1.4,0.2-1.7
			c-1.5-0.6-3-1.1-4.5-1.4c-1.1-0.3-1.5,1.4-0.5,1.7c2.7,1.2,3,0.8,1-1.3c-0.9-0.4-1.5,1.2-0.7,1.6c-3.4-1.6-8.8-2.7-14.1-2.2
			c-0.7,0.1-3,0.2-3.7,0.5c-4,2.1,1.1,0.6-1.9,2.5c0.9-0.5,0.3-1.7-0.7-1.6c-7.4,1.3-12.6,10.2-20.8,8.7
			C454.4,109,453.9,110.7,455,110.9L455,110.9z"/>
	</g>
	<g>
		<path class="st0" d="M456.6,111c6.9-1.9,12.9-6.1,20-7.1c1-0.1,0.6-1.6-0.2-1.7c-3-0.3-3.7-0.5-6.1,0.9c-2.8,1.6-5.9,2.4-9,3.4
			c-1.6,0.5-4.5,1-5.7,2.2c-0.8,0.8-0.5,1.3-0.7,2.3c-0.1,0.6,0.4,1.3,1.1,1.1c0.3-0.1,0.6-0.2,0.9-0.4c1-0.4,0.6-2-0.5-1.7
			c-0.3,0.1-0.6,0.2-0.9,0.4c0.4,0.4,0.7,0.7,1.1,1.1c0.8-3.1,5.6-3.4,8.4-4.3c3.9-1.2,7.3-3.8,11.5-3.3c-0.1-0.6-0.2-1.1-0.2-1.7
			c-7.1,1-13.1,5.2-20,7.1C455.1,109.7,455.5,111.3,456.6,111L456.6,111z"/>
	</g>
	<g class="st1">
		<path class="st0" d="M457.4,183.7c-1.9,2.7-2.3,6-1,9c0.2,0.6,1.2,0.3,1-0.3c-1.2-2.8-0.8-5.7,0.9-8.2
			C458.6,183.7,457.7,183.2,457.4,183.7L457.4,183.7z"/>
	</g>
	<g class="st1">
		<path class="st0" d="M460.9,209.9c1.9,1.8,4.2,3.1,6.7,3.9c0.6,0.2,0.9-0.8,0.3-1c-2.3-0.8-4.4-2-6.2-3.7
			C461.2,208.7,460.5,209.4,460.9,209.9L460.9,209.9z"/>
	</g>
	<g class="st1">
		<path class="st0" d="M462.2,221.5c2.5,2.3,5.5,4,8.7,5.2c0.6,0.2,0.9-0.8,0.3-1c-3.1-1.1-5.8-2.7-8.2-4.9
			C462.5,220.3,461.7,221.1,462.2,221.5L462.2,221.5z"/>
	</g>
	<g class="st1">
		<path class="st0" d="M565.1,121.5c-0.7,2.3-2,4.3-3.8,5.9c-0.5,0.4,0.2,1.2,0.7,0.7c1.9-1.7,3.3-3.9,4-6.4
			C566.3,121.1,565.3,120.8,565.1,121.5L565.1,121.5z"/>
	</g>
	<g class="st1">
		<path class="st0" d="M599.5,153.9c2.3,3.8,5.6,6.6,9.7,8.3c0.6,0.3,0.9-0.7,0.3-1c-3.8-1.6-7-4.3-9.1-7.9
			C600.1,152.8,599.2,153.3,599.5,153.9L599.5,153.9z"/>
	</g>
	<g class="st1">
		<path class="st0" d="M603.8,151.7c2.1,2.8,4.7,5,7.9,6.5c0.6,0.3,1.1-0.6,0.5-0.9c-3-1.4-5.6-3.4-7.6-6.1
			C604.3,150.7,603.5,151.2,603.8,151.7L603.8,151.7z"/>
	</g>
	<g class="st1">
		<path class="st0" d="M607.4,149.1c1.2,1.7,2.7,3.1,4.6,4.1c0.6,0.3,1.1-0.6,0.5-0.9c-1.7-0.9-3.1-2.1-4.2-3.7
			C607.9,148,607,148.5,607.4,149.1L607.4,149.1z"/>
	</g>
	<g class="st1">
		<path class="st0" d="M552.6,107.5c5.2-2.1,8.1-6.8,10.8-11.4c0.3-0.6-0.6-1.1-0.9-0.5c-2.5,4.4-5.2,9-10.1,11
			C551.7,106.7,552,107.7,552.6,107.5L552.6,107.5z"/>
	</g>
	<g class="st1">
		<path class="st0" d="M580.1,99.6c2.2-4,5.3-7.3,9.2-9.7c0.6-0.4,0-1.2-0.5-0.9c-4,2.5-7.2,6-9.5,10.1
			C578.9,99.7,579.8,100.2,580.1,99.6L580.1,99.6z"/>
	</g>
	<g class="st1">
		<path class="st0" d="M530.1,64.7c0-4.4,1.4-8.4,4.2-11.8c0.4-0.5-0.3-1.2-0.7-0.7c-2.9,3.6-4.4,7.9-4.5,12.6
			C529.1,65.4,530.1,65.4,530.1,64.7L530.1,64.7z"/>
	</g>
	<g class="st1">
		<path class="st0" d="M534.7,62.9c1.3-5.4,4.2-10,8.6-13.5c0.5-0.4-0.2-1.1-0.7-0.7c-4.5,3.5-7.5,8.4-8.8,13.9
			C533.6,63.2,534.5,63.5,534.7,62.9L534.7,62.9z"/>
	</g>
	<g class="st1">
		<path class="st0" d="M522.9,30.7c1.8-4.4,4.8-8.2,8.6-11c0.5-0.4,0-1.3-0.5-0.9c-4.1,3-7.1,7-9.1,11.7
			C521.7,31,522.7,31.3,522.9,30.7L522.9,30.7z"/>
	</g>
	<g class="st1">
		<path class="st0" d="M504.9,31.2c1.7-3.6,3.8-7,6.3-10.2c0.4-0.5-0.3-1.2-0.7-0.7c-2.5,3.2-4.7,6.7-6.5,10.4
			C503.8,31.3,504.6,31.8,504.9,31.2L504.9,31.2z"/>
	</g>
	<g class="st1">
		<path class="st0" d="M509.4,31.7c0.8-1.7,1.7-3.3,2.8-4.8c0.4-0.5-0.5-1-0.9-0.5c-1.1,1.5-2.1,3.1-2.8,4.8
			C508.2,31.8,509.1,32.3,509.4,31.7L509.4,31.7z"/>
	</g>
	<g>
		<path class="st0" d="M586.4,106.9c3.3,1.1,6.7,1.7,10.2,1.8c1.1,0,1.1-1.7,0-1.7c-3.3-0.1-6.6-0.7-9.7-1.8
			C585.8,104.9,585.3,106.6,586.4,106.9L586.4,106.9z"/>
	</g>
	<g class="st1">
		<path class="st0" d="M548.3,20.8c6.9,0.4,12.4,4.4,17.6,8.4c0.5,0.4,1.3-0.3,0.7-0.7c-5.5-4.3-11.2-8.3-18.4-8.7
			C547.6,19.7,547.6,20.7,548.3,20.8L548.3,20.8z"/>
	</g>
	<g class="st1">
		<path class="st0" d="M555,19.3c3,0.6,5.7,1.7,8.2,3.4c0.6,0.4,1.1-0.5,0.5-0.9c-2.6-1.7-5.4-2.9-8.5-3.5
			C554.6,18.2,554.3,19.2,555,19.3L555,19.3z"/>
	</g>
	<g class="st1">
		<path class="st0" d="M559.3,17.3c1.3,0.2,2.5,0.6,3.7,1.3c0.6,0.3,1.1-0.6,0.5-0.9c-1.3-0.8-2.7-1.2-4.2-1.4
			C558.6,16.1,558.6,17.2,559.3,17.3L559.3,17.3z"/>
	</g>
	<g class="st1">
		<path class="st0" d="M557.9,44.7c3.3-0.7,6.6-0.5,9.8,0.7c0.6,0.2,0.9-0.8,0.3-1c-3.4-1.2-6.9-1.4-10.4-0.7
			C556.9,43.8,557.2,44.8,557.9,44.7L557.9,44.7z"/>
	</g>
	<g class="st1">
		<path class="st0" d="M560.1,41.5c2-0.2,3.9,0,5.8,0.5c0.6,0.2,0.9-0.8,0.3-1c-2-0.6-4-0.8-6.1-0.6
			C559.4,40.6,559.4,41.6,560.1,41.5L560.1,41.5z"/>
	</g>
	<g>
		<path class="st0" d="M532.2,33.9c-2.5,2.3-4.4,4.7-6.2,7.6c-2.1,3.6-5.1,5.9-9.2,6.8c-1.1,0.2-0.6,1.9,0.5,1.7
			c3.3-0.7,6.3-2.3,8.4-4.9c1.2-1.4,1.9-3,2.8-4.5c1.3-2.1,3.1-3.8,4.9-5.5C534.2,34.3,533,33.1,532.2,33.9L532.2,33.9z"/>
	</g>
	<g class="st1">
		<path class="st0" d="M531.2,44c2.5-5,6.9-8.4,12.3-9.6c0.6-0.1,0.4-1.1-0.3-1c-5.7,1.2-10.4,4.9-12.9,10.1
			C530,44.1,530.9,44.6,531.2,44L531.2,44z"/>
	</g>
	<g class="st1">
		<path class="st0" d="M536.9,33.1c2.1-1.5,4.5-2.3,7.1-2.5c0.7,0,0.7-1.1,0-1c-2.8,0.2-5.3,1.1-7.6,2.7
			C535.8,32.6,536.3,33.4,536.9,33.1L536.9,33.1z"/>
	</g>
	<g class="st1">
		<path class="st0" d="M462.4,54c0.5-2.1,1.4-4,2.6-5.7c0.4-0.5-0.5-1.1-0.9-0.5c-1.3,1.8-2.2,3.8-2.7,6
			C461.3,54.3,462.3,54.6,462.4,54L462.4,54z"/>
	</g>
	<g class="st1">
		<path class="st0" d="M465.7,52.4c0.7-1.3,1.4-2.6,2.1-4c0.3-0.6-0.6-1.1-0.9-0.5c-0.7,1.3-1.4,2.6-2.1,4
			C464.5,52.4,465.3,52.9,465.7,52.4L465.7,52.4z"/>
	</g>
	<g class="st1">
		<path class="st0" d="M448.8,52.7c1.5,1.8,2.2,4,2.1,6.4c0,0.7,1,0.7,1,0c0.1-2.6-0.8-5.1-2.4-7.1
			C449.2,51.4,448.4,52.2,448.8,52.7L448.8,52.7z"/>
	</g>
	<g class="st1">
		<path class="st0" d="M451.8,53.1c0.8,1.3,1.3,2.6,1.7,4c0.2,0.6,1.2,0.4,1-0.3c-0.4-1.5-1-2.9-1.8-4.2
			C452.3,52,451.4,52.5,451.8,53.1L451.8,53.1z"/>
	</g>
	<g class="st1">
		<path class="st0" d="M450.6,40.1c2.4,0.2,4.6,1.2,6.3,2.9c0.5,0.5,1.2-0.3,0.7-0.7c-1.9-1.9-4.3-2.9-7-3.2
			C449.9,39,450,40,450.6,40.1L450.6,40.1z"/>
	</g>
	<g class="st1">
		<path class="st0" d="M453.6,43.2c1,0.4,1.9,1,2.6,1.9c0.4,0.5,1.2-0.2,0.7-0.7c-0.8-0.9-1.7-1.6-2.8-2
			C453.5,42,453,42.9,453.6,43.2L453.6,43.2z"/>
	</g>
	<g class="st1">
		<path class="st0" d="M478.4,47.6c1.1-1.8,2.4-3.4,4-4.8c0.5-0.4-0.2-1.2-0.7-0.7c-1.7,1.4-3.1,3.1-4.2,5
			C477.2,47.6,478.1,48.1,478.4,47.6L478.4,47.6z"/>
	</g>
	<g class="st1">
		<path class="st0" d="M482.2,47.2c0.5-1,1.1-1.8,2-2.4c0.5-0.4,0-1.3-0.5-0.9c-1.1,0.7-1.9,1.6-2.4,2.8
			C481.1,47.3,482,47.8,482.2,47.2L482.2,47.2z"/>
	</g>
	<g class="st1">
		<path class="st0" d="M439.2,57.4c1.2,1.4,2.2,3,2.9,4.7c0.3,0.6,1.1,0.1,0.9-0.5c-0.8-1.8-1.8-3.5-3.1-4.9
			C439.4,56.2,438.7,56.9,439.2,57.4L439.2,57.4z"/>
	</g>
	<g class="st1">
		<path class="st0" d="M439.4,54.1c1.8,1.3,3.3,3.1,4.1,5.1c0.2,0.6,1.2,0.3,1-0.3c-0.9-2.4-2.5-4.3-4.6-5.8
			C439.4,52.8,438.9,53.7,439.4,54.1L439.4,54.1z"/>
	</g>
	<g class="st1">
		<path class="st0" d="M460.7,30.1c3.3-1.7,6.9-2.3,10.6-1.6c0.6,0.1,0.9-0.9,0.3-1c-4-0.7-7.8-0.1-11.4,1.7
			C459.6,29.5,460.2,30.4,460.7,30.1L460.7,30.1z"/>
	</g>
	<g class="st1">
		<path class="st0" d="M465.5,33.3c1.9-0.8,3.9-1,6-0.8c0.7,0.1,0.6-0.9,0-1c-2.2-0.3-4.3,0-6.3,0.8
			C464.6,32.5,464.8,33.5,465.5,33.3L465.5,33.3z"/>
	</g>
	<g class="st1">
		<path class="st0" d="M481.7,16.9c1.9-3.9,4.9-7,8.6-9.1c0.6-0.3,0.1-1.2-0.5-0.9c-3.9,2.2-7,5.5-9,9.5
			C480.6,17,481.4,17.5,481.7,16.9L481.7,16.9z"/>
	</g>
	<g class="st1">
		<path class="st0" d="M486.7,14.1c0.7-1,1.6-1.7,2.7-2.3c0.6-0.3,0.1-1.2-0.5-0.9c-1.2,0.7-2.3,1.5-3.1,2.7
			C485.4,14.1,486.3,14.6,486.7,14.1L486.7,14.1z"/>
	</g>
	<g class="st1">
		<path class="st0" d="M590,115.4c3.6,1.5,7.4,2,11.2,1.2c0.7-0.1,0.4-1.1-0.3-1c-3.6,0.7-7.1,0.3-10.4-1.1
			C589.9,114.2,589.4,115.1,590,115.4L590,115.4z"/>
	</g>
	<g class="st1">
		<path class="st0" d="M591.8,113.1c2.5,1.4,5.5,1.1,8.3,1.2c0.7,0,0.7-1,0-1c-2.6,0-5.4,0.3-7.7-1
			C591.7,111.8,591.2,112.7,591.8,113.1L591.8,113.1z"/>
	</g>
	<g class="st1">
		<path class="st0" d="M598,92.3c2.2,1,4,2.7,5.1,4.9c0.3,0.6,1.2,0.1,0.9-0.5c-1.2-2.3-3.1-4.2-5.5-5.2
			C597.9,91.1,597.4,92,598,92.3L598,92.3z"/>
	</g>
	<g class="st1">
		<path class="st0" d="M598.6,89.5c2.7,0.6,4.9,2.4,5.9,4.9c0.2,0.6,1.2,0.3,1-0.3c-1.1-2.9-3.6-5-6.6-5.7
			C598.2,88.3,598,89.3,598.6,89.5L598.6,89.5z"/>
	</g>
	<g class="st1">
		<path class="st0" d="M584.1,58.5c4.7-0.1,9.4,0.8,13,4c0.5,0.4,1.2-0.3,0.7-0.7c-3.8-3.4-8.7-4.4-13.7-4.3
			C583.5,57.4,583.5,58.5,584.1,58.5L584.1,58.5z"/>
	</g>
	<g class="st1">
		<path class="st0" d="M585.2,55.6c2,0,3.9,0.4,5.7,1.2c0.6,0.3,1.1-0.6,0.5-0.9c-2-0.9-4.1-1.3-6.2-1.4
			C584.5,54.5,584.5,55.5,585.2,55.6L585.2,55.6z"/>
	</g>
	<g class="st1">
		<path class="st0" d="M542.2,98.2c6,0.6,9.9-5.1,12.7-9.5c0.4-0.6-0.5-1.1-0.9-0.5c-2.6,4.1-6.2,9.6-11.8,9
			C541.6,97.1,541.6,98.1,542.2,98.2L542.2,98.2z"/>
	</g>
	<g class="st1">
		<path class="st0" d="M541.5,94.4c4.7,1.1,7.8-3.5,9.9-7.1c0.3-0.6-0.5-1.1-0.9-0.5c-1.8,3.1-4.7,7.5-8.8,6.6
			C541.1,93.3,540.9,94.3,541.5,94.4L541.5,94.4z"/>
	</g>
	<g class="st1">
		<path class="st0" d="M600.1,128.3c3.1-0.5,6.3,2.2,8.6,4.1c2,1.7,3.6,3.6,4.4,6c0.2,0.6,1.2,0.4,1-0.3c-1-3-3-5.2-5.4-7.1
			c-2.6-2-5.4-4.3-8.8-3.8C599.2,127.4,599.5,128.4,600.1,128.3L600.1,128.3z"/>
	</g>
	<g class="st1">
		<path class="st0" d="M602.2,125.5c2.1,0.2,4,0.9,5.6,2.1c0.5,0.4,1.1-0.5,0.5-0.9c-1.8-1.3-3.9-2.1-6.2-2.2
			C601.5,124.4,601.5,125.4,602.2,125.5L602.2,125.5z"/>
	</g>
	<g class="st1">
		<path class="st0" d="M610.5,129.3c2.6,1.3,4.6,3.4,5.8,6c0.3,0.6,1.2,0.1,0.9-0.5c-1.3-2.8-3.4-5-6.1-6.4
			C610.4,128.1,609.9,129,610.5,129.3L610.5,129.3z"/>
	</g>
	<g class="st1">
		<path class="st0" d="M604.2,122.3c5.2,1.5,9.6,4.4,13.1,8.5c0.4,0.5,1.1-0.2,0.7-0.7c-3.5-4.3-8.2-7.3-13.5-8.8
			C603.9,121.1,603.6,122.1,604.2,122.3L604.2,122.3z"/>
	</g>
	<g class="st1">
		<path class="st0" d="M611.7,122.2c2.1,0.5,3.9,1.7,5.4,3.3c0.4,0.5,1.2-0.2,0.7-0.7c-1.5-1.8-3.5-3-5.8-3.6
			C611.3,121.1,611.1,122.1,611.7,122.2L611.7,122.2z"/>
	</g>
	<g class="st1">
		<path class="st0" d="M597.7,138.5c0.3,3.1,1.3,6.1,2.9,8.8c0.3,0.6,1.2,0.1,0.9-0.5c-1.5-2.6-2.4-5.3-2.7-8.3
			C598.7,137.8,597.7,137.8,597.7,138.5L597.7,138.5z"/>
	</g>
	<g class="st1">
		<path class="st0" d="M600.6,137.5c0.5,2.5,1.3,4.9,2.6,7.2c0.3,0.6,1.2,0.1,0.9-0.5c-1.2-2.2-2-4.5-2.5-6.9
			C601.5,136.6,600.5,136.9,600.6,137.5L600.6,137.5z"/>
	</g>
	<g class="st1">
		<path class="st0" d="M591.2,156.5c3.3,9.7,9.7,18.7,20.5,20.4c0.6,0.1,0.9-0.9,0.3-1c-10.4-1.6-16.6-10.3-19.8-19.7
			C592,155.6,591,155.9,591.2,156.5L591.2,156.5z"/>
	</g>
	<g class="st1">
		<path class="st0" d="M605.4,171.4c3.9,1.8,7.9,3.5,12.1,1.7c0.6-0.3,0.1-1.1-0.5-0.9c-3.8,1.6-7.6-0.1-11.1-1.7
			C605.4,170.3,604.8,171.2,605.4,171.4L605.4,171.4z"/>
	</g>
	<g class="st1">
		<path class="st0" d="M597.8,173.7c2,2.4,4.5,4,7.5,4.9c0.6,0.2,0.9-0.8,0.3-1c-2.8-0.8-5.2-2.4-7-4.6
			C598.2,172.4,597.4,173.2,597.8,173.7L597.8,173.7z"/>
	</g>
	<g class="st1">
		<path class="st0" d="M540,84c1.2-2.8,3.5-4.9,5.7-7c0.5-0.4-0.2-1.2-0.7-0.7c-2.4,2.2-4.7,4.4-6,7.4C538.7,84.4,539.7,84.6,540,84
			L540,84z"/>
	</g>
	<g class="st1">
		<path class="st0" d="M538.3,79.9c1.2-1.8,2.6-3.4,4.4-4.8c0.5-0.4-0.2-1.1-0.7-0.7c-1.8,1.4-3.3,3.1-4.5,5
			C537.1,80,537.9,80.5,538.3,79.9L538.3,79.9z"/>
	</g>
	<g class="st1">
		<path class="st0" d="M535.7,76.7c0.9-1.5,2.1-2.6,3.5-3.5c0.6-0.3,0.1-1.2-0.5-0.9c-1.6,1-2.9,2.3-3.9,3.9
			C534.5,76.7,535.4,77.2,535.7,76.7L535.7,76.7z"/>
	</g>
	<g class="st1">
		<path class="st0" d="M561.5,75.1c1.9-2.3,4.1-4.2,6.6-5.7c0.6-0.3,0.1-1.2-0.5-0.9c-2.6,1.6-4.9,3.5-6.8,5.8
			C560.3,74.9,561,75.6,561.5,75.1L561.5,75.1z"/>
	</g>
	<g class="st1">
		<path class="st0" d="M563.7,77.3c2-2.3,4.1-4.4,6.5-6.2c0.5-0.4-0.2-1.1-0.7-0.7c-2.4,1.9-4.5,4-6.5,6.2
			C562.5,77.1,563.2,77.8,563.7,77.3L563.7,77.3z"/>
	</g>
	<g class="st1">
		<path class="st0" d="M585.3,67.3c2.3-0.1,4.6,0.4,6.7,1.4c0.6,0.3,1.1-0.6,0.5-0.9c-2.3-1.1-4.7-1.6-7.2-1.5
			C584.7,66.3,584.7,67.4,585.3,67.3L585.3,67.3z"/>
	</g>
	<g class="st1">
		<path class="st0" d="M585.6,65.2c1.4,0.1,2.8,0.3,4.1,0.6c0.6,0.2,0.9-0.8,0.3-1c-1.5-0.4-2.9-0.6-4.4-0.7
			C585,64.2,585,65.2,585.6,65.2L585.6,65.2z"/>
	</g>
	<g class="st1">
		<path class="st0" d="M603.8,74.9c0.9,2.8,2.6,5.2,5.1,6.9c0.5,0.4,1.1-0.5,0.5-0.9c-2.2-1.6-3.8-3.8-4.6-6.3
			C604.6,74,603.6,74.3,603.8,74.9L603.8,74.9z"/>
	</g>
	<g class="st1">
		<path class="st0" d="M605.6,69c0.5,2.7,0.8,5.6,2.4,7.9c0.4,0.5,1.3,0,0.9-0.5c-1.6-2.2-1.8-5.1-2.3-7.7
			C606.5,68.1,605.5,68.4,605.6,69L605.6,69z"/>
	</g>
	<g class="st1">
		<path class="st0" d="M577.5,37.7c2.5,1.7,3.9,4.3,5.7,6.6c1.7,2.2,3.8,3.8,6.3,5.1c0.6,0.3,1.1-0.6,0.5-0.9
			c-3.1-1.6-5.3-3.8-7.3-6.7c-1.4-1.9-2.7-3.7-4.7-5.1C577.4,36.4,576.9,37.3,577.5,37.7L577.5,37.7z"/>
	</g>
	<g class="st1">
		<path class="st0" d="M584.6,40.3c1.6,2.4,3.3,4.8,5.6,6.6c0.5,0.4,1.2-0.3,0.7-0.7c-2.2-1.8-3.8-4.1-5.4-6.4
			C585.1,39.2,584.2,39.8,584.6,40.3L584.6,40.3z"/>
	</g>
	<g class="st1">
		<path class="st0" d="M585.8,37c0.9,1.1,1.7,2.2,2.3,3.5c0.3,0.6,1.2,0.1,0.9-0.5c-0.6-1.4-1.4-2.6-2.4-3.7
			C586.1,35.7,585.4,36.5,585.8,37L585.8,37z"/>
	</g>
	<g class="st1">
		<path class="st0" d="M617.3,111.9c4.1,1.2,7.4,4.2,8.8,8.2c0.2,0.6,1.2,0.4,1-0.3c-1.6-4.4-5.1-7.6-9.5-8.9
			C616.9,110.7,616.7,111.7,617.3,111.9L617.3,111.9z"/>
	</g>
	<g class="st1">
		<path class="st0" d="M500.6,20.2c2-3.2,4.8-5.6,8.1-7.3c0.6-0.3,0.1-1.2-0.5-0.9c-3.5,1.7-6.4,4.4-8.5,7.7
			C499.4,20.3,500.3,20.8,500.6,20.2L500.6,20.2z"/>
	</g>
	<g class="st1">
		<path class="st0" d="M500,17.2c1.3-2.3,3.2-4,5.6-5.1c0.6-0.3,0.1-1.2-0.5-0.9c-2.5,1.2-4.6,3.1-6,5.5
			C498.7,17.2,499.6,17.8,500,17.2L500,17.2z"/>
	</g>
	<g class="st1">
		<path class="st0" d="M498.6,15.4c0.6-1,1.4-1.9,2.2-2.7c0.5-0.4-0.2-1.2-0.7-0.7c-0.9,0.9-1.7,1.8-2.4,2.9
			C497.4,15.5,498.3,16,498.6,15.4L498.6,15.4z"/>
	</g>
	<g class="st1">
		<path class="st0" d="M507.3,48.6c5.3,0.2,10.3-1.8,14.1-5.5c0.5-0.5-0.3-1.2-0.7-0.7c-3.6,3.6-8.3,5.4-13.4,5.2
			C506.6,47.6,506.6,48.6,507.3,48.6L507.3,48.6z"/>
	</g>
	<g class="st1">
		<path class="st0" d="M510.6,46.5c1.9-0.5,3.6-1.6,4.9-3.1c0.4-0.5-0.3-1.2-0.7-0.7c-1.2,1.4-2.7,2.3-4.5,2.8
			C509.7,45.6,509.9,46.6,510.6,46.5L510.6,46.5z"/>
	</g>
	<g class="st1">
		<path class="st0" d="M493.8,43.6c1.4,0,2.2,2.2,2.5,3.3c0.2,0.6,1.2,0.4,1-0.3c-0.5-1.6-1.5-4.1-3.5-4
			C493.1,42.6,493.1,43.6,493.8,43.6L493.8,43.6z"/>
	</g>
	<g class="st1">
		<path class="st0" d="M492.1,45.6c0.7,0.2,1.3,0.6,1.5,1.3c0.2,0.6,1.2,0.4,1-0.3c-0.3-1.1-1.1-1.8-2.2-2
			C491.8,44.4,491.5,45.4,492.1,45.6L492.1,45.6z"/>
	</g>
	<g class="st1">
		<path class="st0" d="M490.2,47.3L490.2,47.3c0.5,0.6,1.2-0.2,0.8-0.7c-0.3-0.3-0.4-0.3-0.8-0.4C489.5,46.2,489.5,47.2,490.2,47.3
			L490.2,47.3z"/>
	</g>
	<g class="st1">
		<path class="st0" d="M537.6,15.3c1.8-1.1,3.6-1.7,5.7-2c0.6-0.1,0.7-1.1,0-1c-2.2,0.3-4.3,1-6.2,2.1
			C536.5,14.8,537,15.6,537.6,15.3L537.6,15.3z"/>
	</g>
	<g class="st1">
		<path class="st0" d="M527.9,11.2c1.9-1.3,3.9-2.1,6.1-2.6c0.6-0.1,0.4-1.1-0.3-1c-2.3,0.5-4.4,1.4-6.3,2.7
			C526.9,10.7,527.4,11.6,527.9,11.2L527.9,11.2z"/>
	</g>
	<g class="st1">
		<path class="st0" d="M527.2,9.4c0.7-0.4,1.3-0.7,2.1-0.9c0.6-0.2,0.4-1.2-0.3-1c-0.8,0.2-1.6,0.5-2.3,1
			C526.1,8.9,526.7,9.8,527.2,9.4L527.2,9.4z"/>
	</g>
	<g class="st1">
		<path class="st0" d="M542.3,55.1c-1.1,2.1-2.2,4.2-3.1,6.4c-0.3,0.6,0.6,1.1,0.9,0.5c0.9-2.2,2-4.3,3.1-6.4
			C543.6,55.1,542.7,54.5,542.3,55.1L542.3,55.1z"/>
	</g>
	<g class="st1">
		<path class="st0" d="M563.8,111.4c2.8-1.4,5-3.7,6.3-6.6c0.3-0.6-0.6-1.1-0.9-0.5c-1.2,2.7-3.3,4.9-6,6.2
			C562.7,110.8,563.2,111.7,563.8,111.4L563.8,111.4z"/>
	</g>
	<g class="st1">
		<path class="st0" d="M569.9,109.6c1.6-1.3,2.7-3,3.4-4.9c0.2-0.6-0.8-0.9-1-0.3c-0.6,1.8-1.7,3.2-3.1,4.4
			C568.7,109.3,569.4,110,569.9,109.6L569.9,109.6z"/>
	</g>
	<g class="st1">
		<path class="st0" d="M574.6,107.8c1.1-1.2,1.9-2.6,2.6-4.1c0.3-0.6-0.7-0.9-1-0.3c-0.6,1.4-1.3,2.6-2.3,3.7
			C573.4,107.6,574.2,108.3,574.6,107.8L574.6,107.8z"/>
	</g>
	<g class="st1">
		<path class="st0" d="M547.8,104.6c2.7,0.3,5.3-0.6,7.2-2.6c0.5-0.5-0.3-1.2-0.7-0.7c-1.7,1.8-4,2.6-6.4,2.3
			C547.1,103.4,547.1,104.5,547.8,104.6L547.8,104.6z"/>
	</g>
	<g class="st1">
		<path class="st0" d="M557.8,108.5c1.5-1,2.6-2.3,3.4-3.9c0.3-0.6-0.6-1.1-0.9-0.5c-0.7,1.5-1.6,2.7-3,3.5
			C556.7,108,557.2,108.9,557.8,108.5L557.8,108.5z"/>
	</g>
	<g class="st1">
		<path class="st0" d="M580.7,109.6c1.1,1,2.3,1.6,3.8,1.9c0.6,0.1,0.9-0.9,0.3-1c-1.3-0.3-2.3-0.8-3.3-1.7
			C580.9,108.5,580.2,109.2,580.7,109.6L580.7,109.6z"/>
	</g>
	<g class="st1">
		<path class="st0" d="M582.3,107.6c1,0.6,2.1,1,3.2,1.3c0.6,0.1,0.9-0.8,0.3-1c-1-0.2-2-0.6-2.9-1.2
			C582.3,106.4,581.7,107.3,582.3,107.6L582.3,107.6z"/>
	</g>
	<g class="st1">
		<path class="st0" d="M617.2,145c1.6,2.6,4.1,4.3,7.1,4.9c0.6,0.1,0.9-0.9,0.3-1c-2.7-0.5-5-2.1-6.5-4.5
			C617.7,143.9,616.8,144.4,617.2,145L617.2,145z"/>
	</g>
	<g class="st1">
		<path class="st0" d="M620.9,143.9c0.8,1.6,2,2.8,3.5,3.7c0.6,0.3,1.1-0.6,0.5-0.9c-1.4-0.8-2.4-1.9-3.1-3.3
			C621.5,142.8,620.6,143.3,620.9,143.9L620.9,143.9z"/>
	</g>
	<g class="st1">
		<path class="st0" d="M619.1,163.8c1.7,0.5,3.3,0.4,4.9-0.4c0.6-0.3,0.1-1.2-0.5-0.9c-1.3,0.6-2.7,0.7-4.1,0.3
			C618.7,162.6,618.5,163.6,619.1,163.8L619.1,163.8z"/>
	</g>
	<g class="st1">
		<path class="st0" d="M621.2,160.8c1.4,0.2,2.7,0,4-0.5c0.6-0.2,0.3-1.2-0.3-1c-1.2,0.5-2.4,0.6-3.7,0.5
			C620.6,159.6,620.6,160.7,621.2,160.8L621.2,160.8z"/>
	</g>
	<g class="st1">
		<path class="st0" d="M622.6,157.4c0.9,0.2,1.7,0.3,2.5,0.2c0.7,0,0.7-1.1,0-1c-0.8,0.1-1.5,0-2.3-0.2
			C622.2,156.2,622,157.2,622.6,157.4L622.6,157.4z"/>
	</g>
	<g class="st1">
		<path class="st0" d="M496.9,190v-0.1c-0.2-0.6-1.1-0.4-1,0.3c0.4,2.1,1.5,4,3.3,5.4c0.5,0.4,1.2-0.3,0.7-0.7
			C498.3,193.6,497.3,192,496.9,190c-0.3,0.1-0.7,0.2-1,0.3v0.1C496.1,190.9,497.1,190.7,496.9,190L496.9,190z"/>
	</g>
	<g class="st1">
		<path class="st0" d="M499,190.9c0.6,1.1,1.3,2,2.1,2.9c0.4,0.5,1.2-0.2,0.7-0.7c-0.8-0.8-1.4-1.7-1.9-2.7
			C499.6,189.8,498.7,190.3,499,190.9L499,190.9z"/>
	</g>
	<g class="st1">
		<path class="st0" d="M485,181.5c0.4,2.1,1.1,4,2.2,5.8c0.4,0.6,1.2,0,0.9-0.5c-1.1-1.7-1.8-3.6-2.1-5.6
			C485.9,180.6,484.9,180.9,485,181.5L485,181.5z"/>
	</g>
	<g class="st1">
		<path class="st0" d="M482,220.9c2.8,1,5.7,1.2,8.6,0.4c0.6-0.2,0.4-1.2-0.3-1c-2.7,0.7-5.4,0.6-8.1-0.4
			C481.7,219.7,481.4,220.7,482,220.9L482,220.9z"/>
	</g>
	<g class="st1">
		<path class="st0" d="M484.7,218.3c2.8,0.9,5.6,0.9,8.4,0c0.6-0.2,0.4-1.2-0.3-1c-2.6,0.9-5.2,0.9-7.8,0
			C484.3,217.1,484.1,218.1,484.7,218.3L484.7,218.3z"/>
	</g>
	<g class="st1">
		<path class="st0" d="M486.3,215.3c1.7,0.7,3.4,1.1,5.3,1c0.7,0,0.7-1.1,0-1c-1.7,0.1-3.2-0.2-4.8-0.8
			C486.2,214.2,485.7,215.1,486.3,215.3L486.3,215.3z"/>
	</g>
	<g class="st1">
		<path class="st0" d="M454.4,283.8c0.7-2.7,1.9-5.2,3.5-7.5c0.4-0.5-0.5-1.1-0.9-0.5c-1.7,2.4-2.9,4.9-3.6,7.7
			C453.2,284.1,454.2,284.4,454.4,283.8L454.4,283.8z"/>
	</g>
	<g class="st1">
		<path class="st0" d="M457.6,283.5c0.6-2,1.5-3.8,2.7-5.5c0.4-0.6-0.5-1.1-0.9-0.5c-1.2,1.8-2.1,3.7-2.8,5.8
			C456.4,283.9,457.4,284.1,457.6,283.5L457.6,283.5z"/>
	</g>
	<g class="st1">
		<path class="st0" d="M516.8,301.6c2.5-3.3,6.2-5.3,10.3-5.6c0.7,0,0.7-1.1,0-1c-4.5,0.3-8.5,2.5-11.2,6.1
			C515.5,301.6,516.4,302.1,516.8,301.6L516.8,301.6z"/>
	</g>
	<g class="st1">
		<path class="st0" d="M514.5,299.4c1.2-2,3-3.4,5.2-4.1c0.6-0.2,0.4-1.2-0.3-1c-2.4,0.8-4.5,2.4-5.8,4.6
			C513.3,299.4,514.2,300,514.5,299.4L514.5,299.4z"/>
	</g>
	<g class="st1">
		<path class="st0" d="M591.7,228.9c4.5-1.6,9-0.5,13.2,1.4c0.6,0.3,1.1-0.6,0.5-0.9c-4.5-2-9.3-3.2-14-1.5
			C590.8,228.1,591.1,229.1,591.7,228.9L591.7,228.9z"/>
	</g>
	<g class="st1">
		<path class="st0" d="M594,225.4c2.4-0.6,4.8-0.5,7.2,0.5c0.6,0.2,0.9-0.8,0.3-1c-2.5-1-5.1-1.1-7.7-0.5
			C593.1,224.6,593.3,225.6,594,225.4L594,225.4z"/>
	</g>
	<g class="st1">
		<path class="st0" d="M596.5,222.6c0.9,0,1.8,0.1,2.7,0.4c0.6,0.2,0.9-0.8,0.3-1c-1-0.3-1.9-0.5-3-0.4
			C595.8,221.6,595.8,222.7,596.5,222.6L596.5,222.6z"/>
	</g>
	<g class="st1">
		<path class="st0" d="M605.9,208.1c2.7,0.3,5.2,1.4,7.2,3.3c0.5,0.5,1.2-0.3,0.7-0.7c-2.2-2.1-4.9-3.3-7.9-3.6
			C605.2,207,605.2,208,605.9,208.1L605.9,208.1z"/>
	</g>
	<g class="st1">
		<path class="st0" d="M609.8,205.7c0.8,0.4,1.6,0.9,2.4,1.3c0.6,0.3,1.1-0.6,0.5-0.9c-0.8-0.4-1.6-0.9-2.4-1.3
			C609.7,204.5,609.2,205.4,609.8,205.7L609.8,205.7z"/>
	</g>
	<g class="st1">
		<path class="st0" d="M564,228.8c5.7,1.4,11.6-0.4,15.5-4.9c0.4-0.5-0.3-1.2-0.7-0.7c-3.7,4.1-9.1,5.9-14.5,4.6
			C563.6,227.6,563.3,228.6,564,228.8L564,228.8z"/>
	</g>
	<g class="st1">
		<path class="st0" d="M566.9,225.6c5.3-0.7,9.8-4,12-8.9c0.3-0.6-0.6-1.1-0.9-0.5c-2,4.6-6.2,7.8-11.1,8.4
			C566.3,224.7,566.3,225.7,566.9,225.6L566.9,225.6z"/>
	</g>
	<g class="st1">
		<path class="st0" d="M567.6,222.5c1.8-0.1,3.3-0.7,4.7-1.8c0.5-0.4-0.2-1.1-0.7-0.7c-1.1,0.9-2.5,1.4-3.9,1.5
			C566.9,221.5,566.9,222.5,567.6,222.5L567.6,222.5z"/>
	</g>
	<g>
		<path class="st0" d="M543.5,276.2c0.4-10.6,8.1-19.5,18.6-20.5c6.4-0.6,12.6-0.2,18.9-2c1.1-0.3,0.6-2-0.5-1.7
			c-9,2.6-18.8,0-27.3,4.3c-6.8,3.4-11.1,12.5-11.4,19.9C541.7,277.3,543.5,277.3,543.5,276.2L543.5,276.2z"/>
	</g>
	<g class="st1">
		<path class="st0" d="M471,287.5c2.9-1.3,5.5-3.2,7.7-5.5c0.5-0.5-0.3-1.2-0.7-0.7c-2.2,2.2-4.7,4-7.5,5.3
			C469.9,286.9,470.4,287.8,471,287.5L471,287.5z"/>
	</g>
	<g class="st1">
		<path class="st0" d="M470.9,284.6c2.6-2,5.2-4,7.9-6c0.5-0.4,0-1.3-0.5-0.9c-2.6,2-5.2,4-7.9,6C469.8,284.1,470.3,285,470.9,284.6
			L470.9,284.6z"/>
	</g>
	<g class="st1">
		<path class="st0" d="M470.5,281c1.2-1.1,2.4-2.2,3.6-3.3c0.5-0.4-0.2-1.2-0.7-0.7c-1.2,1.1-2.4,2.2-3.6,3.3
			C469.3,280.7,470,281.4,470.5,281L470.5,281z"/>
	</g>
	<g class="st1">
		<path class="st0" d="M465.3,299.4c1.6,1.6,3.7,2.4,5.9,2.5c0.7,0,0.7-1,0-1c-2,0-3.8-0.8-5.2-2.2
			C465.5,298.2,464.8,298.9,465.3,299.4L465.3,299.4z"/>
	</g>
	<g class="st1">
		<path class="st0" d="M510.1,269.5c4.7-2.4,8-6.8,8.9-12c0.1-0.6-0.9-0.9-1-0.3c-0.9,5-3.9,9.1-8.4,11.4
			C509,268.9,509.5,269.8,510.1,269.5L510.1,269.5z"/>
	</g>
	<g class="st1">
		<path class="st0" d="M517.2,269.9c2.8-2.6,4.4-6,4.8-9.8c0.1-0.7-1-0.7-1,0c-0.3,3.6-1.9,6.7-4.5,9.1
			C516,269.6,516.7,270.4,517.2,269.9L517.2,269.9z"/>
	</g>
	<g class="st1">
		<path class="st0" d="M521.1,271.7c2.2-2.9,3.4-6.1,3.8-9.7c0.1-0.7-1-0.7-1,0c-0.3,3.4-1.6,6.5-3.6,9.2
			C519.8,271.7,520.7,272.2,521.1,271.7L521.1,271.7z"/>
	</g>
	<g class="st1">
		<path class="st0" d="M533.1,248.7c1.5-1.6,3.3-2.7,5.5-3.1c0.7-0.1,0.4-1.1-0.3-1c-2.3,0.4-4.4,1.6-5.9,3.3
			C531.9,248.5,532.7,249.2,533.1,248.7L533.1,248.7z"/>
	</g>
	<g class="st1">
		<path class="st0" d="M530.1,246.7c1.5-1.7,3.2-3.1,5.3-4.1c0.6-0.3,0.1-1.2-0.5-0.9c-2.1,1-4,2.4-5.5,4.2
			C528.9,246.5,529.7,247.2,530.1,246.7L530.1,246.7z"/>
	</g>
	<g class="st1">
		<path class="st0" d="M528.6,244.2c0.8-1.1,1.9-2,3.1-2.6c0.6-0.3,0.1-1.2-0.5-0.9c-1.4,0.7-2.5,1.7-3.5,3
			C527.4,244.2,528.2,244.8,528.6,244.2L528.6,244.2z"/>
	</g>
	<g class="st1">
		<path class="st0" d="M546.3,280.9c1.1-1.2,2.4-2.1,4-2.5c0.6-0.2,0.4-1.2-0.3-1c-1.8,0.5-3.3,1.4-4.5,2.7
			C545.1,280.6,545.8,281.4,546.3,280.9L546.3,280.9z"/>
	</g>
	<g class="st1">
		<path class="st0" d="M545.1,278.8c0.3-0.3,0.7-0.6,1-0.9c0.5-0.4-0.2-1.2-0.7-0.7c-0.3,0.3-0.7,0.6-1,0.9
			C543.9,278.5,544.6,279.2,545.1,278.8L545.1,278.8z"/>
	</g>
	<g class="st1">
		<path class="st0" d="M460.8,231.8c1.2,1.9,3,3.2,5.2,3.6c0.6,0.1,0.9-0.9,0.3-1c-1.9-0.4-3.6-1.5-4.6-3.2
			C461.4,230.7,460.5,231.2,460.8,231.8L460.8,231.8z"/>
	</g>
	<g class="st1">
		<path class="st0" d="M464.8,231.7c1,0.4,1.9,0.8,2.9,1.2c0.6,0.2,0.9-0.8,0.3-1c-1-0.4-1.9-0.8-2.9-1.2
			C464.4,230.5,464.1,231.5,464.8,231.7L464.8,231.7z"/>
	</g>
	<g class="st1">
		<path class="st0" d="M542.5,264.1c0.3-2.2,1.3-4.3,2.8-5.9c0.5-0.5-0.3-1.2-0.7-0.7c-1.7,1.9-2.8,4.1-3.1,6.6
			C541.4,264.8,542.4,264.8,542.5,264.1L542.5,264.1z"/>
	</g>
	<g class="st1">
		<path class="st0" d="M539.5,262.4c0.1-2,1-3.8,2.4-5.1c0.5-0.5-0.2-1.2-0.7-0.7c-1.7,1.6-2.6,3.6-2.7,5.9
			C538.4,263.1,539.4,263.1,539.5,262.4L539.5,262.4z"/>
	</g>
	<g class="st1">
		<path class="st0" d="M536.6,259.8c0.2-0.9,0.5-1.7,1-2.5c0.4-0.5-0.5-1.1-0.9-0.5c-0.6,0.8-1,1.7-1.1,2.7
			C535.5,260.1,536.5,260.4,536.6,259.8L536.6,259.8z"/>
	</g>
	<g class="st1">
		<path class="st0" d="M576.7,250.3c5-0.7,8.6-4,11.7-7.8c0.4-0.5-0.3-1.2-0.7-0.7c-3,3.6-6.4,6.8-11.2,7.5
			C575.7,249.4,576,250.4,576.7,250.3L576.7,250.3z"/>
	</g>
	<g class="st1">
		<path class="st0" d="M577.3,246.8c2.4-0.9,4.5-2.4,6.1-4.4c0.4-0.5-0.3-1.2-0.7-0.7c-1.5,1.9-3.4,3.3-5.6,4.2
			C576.4,246,576.7,247,577.3,246.8L577.3,246.8z"/>
	</g>
	<g class="st1">
		<path class="st0" d="M576.8,244c0.6-0.4,1.3-0.8,1.9-1.1c0.6-0.3,0.1-1.2-0.5-0.9c-0.6,0.4-1.3,0.8-1.9,1.1
			C575.7,243.5,576.2,244.4,576.8,244L576.8,244z"/>
	</g>
	<g class="st1">
		<path class="st0" d="M599.6,238.4c4-0.7,7.6,1.1,11,3.1c0.6,0.3,1.1-0.6,0.5-0.9c-3.6-2.1-7.4-4-11.8-3.2
			C598.7,237.5,599,238.5,599.6,238.4L599.6,238.4z"/>
	</g>
	<g>
		<path class="st0" d="M524,210c4.6,5.2,11.2,7.8,18,7.1c1.1-0.1,1.1-1.8,0-1.7c-6.5,0.6-12.5-1.7-16.8-6.6
			C524.4,208,523.2,209.2,524,210L524,210z"/>
	</g>
	<g>
		<path class="st0" d="M501,205.7c1.2,2.3,2.8,4.2,4.9,5.7c2.4,1.7,4.9,2.2,7.5,3.2c1,0.4,1.5-1.3,0.5-1.7c-2.3-0.8-4.5-1.2-6.5-2.6
			c-2.1-1.4-3.7-3.3-4.9-5.5C502,203.8,500.5,204.7,501,205.7L501,205.7z"/>
	</g>
	<g>
		<path class="st0" d="M630.6,207.9c-5.8,2.3-6.6-9.8-10.3-11.8c-1-0.5-1.8,0.9-0.9,1.5c1.6,0.9,1.9,3,2.6,4.5
			c0.8,1.7,1.7,3.4,2.8,4.9c1.5,2.1,3.7,3.6,6.3,2.6C632.1,209.1,631.6,207.5,630.6,207.9L630.6,207.9z"/>
	</g>
	<g>
		<path class="st0" d="M609.4,195.3c1.6,0.5,3.1,1.1,4.6,1.9c1,0.5,1.8-1,0.9-1.5c-1.6-0.9-3.3-1.6-5-2.1
			C608.8,193.4,608.3,195,609.4,195.3L609.4,195.3z"/>
	</g>
	<g>
		<path class="st0" d="M578.8,195.2c1-2.1,2.4-3.8,4.3-5.2c0.9-0.6,0-2.1-0.9-1.5c-2.1,1.5-3.8,3.5-4.9,5.8
			C576.8,195.3,578.3,196.2,578.8,195.2L578.8,195.2z"/>
	</g>
	<g>
		<path class="st0" d="M585,214.8c0.8-1.4,1.9-2.6,3.1-3.6c0.8-0.7-0.4-1.9-1.2-1.2c-1.4,1.1-2.5,2.5-3.4,4
			C583,214.9,584.5,215.7,585,214.8L585,214.8z"/>
	</g>
	<g>
		<path class="st0" d="M489.2,202c0.2,4,2.3,7.4,5.6,9.5c0.9,0.6,1.8-0.9,0.9-1.5c-2.8-1.8-4.6-4.7-4.8-8.1
			C490.8,200.9,489.1,200.9,489.2,202L489.2,202z"/>
	</g>
</g>
</svg>
